<?xml version="1.0" encoding="utf-8"?>
<!-- Generator: Adobe Illustrator 23.0.0, SVG Export Plug-In . SVG Version: 6.00 Build 0)  -->
<svg version="1.1" id="Capa_1" xmlns="http://www.w3.org/2000/svg" xmlns:xlink="http://www.w3.org/1999/xlink" x="0px" y="0px"
	 viewBox="0 0 104 58" style="enable-background:new 0 0 104 58;" xml:space="preserve">
<style type="text/css">
	.st0{fill:#F9FAF9;}
	.st1{fill:#FCFCFB;}
</style>
<g>
	<path class="st0" d="M41.4,34.8c-0.5,2.8-1.9,5-3.7,7c-3.6,4.2-8.3,6.5-13.8,6.9c-10.7,0.9-20-6-22.3-16.5
		C-0.9,20.4,6.8,9.4,18,7.1c8.9-1.8,17.8,2.3,22.3,10.1c0.1,0.1,0.2,0.3,0.3,0.4c0.2,0.3,0.2,0.6-0.1,0.8c-0.3,0.2-0.6,0.1-0.8-0.2
		c-0.5-0.7-1.1-1.1-1.8-1.6c-1.3-1.1-2.9-1.6-4.6-1.6c-0.4,0-0.6-0.1-0.8-0.4c-0.8-1.5-1.7-2.9-2.6-4.4c-0.2-0.3-0.3-0.4-0.7-0.2
		c-5.5,3.3-11,6.6-16.5,9.8c-0.3,0.2-0.4,0.3-0.2,0.6c4.5,7.6,9.1,15.2,13.6,22.8c0.2,0.4,0.4,0.4,0.7,0.2c4.6-2.8,9.3-5.7,13.9-8.5
		C41.1,35,41.2,34.9,41.4,34.8z M31.3,10.1c0,0-0.1,0-0.1,0c0,0,0,0.1,0,0.1c0.7,1.2,1.4,2.4,2.1,3.6c0.1,0.2,0.3,0.3,0.6,0.3
		c1.1,0.1,2.3,0.2,3.3,0.8C35.6,12.8,33.6,11.2,31.3,10.1z M39.3,37.4c-0.2,0.1-0.3,0.2-0.5,0.3c-4.1,2.5-8.1,4.9-12.2,7.4
		c-0.4,0.3-0.6,0.3-0.8-0.2c-4.8-8.2-9.7-16.3-14.5-24.5c-0.3-0.4-0.3-0.6,0.2-0.9c5.6-3.3,11.3-6.7,16.9-10C28.6,9.3,28.9,9.3,29,9
		c-0.1,0-0.2-0.1-0.3-0.1C25.2,7.7,21.6,7.5,18,8.3C7.2,10.5,0.2,21.5,2.8,32.2c2.8,11.7,14.8,18.3,26.1,14.4
		C33.6,44.9,37.1,41.8,39.3,37.4c0.1,0,0.1,0,0.1,0C39.4,37.3,39.4,37.3,39.3,37.4z"/>
	<path class="st0" d="M33.4,30.8c1.3,0,2.5-0.3,3.5-0.8c0.3-0.2,0.5-0.2,0.7,0.2c0.9,1.5,1.8,2.9,2.7,4.3c0.2,0.3,0.1,0.4-0.2,0.6
		c-3.1,1.8-6.1,3.6-9.1,5.4c-0.3,0.2-0.5,0.1-0.7-0.2c-4.3-7.3-8.6-14.5-12.9-21.8c-0.2-0.3-0.2-0.4,0.1-0.6c4-2.4,8-4.8,12-7.2
		c0.3-0.2,0.4-0.2,0.6,0.1c0.6,1.1,1.3,2.2,1.9,3.3c0.2,0.3,0.2,0.4-0.1,0.5c-0.7,0.3-1.5,0.7-2.2,1.1c-3.1,1.6-4.8,5.1-4.1,8.6
		c0.6,3.4,3.5,6,6.9,6.4C32.9,30.8,33.2,30.8,33.4,30.8z M33.4,31.9c-0.5,0-1-0.1-1.6-0.2c-3.7-0.7-6.7-3.7-7.3-7.4
		c-0.6-3.9,1.2-7.6,4.6-9.5c0.5-0.3,1.4-0.4,1.5-0.9c0.1-0.5-0.6-1-0.8-1.6c-0.1-0.3-0.3-0.3-0.5-0.1c-3.4,2-6.8,4.1-10.2,6.1
		c-0.3,0.2-0.3,0.3-0.1,0.5c4,6.7,7.9,13.3,11.9,20c0.2,0.3,0.3,0.3,0.5,0.1c2.4-1.5,4.9-2.9,7.4-4.3c0.3-0.2,0.3-0.3,0.1-0.6
		c-0.6-0.8-1.1-1.7-1.6-2.6c-0.2-0.3-0.4-0.3-0.7-0.2C35.5,31.7,34.5,31.9,33.4,31.9z"/>
	<path class="st1" d="M54.2,33.8c0,1.9,0,3.8,0,5.7c0,0.4-0.1,0.5-0.5,0.5c-0.7,0-1.4,0-2.1,0c-0.3,0-0.4,0.1-0.4,0.4
		c0,0.4,0,0.9,0,1.3c0,0.3,0.1,0.4,0.4,0.4c0.7,0,1.4,0,2.1,0c0.3,0,0.4,0.1,0.4,0.4c0,1.2,0,1.2-1.2,1.2c-0.1,0-0.2,0-0.3,0
		c-0.5,0-1.2-0.2-1.3,0.1c-0.3,0.5-0.1,1.1-0.1,1.7c0,0.3,0.2,0.2,0.4,0.2c0.7,0,1.5,0,2.2,0c0.2,0,0.3,0,0.4,0.3
		c0.1,1.2,0.1,1.2-1.2,1.2c-1,0-2,0-3,0c-0.3,0-0.4-0.1-0.4-0.4c0-2.6,0-5.2,0-7.8c0-0.4,0.1-0.5,0.5-0.5c0.4,0,0.9,0,1.3,0
		c0.2,0,0.4,0,0.4-0.3c0-3.4,0-6.8,0-10.1c0-0.3-0.1-0.3-0.3-0.3c-0.6,0-1.1,0-1.7,0c-0.3,0-0.4,0-0.4-0.4c0-0.5,0-1.1,0-1.6
		c0-0.2,0.1-0.3,0.3-0.3c2.2,0,4.4,0,6.7,0c0.2,0,0.3,0.1,0.3,0.3c0,0.6,0,1.1,0,1.7c0,0.3-0.1,0.3-0.4,0.3c-0.5,0-1.1,0-1.6,0
		c-0.4,0-0.5,0.1-0.5,0.4C54.2,30,54.2,31.9,54.2,33.8C54.2,33.8,54.2,33.8,54.2,33.8z"/>
	<path class="st0" d="M40.6,25.7c0.7-1.3,0.6-2.6,0.5-4c0-0.3-0.1-0.6-0.1-0.9c0-0.3,0-0.6,0.4-0.7c0.4-0.1,0.6,0.1,0.8,0.3
		c0.9,1.2,1.4,2.6,1.6,4.1c0.3,2.6,0.1,5.1-0.1,7.7c0,0.1,0,0.1-0.1,0.3c-0.6-0.9-1.1-1.8-1.7-2.6c-0.2,0.2,0,0.3,0.1,0.4
		c0.5,0.8,0.9,1.6,1.4,2.3c0.1,0.2,0.1,0.4-0.1,0.5c-0.7,0.4-1.3,0.8-2,1.2c-0.2,0.1-0.3,0.1-0.4-0.1c-0.9-1.5-1.9-3-2.8-4.5
		c-0.2-0.2-0.1-0.3,0.1-0.5c0.7-0.5,1.1-1.3,1.3-2.1c0.1-0.3,0.1-0.6,0.3-0.8c0.2-0.2-0.1-0.3-0.1-0.5c-2-3.3-4-6.7-6-10
		c-0.1-0.2-0.2-0.3-0.3-0.5c3.3,0,6,2.1,7.1,4.7c0.8,1.8,0.8,3.6,0.2,5.5c0,0.1-0.2,0.2-0.1,0.2C40.6,26,40.6,25.8,40.6,25.7z
		 M41.2,29C41.2,29,41.2,28.9,41.2,29C41.1,28.9,41.1,28.9,41.2,29C41.1,29,41.2,29,41.2,29c-0.1,0.2,0.1,0.2,0.2,0.4
		C41.4,29.2,41.4,29.1,41.2,29z M39.7,24.2c0.7-2.7-2-7.1-4.3-7.1C36.8,19.4,38.2,21.7,39.7,24.2z M42.2,23.1
		c0.1,1.4-0.3,2.5-0.8,3.6c-0.1,0.1-0.2,0.2-0.1,0.3c0.4,0.7,0.9,1.4,1.4,2.2C42.9,26.8,42.7,24.1,42.2,23.1z M39.9,29
		c-0.2,0.2-0.3,0.4-0.5,0.6c-0.2,0.2-0.1,0.3,0,0.5c0.6,0.9,1.2,1.8,1.7,2.8c0.2,0.4,0.4,0.1,0.6,0c0.2-0.1,0.4-0.2,0.2-0.5
		C41.2,31.2,40.5,30.1,39.9,29z M41.5,29.4c0,0.2,0.1,0.3,0.4,0.5C41.7,29.7,41.7,29.5,41.5,29.4z M41.1,28.7
		C41,28.7,41,28.7,41.1,28.7c-0.1,0.1-0.1,0.1,0,0.1C41.1,28.8,41.1,28.8,41.1,28.7C41.1,28.7,41.1,28.7,41.1,28.7z"/>
	<path class="st1" d="M65.4,35.6c-0.7,1.6-2,2.5-3.6,2.9c-2.7,0.6-5.5-1.1-6.1-3.7c-0.7-2.8,1-5.6,3.7-6.3c3.5-0.9,6.8,2,6.3,5.5
		c0,0.4-0.1,0.5-0.6,0.5c-2.2,0-4.3,0-6.5,0c-0.2,0-0.4,0-0.5,0c0.3,1.4,1.7,2.2,3.2,1.9c0.3-0.1,0.7-0.1,0.9-0.4
		c0.5-0.6,1.1-0.5,1.8-0.5C64.4,35.6,64.9,35.6,65.4,35.6z M60.7,32.4c0.8,0,1.5,0,2.3,0c0.3,0,0.4-0.1,0.2-0.4
		c-0.5-1-1.4-1.5-2.5-1.5c-1.1,0-2,0.5-2.6,1.5c-0.2,0.4,0,0.4,0.3,0.4C59.2,32.4,60,32.4,60.7,32.4z"/>
	<path class="st1" d="M82.1,33.5c0-2.9,2.3-5.2,5.3-5.2c2.9,0,5.1,2.3,5.1,5.2c0,2.9-2.3,5.1-5.3,5.1C84.4,38.6,82.1,36.3,82.1,33.5
		z M87.3,36.5c1.6,0,2.9-1.2,2.9-2.9c0-1.7-1.3-3-2.8-3c-1.5,0-2.9,1.4-2.9,3C84.4,35.2,85.7,36.5,87.3,36.5z"/>
	<path class="st0" d="M16.3,19c0.2,0.1,0.2,0.2,0.3,0.4c1.6,2.7,3.2,5.4,4.8,8.1c2.7,4.5,5.4,9.1,8.1,13.6c0.2,0.4,0.2,0.5-0.2,0.7
		c-0.6,0.3-1.1,0.6-1.6,1c-0.3,0.2-0.5,0.2-0.7-0.2c-2-3.4-4-6.8-6-10.2c-2.3-3.8-4.5-7.7-6.8-11.5c-0.2-0.4-0.2-0.6,0.2-0.8
		c0.6-0.3,1.1-0.7,1.7-1C16.1,19.1,16.2,19,16.3,19z M28.2,41c-0.1-0.1-0.1-0.3-0.2-0.4c-2.3-3.9-4.7-7.9-7-11.8
		c-1.6-2.7-3.2-5.3-4.8-8c-0.1-0.3-0.2-0.4-0.6-0.2c-0.4,0.2-0.2,0.4,0,0.6c2.7,4.6,5.4,9.1,8.1,13.7c1.2,2.1,2.5,4.2,3.7,6.3
		c0.1,0.1,0.1,0.4,0.3,0.3C27.9,41.3,28.1,41.2,28.2,41z"/>
	<path class="st1" d="M66.8,28.6c0.9,0,1.7,0,2.5,0c0.3,0,0.3,0.2,0.4,0.3c0.5,0.7,1,1.5,1.5,2.3c0.5-0.8,0.9-1.4,1.3-2.2
		c0.2-0.4,0.5-0.5,0.9-0.5c0.7,0,1.4,0,2.1,0c-0.3,0.4-0.5,0.8-0.8,1.2c-0.6,1-1.3,2-2,3c-0.2,0.3-0.2,0.6,0,0.9
		c1.1,1.5,2.1,3,3.2,4.6c-1,0-1.8,0-2.7,0c-0.2,0-0.3-0.2-0.4-0.3c-0.6-0.9-1.2-1.8-1.8-2.8c-0.6,1-1.2,1.9-1.8,2.8
		c-0.2,0.2-0.3,0.3-0.6,0.3c-0.8,0-1.6,0-2.4,0c0-0.3,0.2-0.4,0.3-0.5c0.9-1.4,1.9-2.8,2.9-4.1c0.2-0.3,0.2-0.4,0-0.7
		C68.7,31.6,67.8,30.1,66.8,28.6z"/>
	<path class="st1" d="M94.4,35.3c0.3,0,0.4,0,0.6,0c0.4,0,0.6,0,0.8,0.4c0.2,0.4,0.6,0.7,1.1,0.6c0.5,0,0.9-0.2,1-0.7
		c0.1-0.5-0.1-0.9-0.6-1.1c-0.3-0.2-0.7-0.3-1-0.4c-0.4-0.1-0.7-0.3-1.1-0.4c-1.1-0.5-1.7-1.3-1.7-2.6c0-1.3,0.8-2.2,1.9-2.7
		c1.8-0.8,3.9,0.2,4.4,2c0.2,0.7,0.2,0.7-0.5,0.7c-0.4,0-0.7,0-1.1,0c-0.3,0-0.5,0-0.7-0.4c-0.2-0.4-0.7-0.4-1.1-0.3
		c-0.3,0.1-0.5,0.3-0.5,0.7c0,0.4,0.3,0.6,0.6,0.8c0.6,0.2,1.3,0.4,1.9,0.7c1.9,0.8,2.4,2.9,1.1,4.5c-1.6,2-4.9,1.7-6-0.5
		c-0.2-0.5-0.5-1-0.3-1.5C93.4,35.1,94.1,35.3,94.4,35.3z"/>
	<path class="st0" d="M26.5,23.5c0-3.7,1.9-6.3,4.8-7.3c0.3-0.1,0.5,0,0.6,0.3c2.1,3.7,4.2,7.4,6.4,11.1c0.2,0.3,0.1,0.5-0.1,0.7
		c-2.3,1.9-4.9,2.3-7.6,1.1C27.9,28.1,26.6,25.8,26.5,23.5z M27.5,22.9c0.1,2.3,1,4.1,3.1,5.2c2,1.1,4.1,1,6.1-0.2
		c0.3-0.2,0.4-0.3,0.2-0.6c-1.8-3.2-3.7-6.3-5.5-9.5c-0.2-0.3-0.3-0.3-0.6-0.2C28.7,18.7,27.7,20.5,27.5,22.9z"/>
	<path class="st1" d="M77.6,34.5c0-1.1,0-2.2,0-3.3c0-0.4-0.1-0.6-0.5-0.5c-0.5,0.1-0.7-0.1-0.7-0.6c0-0.3,0-0.7,0-1
		c0-0.4,0.1-0.5,0.5-0.5c0.5,0.1,0.7-0.1,0.7-0.7c-0.1-0.8,0-1.5,0-2.3c0-0.3,0.1-0.3,0.3-0.3c0.5,0,1.1,0,1.6,0
		c0.3,0,0.4,0.1,0.4,0.4c0,0.8,0,1.6,0,2.5c0,0.3,0.1,0.4,0.4,0.4c1,0,1,0,1,1c0,1,0,1-1,1c-0.4,0-0.4,0.2-0.4,0.5
		c0,2.2,0,4.5,0,6.7c0,0.4-0.1,0.5-0.5,0.5c-0.5,0-1,0-1.5,0c-0.3,0-0.4-0.1-0.4-0.4C77.6,36.8,77.6,35.6,77.6,34.5z"/>
	<path class="st1" d="M90.8,44.6c0.3,1.2,1.5,1.8,2.5,1.1c0.6-0.4,1.2-0.4,1.8-0.4c0.1,0,0.3,0,0.5,0c-0.4,1.1-1.2,1.7-2.2,1.9
		c-1.8,0.5-3.6-0.6-4.1-2.4c-0.5-1.9,0.6-3.9,2.4-4.4c1.9-0.4,3.6,0.7,4,2.6c0.3,1.3,0.1,1.4-1.1,1.4C93.3,44.6,92.1,44.6,90.8,44.6
		z M94.2,43.2c-0.3-0.9-1-1.3-1.8-1.3c-0.8,0.1-1.4,0.6-1.6,1.3C91.9,43.2,93,43.2,94.2,43.2z"/>
	<path class="st1" d="M83,41.5c0.1-0.9,0.1-0.8,0.9-0.9c0.4,0,0.5,0.1,0.5,0.5c0,1.8,0,3.7,0,5.5c0,0.5-0.1,0.6-0.6,0.5
		c-0.1,0-0.1,0-0.2,0c-0.5,0-0.9,0.1-0.6-0.8c-0.3,0.2-0.5,0.4-0.7,0.5c-1.3,0.9-3.1,0.6-4.1-0.7c-1-1.4-0.9-3.4,0.1-4.7
		C79.6,40.3,81.8,39.8,83,41.5z M79.3,44c0,1.1,0.8,1.9,1.9,1.9c1.1,0,1.9-0.9,1.9-2c0-1.1-0.8-1.9-1.8-2
		C80.1,41.9,79.3,42.8,79.3,44z"/>
	<path class="st0" d="M74.4,43.9c0,2-1.5,3.5-3.4,3.5c-1.8,0-3.3-1.6-3.3-3.5c0-2,1.5-3.5,3.5-3.5C72.9,40.4,74.4,41.9,74.4,43.9z
		 M72.9,44c0-1.1-0.9-2-1.9-2c-1,0-1.8,1-1.8,2c0,1.1,0.9,2,1.9,2C72,45.9,72.9,45.1,72.9,44z"/>
	<path class="st0" d="M65.7,42.8c-0.4,0.1-0.7-0.1-1.1-0.4c-0.4-0.5-1-0.5-1.6-0.3c-0.7,0.2-1.2,0.9-1.3,1.7c-0.1,0.9,0.4,1.7,1.1,2
		c0.7,0.3,1.5,0.2,2-0.4c0.3-0.4,0.7-0.2,1.1-0.2c0.3,0,0.7-0.1,0.8,0.1c0.1,0.3-0.2,0.6-0.3,0.8c-0.9,1.2-2.6,1.7-4,1.1
		c-1.5-0.6-2.3-2.1-2.1-3.7c0.2-1.6,1.3-2.7,2.9-3c1.3-0.2,2.8,0.5,3.4,1.7c0.4,0.7,0.3,0.7-0.4,0.7C66,42.8,65.9,42.8,65.7,42.8z"
		/>
	<path class="st0" d="M51.1,18.5c0,0.9,0,1.8,0,2.7c0,0.4,0,0.8,0,1.2c0,0.5-0.1,0.6-0.6,0.6c-0.5,0-0.6-0.2-0.6-0.7
		c0-1.8,0-3.6,0-5.4c0-0.4,0-0.5,0.5-0.5c0.7,0,1,0.2,1.3,0.8c0.6,1.2,1.4,2.4,2.1,3.6c0,0.1,0.1,0.2,0.2,0.2c0-1.4,0-2.7,0-4.1
		c0-0.5,0.1-0.6,0.6-0.5c0.4,0,0.7-0.1,0.7,0.5c-0.1,1.9,0,3.7,0,5.6c0,0.4-0.1,0.5-0.5,0.5c-0.6,0-1-0.2-1.3-0.7
		c-0.7-1.3-1.4-2.6-2.2-3.8C51.2,18.5,51.1,18.5,51.1,18.5z"/>
	<path class="st0" d="M97.3,45.1c0.3,0,0.7-0.1,0.9,0.5c0.1,0.3,0.5,0.4,0.8,0.2c0.3-0.1,0.4-0.2,0.5-0.5c0-0.4-0.2-0.6-0.5-0.7
		c-0.4-0.2-0.8-0.3-1.2-0.5c-1-0.5-1.3-1.3-1-2.3c0.3-0.9,1.2-1.5,2.2-1.4c0.9,0.1,1.8,0.8,1.9,1.7c0,0.1,0.1,0.2,0,0.3
		c-0.1,0.1-1.4,0-1.5-0.1c-0.2-0.3-0.4-0.4-0.8-0.2c-0.2,0.1-0.4,0.2-0.4,0.5c0,0.4,0.3,0.5,0.6,0.6c0.4,0.1,0.7,0.2,1.1,0.4
		c1.1,0.5,1.5,1.4,1.1,2.5c-0.3,0.9-1.3,1.5-2.3,1.5c-1-0.1-1.8-0.7-2.1-1.7c-0.2-0.6-0.2-0.6,0.5-0.6C97,45.1,97.1,45.1,97.3,45.1z
		"/>
	<path class="st0" d="M56,45.1c0.3,0,0.7,0,0.9,0.4c0.1,0.3,0.5,0.4,0.8,0.3c0.3-0.1,0.5-0.2,0.5-0.5c0-0.4-0.2-0.6-0.5-0.7
		c-0.4-0.2-0.9-0.3-1.3-0.5c-0.9-0.5-1.2-1.3-0.9-2.2c0.3-0.9,1.3-1.5,2.3-1.4c0.9,0.1,1.7,0.9,1.8,1.7c0,0.1,0.1,0.2-0.1,0.3
		c-0.2,0.1-1.3,0-1.5-0.2c-0.2-0.2-0.5-0.3-0.7-0.2c-0.2,0.1-0.4,0.3-0.3,0.5c0,0.3,0.2,0.4,0.5,0.5c0.4,0.1,0.8,0.3,1.2,0.4
		c1.2,0.5,1.6,1.9,0.8,2.9c-0.6,0.8-1.4,1.1-2.3,1c-0.9-0.1-1.6-0.7-1.8-1.6c-0.2-0.7-0.2-0.7,0.5-0.7C55.7,45.1,55.8,45.1,56,45.1z
		"/>
	<path class="st0" d="M55.4,11.2c0,1.7-1.4,3-3.1,3c-1.7,0-3.1-1.4-3.1-3.1c0-1.7,1.4-3,3.1-3C54,8.1,55.4,9.5,55.4,11.2z M52.3,9.2
		c-1.2,0-2,0.8-2,1.9c0,1.1,0.9,2,2,2c1.1,0,2-0.8,2-1.9C54.3,10,53.5,9.2,52.3,9.2z"/>
	<path class="st0" d="M84.8,22.4c-1.5,1-2.7,1-3.6-0.1c-0.8-1-0.7-2.7,0.2-3.6c0.9-0.9,2.2-0.9,3.2,0.1c0.2-0.2-0.2-0.7,0.4-0.7
		c0.7,0,0.7,0,0.7,0.7c0,1.2,0,2.4,0,3.6c0,0.3,0.1,0.7-0.5,0.6C85,23,84.5,23.1,84.8,22.4z M83.3,22c0.8,0,1.4-0.6,1.4-1.4
		c0-0.8-0.6-1.4-1.5-1.3c-0.8,0-1.4,0.6-1.4,1.4C81.8,21.4,82.4,22,83.3,22z"/>
	<path class="st0" d="M60.2,22.4c-1.4,1-2.7,0.9-3.5-0.1c-0.8-1-0.7-2.7,0.2-3.6c0.9-0.9,2.2-0.9,3.2,0.1c0.2-0.2-0.2-0.7,0.4-0.7
		c0.7,0,0.7,0,0.7,0.7c0,1.2,0,2.4,0,3.6c0,0.3,0.1,0.7-0.5,0.6C60.4,23,60,23.1,60.2,22.4z M58.7,19.2c-0.9,0-1.5,0.6-1.5,1.4
		c0,0.7,0.6,1.3,1.4,1.3c0.8,0,1.5-0.5,1.5-1.3C60.2,19.8,59.6,19.2,58.7,19.2z"/>
	<path class="st1" d="M57.2,10.1c1.1-0.8,2.3-0.7,3.1,0.3c0.7,0.9,0.7,2.4-0.2,3.2c-0.8,0.8-2,0.8-3,0c-0.1,0.5-0.3,0.6-0.9,0.5
		c-0.2,0-0.2-0.2-0.2-0.3c0-1.8,0-3.5,0-5.3c0-0.5,0.4-0.3,0.6-0.3c0.2,0,0.5-0.2,0.5,0.3C57.2,9,57.2,9.5,57.2,10.1z M58.5,13.1
		c0.7,0,1.3-0.5,1.3-1.2c0-0.8-0.6-1.3-1.3-1.3c-0.8,0-1.3,0.5-1.3,1.2C57.1,12.6,57.7,13.1,58.5,13.1z"/>
	<path class="st1" d="M74.8,20.6c0,1.4-1.2,2.6-2.6,2.6c-1.4,0-2.5-1.2-2.6-2.5c0-1.5,1.1-2.6,2.6-2.6C73.7,18,74.8,19.2,74.8,20.6z
		 M72.2,22c0.8,0,1.4-0.5,1.4-1.3c0-0.8-0.6-1.4-1.4-1.4c-0.8,0-1.5,0.6-1.5,1.4C70.8,21.3,71.4,22,72.2,22z"/>
	<path class="st1" d="M65.9,12.4c0.4,0.7,1.1,1,1.7,0.7c0.5-0.3,1-0.2,1.5-0.2c-0.2,0.8-1.3,1.5-2.3,1.4c-1.2-0.1-2.1-1.1-2.1-2.3
		c0-1.2,1-2.3,2.2-2.4c1.2-0.1,2.3,0.8,2.4,2c0.1,0.7,0,0.8-0.7,0.8C67.8,12.4,66.9,12.4,65.9,12.4z M68.4,11.4
		c-0.4-0.6-0.8-0.8-1.4-0.7c-0.4,0.1-0.8,0.2-1,0.7C66.8,11.4,67.5,11.4,68.4,11.4z"/>
	<path class="st0" d="M80.8,10.2c0.1-0.5,0.5-0.7,0.9-0.5c0.2,0.1,0.1,0.3,0.1,0.4c0,1.2,0,2.4,0,3.5c0,0.2,0.2,0.6-0.3,0.6
		c-0.4,0-0.8,0.1-0.6-0.6c-0.6,0.5-1.1,0.8-1.8,0.7c-0.6-0.1-1.1-0.3-1.4-0.8c-0.7-0.9-0.6-2.4,0.2-3.2C78.7,9.3,79.7,9.3,80.8,10.2
		z M79.5,10.6c-0.8,0-1.4,0.5-1.3,1.3c0,0.7,0.6,1.2,1.3,1.2c0.8,0,1.3-0.5,1.3-1.3C80.8,11.1,80.3,10.6,79.5,10.6z"/>
	<path class="st0" d="M75.5,20.6c0-0.7,0-1.3,0-2c0-0.2-0.1-0.4,0.2-0.4c0.3,0,0.7-0.2,0.8,0.1c0.1,0.2,0.1,0.2,0.3,0.1
		c1.5-0.8,2.9,0,3,1.7c0,0.9,0,1.8,0,2.7c0,0.3-0.1,0.3-0.4,0.3c-0.8,0-0.8,0-0.8-0.8c0-0.7,0-1.4,0-2.1c0-0.7-0.4-1.1-1-1.1
		c-0.6,0-0.9,0.4-1,1.1c0,0.8,0,1.6,0,2.4c0,0.3-0.1,0.4-0.4,0.4c-0.8,0-0.8,0-0.8-0.7C75.5,21.7,75.5,21.2,75.5,20.6z"/>
	<path class="st0" d="M76.8,42.8c0,1.3,0,2.6,0,3.9c0,0.4-0.1,0.5-0.5,0.5c-1.1,0-1.1,0-1.1-1.1c0-2.4,0-4.8,0-7.1
		c0-0.4,0-0.6,0.5-0.6c1,0,1,0,1,1C76.8,40.6,76.8,41.7,76.8,42.8z"/>
	<path class="st1" d="M66.2,19.9c-0.4,0-0.6,0-0.9-0.3c-0.5-0.5-1.4-0.4-1.9,0.1c-0.5,0.5-0.5,1.3-0.1,1.9c0.5,0.5,1.4,0.7,1.9,0.2
		c0.4-0.5,0.9-0.3,1.4-0.3c0.3,0,0.1,0.3,0,0.4c-0.7,1.5-2.9,1.8-4.1,0.6c-0.7-0.7-0.9-1.6-0.6-2.6c0.3-1,1.1-1.6,2.2-1.7
		c1-0.1,1.8,0.3,2.4,1.1c0.1,0.2,0.4,0.4,0.2,0.7C66.7,20,66.4,19.9,66.2,19.9z"/>
	<path class="st0" d="M87.3,9.5c1.3,0,2.3,1.1,2.3,2.4c0,1.3-1.1,2.3-2.4,2.3c-1.3,0-2.4-1.1-2.3-2.4C84.9,10.5,86,9.5,87.3,9.5z
		 M87.2,13.1c0.8,0,1.3-0.5,1.3-1.2c0-0.7-0.6-1.3-1.3-1.3c-0.7,0-1.3,0.6-1.3,1.3C85.9,12.6,86.5,13.1,87.2,13.1z"/>
	<path class="st0" d="M96.9,9.5c1.3,0,2.4,1,2.4,2.3c0,1.3-1,2.3-2.3,2.4c-1.3,0-2.4-1-2.4-2.3C94.6,10.6,95.6,9.5,96.9,9.5z
		 M96.9,13.1c0.8,0,1.3-0.5,1.3-1.2c0-0.7-0.6-1.3-1.3-1.3c-0.7,0-1.3,0.6-1.3,1.3C95.6,12.6,96.2,13.1,96.9,13.1z"/>
	<path class="st1" d="M87.1,41.1c0.3-0.3,0.6-0.6,1-0.7c0.1,0,0.3-0.1,0.4,0c0.3,0.3,0.1,0.7,0.1,1.1c0,0.1,0.1,0.3-0.2,0.4
		c-1,0.3-1.1,0.5-1.1,1.6c0,1.1,0,2.2,0,3.3c0,0.3-0.1,0.4-0.4,0.4c-1.1,0-1.1,0-1.1-1.1c0-1.7,0-3.3,0-4.9c0-0.4,0.1-0.6,0.5-0.5
		c0.1,0,0.3,0,0.4,0C86.9,40.6,87.1,40.7,87.1,41.1z"/>
	<path class="st0" d="M94.7,22.7c-1,0.8-1.9,0.8-2.6,0.1c-0.8-0.7-0.9-2-0.2-2.9c0.6-0.8,1.5-0.9,2.7-0.3c0-0.4,0-0.8,0-1.3
		c0-0.4,0.2-0.3,0.4-0.3c0.2,0,0.5-0.2,0.5,0.3c0,1.5,0,3,0,4.6c0,0.3-0.1,0.3-0.3,0.3C94.9,23.2,94.6,23.3,94.7,22.7z M94.7,21.2
		c0-0.6-0.5-1.1-1.2-1.1c-0.6,0-1.1,0.5-1.1,1.1c0,0.6,0.5,1.1,1.1,1.1C94.2,22.3,94.7,21.8,94.7,21.2z"/>
	<path class="st1" d="M97.2,21.7c0.4,0.6,0.9,0.8,1.5,0.5c0.4-0.2,0.8-0.1,1.3-0.1c-0.4,1-1.5,1.5-2.5,1.1c-1.1-0.4-1.6-1.6-1.2-2.7
		c0.3-0.9,1.3-1.4,2.2-1.3c0.9,0.2,1.7,1,1.7,2c0,0.4,0,0.6-0.5,0.5C98.9,21.6,98.1,21.6,97.2,21.7C97.3,21.6,97.2,21.7,97.2,21.7z
		 M99.3,20.7c-0.3-0.5-0.7-0.7-1.2-0.6c-0.4,0-0.7,0.2-0.9,0.6C97.9,20.7,98.5,20.7,99.3,20.7z"/>
	<path class="st0" d="M61.8,12.7c0.2-0.1,0.5,0,0.6,0.3c0.1,0.2,0.4,0.3,0.6,0.2c0.2-0.1,0.3-0.2,0.3-0.4c0-0.3-0.2-0.4-0.4-0.5
		c-0.3-0.1-0.5-0.2-0.8-0.3c-0.6-0.3-0.9-0.8-0.8-1.5c0.2-0.6,0.8-1.1,1.5-1.1c0.6,0,1.2,0.5,1.3,1.1c0,0.1,0.1,0.3-0.1,0.3
		c-0.3,0-0.7,0.2-1-0.2c-0.1-0.1-0.3-0.2-0.5,0c-0.1,0.1-0.2,0.2-0.2,0.3c0,0.2,0.2,0.3,0.3,0.4c0.3,0.1,0.6,0.2,0.8,0.3
		c0.8,0.3,1,1,0.7,1.7c-0.3,0.6-0.8,0.9-1.4,0.9c-0.6,0-1.2-0.2-1.5-0.8C61.1,12.8,61.1,12.7,61.8,12.7z"/>
	<path class="st0" d="M74.6,12.6c0.3-0.8,0.6-1.6,0.8-2.3c0.1-0.5,0.4-0.7,1-0.6c0.1,0,0.3,0,0.4,0c0.1,0.1,0,0.2,0,0.3
		c-0.5,1.3-1,2.5-1.5,3.8c-0.1,0.3-0.3,0.3-0.6,0.3c-0.3,0-0.4-0.1-0.5-0.3c-0.5-1.3-1-2.5-1.5-3.8c-0.2-0.4,0-0.3,0.3-0.4
		c0.6-0.1,0.9,0.1,1,0.7C74,11.1,74.3,11.8,74.6,12.6z"/>
	<path class="st0" d="M86.6,19.7c0-0.9,0-1.9,0-2.8c0-0.6,0.4-0.3,0.7-0.4c0.3,0,0.5-0.1,0.5,0.4c0,1.9,0,3.9,0,5.8
		c0,0.5-0.3,0.4-0.6,0.4c-0.3,0-0.6,0.2-0.6-0.4C86.6,21.7,86.6,20.7,86.6,19.7z"/>
	<path class="st1" d="M82.8,12.3c0-0.4,0-0.8,0-1.1c0-0.3,0.1-0.6-0.4-0.6c-0.2,0-0.1-0.4-0.1-0.6c0-0.1-0.1-0.4,0.1-0.4
		c0.5,0,0.4-0.2,0.4-0.5c0-0.1,0-0.2,0-0.3c0-0.7,0.2-0.8,0.8-0.6c0.2,0,0.2,0.1,0.2,0.3c0,0.2,0,0.5,0,0.7c0,0.3,0,0.5,0.4,0.5
		c0.4,0,0.2,0.3,0.2,0.5c0,0.2,0.1,0.5-0.2,0.4c-0.4,0-0.4,0.1-0.4,0.4c0,0.9,0,1.8,0,2.7c0,0.5-0.3,0.4-0.6,0.4
		c-0.3,0-0.5,0-0.5-0.4C82.9,13.3,82.8,12.8,82.8,12.3z"/>
	<path class="st0" d="M90.3,11.9c0-0.6,0-1.2,0-1.8c0-0.1-0.1-0.4,0.1-0.4c0.3,0,0.6-0.2,0.8,0.1c0.1,0.2,0.1,0.2,0.2,0.1
		c0-0.1,0.1-0.1,0.2-0.1c0.2-0.1,0.4-0.4,0.7-0.1c0.2,0.2,0,0.9-0.3,1c-0.5,0.1-0.7,0.5-0.7,0.9c0,0.7,0,1.5,0,2.2
		c0,0.5-0.4,0.3-0.6,0.3c-0.2,0-0.5,0.1-0.5-0.3C90.3,13.1,90.3,12.5,90.3,11.9z"/>
	<path class="st0" d="M70.2,11.8c0-0.6,0-1.2,0-1.8c0-0.1-0.1-0.4,0.1-0.4c0.3,0,0.7-0.2,0.8,0.1c0.1,0.2,0.1,0.1,0.2,0
		c0.1,0,0.1-0.1,0.2-0.1c0.2,0,0.5-0.4,0.7,0c0.2,0.3,0,0.9-0.3,1c-0.5,0.1-0.6,0.5-0.6,0.9c0,0.7,0,1.4,0,2.1
		c0,0.5-0.2,0.5-0.6,0.5c-0.3,0-0.6,0-0.5-0.5C70.3,13.1,70.2,12.4,70.2,11.8z"/>
	<path class="st0" d="M68.9,20.6c0,0.7,0,1.3,0,2c0,0.3-0.1,0.4-0.4,0.4c-0.8,0-0.8,0-0.8-0.8c0-1.2,0-2.5,0-3.7
		c0-0.6,0.3-0.4,0.6-0.4c0.3,0,0.6-0.1,0.6,0.4C68.9,19.3,68.9,20,68.9,20.6z"/>
	<path class="st0" d="M92.8,11.9c0-0.6,0-1.3,0-1.9c0-0.4,0.3-0.4,0.5-0.3c0.2,0,0.6-0.2,0.6,0.3c0,1.3,0,2.5,0,3.8
		c0,0.5-0.4,0.3-0.6,0.3c-0.2,0-0.5,0.1-0.5-0.3C92.8,13.1,92.8,12.5,92.8,11.9z"/>
	<path class="st0" d="M68.4,17.6c-0.5,0.1-0.6,0-0.6-0.5c0-0.5,0.2-0.5,0.6-0.5c0.4,0,0.6,0.1,0.6,0.6
		C68.9,17.5,68.8,17.7,68.4,17.6z"/>
	<path class="st0" d="M93.3,8.2c0.4-0.1,0.5,0,0.6,0.5c0,0.5-0.2,0.5-0.6,0.5c-0.4,0-0.5-0.1-0.5-0.5C92.8,8.2,93,8.1,93.3,8.2z"/>
</g>
</svg>
