<?xml version="1.0" encoding="utf-8"?>
<!-- Generator: Adobe Illustrator 21.1.0, SVG Export Plug-In . SVG Version: 6.00 Build 0)  -->
<svg version="1.1" id="Capa_1" xmlns="http://www.w3.org/2000/svg" xmlns:xlink="http://www.w3.org/1999/xlink" x="0px" y="0px"
	 width="235px" height="125px" viewBox="0 0 235 125" style="enable-background:new 0 0 235 125;" xml:space="preserve">
<style type="text/css">
	.st0{fill:#082566;}
	.st1{fill:#AFBBBC;}
</style>
<g>
	<path class="st0" d="M88.7,38.4c-0.7-0.8-1.4-1.6-2.3-2.5c3-2.9,5.9-5.8,8.8-8.7c7.4-7.4,14.8-14.8,22.1-22.2
		c0.3-0.3,0.8-0.5,0.7-1.1c0.2,0,0.4,0,0.6,0c3.8,3.9,7.7,7.8,11.5,11.6c6.5,6.5,13,13,19.5,19.5c0.3,0.3,0.5,0.5,0.8,0.8
		c-0.6,1.1-1.8,1.7-2.4,2.8c-0.4,0-0.5,0.3-0.8,0.6c-9.2,9.2-18.4,18.4-27.6,27.6c-0.4,0.4-0.7,0.9-1.4,1c-2.9-3-5.9-6-8.9-9
		C102.4,52.1,95.6,45.2,88.7,38.4z M128.1,28.7c-7.3,7.3-14.6,14.6-21.9,21.8c3.6,3.6,7.3,7.3,11.1,11c0.2-0.1,0.4-0.3,0.6-0.5
		c3.3-3.3,6.6-6.7,10-10C134.8,44.2,133.1,35,128.1,28.7z M108.9,43.3c7.3-7.3,14.6-14.6,22-21.9c-0.2-0.2-0.4-0.5-0.7-0.8
		c-3.4-3.4-6.8-6.9-10.3-10.4c-0.3,0.3-0.6,0.5-0.8,0.7c-3.2,3.2-6.4,6.5-9.7,9.7C102.1,27.7,103.9,37,108.9,43.3z"/>
	<path class="st1" d="M88.7,38.4c6.9,6.8,13.7,13.7,20.6,20.6c3,3,6,6,8.9,9c0.8-0.1,1-0.7,1.4-1c9.2-9.2,18.4-18.4,27.6-27.6
		c0.2-0.2,0.4-0.5,0.8-0.6c0,0,0.1,0,0.1,0c2.5,1.9,2.5,2,0.3,4.2c-9.6,9.6-19.2,19.2-28.8,28.8c-1,1-1.5,0.9-2.4,0
		c-9.9-9.9-19.8-19.8-29.7-29.7c-1-1-1-1.6,0-2.4C88,39.3,88.3,38.8,88.7,38.4z"/>
	<path class="st1" d="M195.7,100.6c-1.1,0.5-2.2,0.2-3.3,0.5c-2.4,0.7-5,0.6-7.5,0.6c-44.7,0-89.4,0-134.1,0c-1.2,0-2.3-0.8-3.5-0.6
		c-0.3,0-0.5-0.3-0.4-0.6c0-0.3,0.2-0.4,0.5-0.4c0.3,0,0.7,0,1,0c48.6,0,97.3,0,145.9,0C194.7,100.1,195.3,99.9,195.7,100.6z"/>
	<path class="st0" d="M78.2,95.7c1.1-1.4,1.1-13.2,0-15.2c1.5,0,2.9,0,4.3,0c-1.2,2.3-1.2,13.7,0.2,15.6c-2.5,0-5,0-7.4,0
		c-0.8,0-1.5-0.4-2-0.9c-2-2.2-4-4.5-5.5-7.1c2-0.8,4.7-0.9,4.1-4c-0.3-1.5-1.9-2.1-4.3-1.7c-0.4,0.4-0.2,0.9-0.2,1.3
		c0,3.2,0,6.3,0,9.5c0,1.1,0,2.1,1.3,3c-1.9,0-3.4,0-5.2,0c1.2-0.8,1.2-1.9,1.2-3c0-3.3,0-6.5,0-9.8c0-1,0-2-1.1-2.9
		c2.8,0.1,5.2-0.2,7.6,0.2c2.2,0.3,3.4,1.4,3.7,3.1c0.3,1.8-0.5,3.3-2.5,4.4c-0.3,0.2-0.7,0.3-1,0.5C72.5,91,75.9,94.5,78.2,95.7z"
		/>
	<path class="st0" d="M145,96.1c1.2-1,1.2-2.2,1.2-3.4c0-3.2,0-6.3,0-9.5c0-0.9,0-1.9-1.2-2.8c4,0.2,7.7-0.6,11.2,1
		c3.1,1.4,4.5,3.8,4.4,7.2c-0.1,3-2.1,5.5-5,6.7c-2.5,1-5,0.8-7.6,0.8C147.2,96.2,146.3,96.1,145,96.1z M149,94
		c2,0.5,4.1,0.2,5.8-0.7c1.7-1,2.7-2.4,2.8-4.4c0.3-5.8-4.1-6.9-7.8-6.5c-0.5,0.1-0.7,0.3-0.7,0.8C149,86.9,149,90.4,149,94z"/>
	<path class="st0" d="M84.6,96.1c1.1-0.9,1-2.1,1-3.2c0-3.1,0-6.2,0-9.2c0-1.1,0.1-2.2-1.2-2.9c2.6-0.6,3.4-0.4,4.9,1.4
		c2.5,3,5,5.9,7.5,8.9c0.2,0.3,0.4,0.6,1.1,0.7c-0.4-3.8,0.7-7.5-0.8-11.2c1.1,0,2.4,0,4.1,0c-1.4,0.9-1.3,2.1-1.3,3.3
		c0,4.2,0,8.5,0,12.8c-1.4-0.1-2.4-0.9-3.2-1.8c-2.6-3.1-5.2-6.1-7.7-9.2c-0.3-0.4-0.5-0.9-1.3-1.2c0.5,3.9-0.7,7.8,0.9,11.5
		C87.3,96.1,86,96.1,84.6,96.1z"/>
	<path class="st0" d="M142.7,96.7c-1.6-0.1-2.5-1-3.3-2c-2.6-3-5.1-6.1-7.6-9.1c-0.3-0.3-0.5-0.8-1.2-1.1c0,0.7,0,1.3,0,1.9
		c0,2.1,0,4.3,0,6.4c0,1.2,0.1,2.2,1.4,3.1c-1.7,0-3.1,0-4.7,0c1.5-1,1.3-2.4,1.3-3.8c0-2.8,0-5.6,0-8.4c0-1.2,0.1-2.3-1.4-3.3
		c1.4,0,2.4,0,3.3,0c0.6,0,0.8,0.3,1.1,0.7c2.8,3.4,5.6,6.7,8.4,10.1c0.1,0.2,0.2,0.4,0.5,0.5c-0.1-3.8,0.9-7.6-0.4-11.2
		c1,0,2.3,0,3.9,0c-1.4,1.2-1.1,2.8-1.1,4.4C142.7,88.9,142.7,92.8,142.7,96.7z"/>
	<path class="st0" d="M177.8,96.1c-1.4,0-2.8,0-4.4,0c1.6-1.2,1.4-2.7,1.4-4.2c0-2.6,0-5.1,0-7.7c0-1.3,0-2.6-1.4-3.7
		c1.3,0,2.3,0,3.2,0c0.7,0,0.9,0.4,1.2,0.8c3,3.5,5.9,7.1,9,10.6c-0.3-3.8,0.9-7.6-0.6-11.3c1.1,0,2.4,0,3.9,0
		c-1.5,1.3-1.2,2.9-1.2,4.4c0,3.9,0,7.8,0,11.8c-1.7-0.3-2.7-1.3-3.6-2.4c-2.8-3.3-5.5-6.6-8.5-10.2c0,1.2,0,2,0,2.9
		c0,2,0,3.9,0,5.9C176.8,94.1,176.8,95.2,177.8,96.1z"/>
	<path class="st0" d="M32.2,96.1c-0.2-0.3,0-0.7-0.4-1c-1.6,1.3-3.6,1.6-5.6,1.4c-2.9-0.3-4.7-2.2-4.7-5.1c-0.1-2.7,0-5.3,0-8
		c0-1,0-2-1.1-2.8c1.7,0,3.2,0,4.8,0c-1.1,1-1,2.1-1,3.3c0,2.2,0,4.4,0,6.6c0.1,3.5,2.5,5,5.7,3.8c1.4-0.5,2.2-1.5,2.2-3.1
		c0-2.7,0-5.5,0-8.2c0-0.9-0.2-1.7-1-2.4c1.7,0,3.2,0,4.8,0c-0.9,0.9-0.9,2-0.9,3.1c0,3.3,0,6.5,0,9.8c0,1,0.1,1.9,1.2,2.6
		C34.6,96.1,33.4,96.1,32.2,96.1z"/>
	<path class="st0" d="M229.3,96.1c-1.6,0-3.2,0-4.8,0c0.5-0.9-0.4-4.9-1.2-5.7c-0.3-0.3-5.9-0.2-6.2,0.1c-1.1,1.1-1.6,4.6-0.8,5.6
		c-0.8,0-1.5,0-2.3,0c-0.7,0-1.5,0-2.4,0c2.4-2.1,3-5,4-7.6c1-2.6,2.9-4.9,2.7-8.1c0.8,0,1.8,0,2.9,0c0.7,0,0.8,0.4,1,0.9
		c1.6,3.8,3.2,7.5,4.8,11.3C227.6,93.9,228.1,95.2,229.3,96.1z M217.8,88.4c1.6,0,3,0.1,4.5-0.1c-0.7-1.8-1.4-3.4-2.2-5.4
		C219.3,84.8,218.6,86.5,217.8,88.4z"/>
	<path class="st0" d="M18.1,83.4c-1.6-1.1-3.2-1.7-5-1.3c-0.9,0.2-1.7,0.5-2,1.5c-0.3,1.1,0.4,1.8,1.3,2.3c1,0.6,2.1,1,3.1,1.5
		c0.7,0.3,1.4,0.6,2,1c2.6,1.6,2.8,4.2,0.6,6.3c-2,1.8-6.9,2.5-9.3,1.2c-1-0.6-0.8-1.8-1.2-3.1c1.7,1,3.2,1.7,4.8,1.8
		c1,0.1,1.9-0.1,2.7-0.5c1.6-0.7,1.9-2.4,0.5-3.6c-1-0.9-2.3-1.2-3.5-1.8c-0.8-0.4-1.7-0.8-2.4-1.3c-2.5-1.9-2.2-5.2,0.7-6.5
		c2.3-1,4.7-0.9,7.1-0.4c0.4,0.1,0.6,0.3,0.6,0.8C18.1,81.9,18.1,82.5,18.1,83.4z"/>
	<path class="st0" d="M205.2,93.1c-1.1,3-0.9,3.1-4.3,3.4c-2.2,0.2-4.3-0.1-6.3-1.1c-3.1-1.6-4.6-5-3.9-8.7c0.7-3.6,3.5-6.1,7.3-6.4
		c1-0.1,2.1-0.1,3.1,0c0.9,0.1,1.8,0.3,2.8,0.5c0,0.9,0,1.8,0,2.7c-1.1-0.3-2.1-0.9-3.3-1.1c-3.4-0.6-6.3,1.3-6.9,4.5
		c-0.6,3.4,1.6,6.8,4.8,7.4c1.8,0.3,3.6,0,5.3-0.7C204.3,93.3,204.7,93,205.2,93.1z"/>
	<path class="st0" d="M114.2,96.1c1.5-0.9,1.4-2,1.4-3.1c0-3,0-6,0-9c0-1.2,0.1-2.5-1-3.7c0.6,0,1,0,1.3,0c2.6,0,5.2,0,7.9,0
		c0,0.9,0,1.7,0,2.7c-1.8-1.2-3.5-0.8-5.4-0.8c0,1.4,0,2.7,0,4.1c1.3,0.3,2.6,0,4,0.2c0,0.8,0,1.5,0,2.5c-1.3-0.8-2.6-0.5-4-0.5
		c0,1.8,0,3.5,0,5.2c2.6,0.8,4.8,0.5,7.5-0.8c0,0.1,0.1,0.2,0.1,0.2c-0.9,2.9-0.9,2.9-3.8,2.9C119.7,96.1,117.2,96.1,114.2,96.1z"/>
	<path class="st0" d="M50.7,80.5c3.3,0,6.2,0,9.3,0c0,0.8,0,1.6,0,2.7c-1.7-1.1-3.5-0.8-5.4-0.7c0,1.4,0,2.7,0,4.1c1.3,0,2.6,0,4,0
		c0,0.9,0,1.6,0,2.5c-1.3-0.6-2.6-0.5-4-0.4c0,1.8,0,3.5,0,5.2c2.9,0.7,4.7,0.5,7.6-0.8c0,0.1,0,0.3,0,0.4c-0.8,2.7-0.8,2.7-3.7,2.7
		c-2.5,0-5,0-7.8,0c1.3-1.2,1-2.6,1-4c0-2.8,0-5.6,0-8.4C51.8,82.6,51.9,81.5,50.7,80.5z"/>
	<path class="st0" d="M170.6,80.6c0,0.9,0,1.7,0,2.6c-1.7-1.1-3.5-0.9-5.4-0.7c0,1.4,0,2.7,0,4.1c1.4,0,2.6,0,4,0c0,0.9,0,1.6,0,2.5
		c-1.3-0.8-2.6-0.6-4-0.5c0,1.7,0,3.4,0,5.3c2.5,0.4,4.9,0.7,7.3-0.8c0.1,2.2-0.5,3-2.4,3c-2.8,0-5.7,0-8.8,0c1.3-1.2,1-2.7,1-4
		c0-2.9,0-5.8,0-8.7c0-1-0.1-1.9-1-2.8C164.6,80.6,167.5,80.6,170.6,80.6z"/>
	<path class="st0" d="M43,88.9c3.2-1.6,4.1-2.8,3.5-4.8c-0.5-1.6-2.2-2.1-4.9-1.6c0,3.8,0,7.6,0,11.4c0,0.9,0.5,1.4,1.4,2.1
		c-1.9,0-3.5,0-5.4,0c1.2-0.7,1.2-1.8,1.2-2.8c0-3.3,0-6.6,0-9.9c0-1,0-2-1.2-2.9c2.9,0.1,5.3-0.2,7.8,0.2c2.7,0.4,4.3,1.8,4.4,3.9
		c0.1,2.2-1.6,3.9-4.2,4.5C44.7,89.2,43.9,89.2,43,88.9z"/>
	<path class="st0" d="M114.1,80.5c-0.3,0.9-0.5,1.9-0.8,2.8c-1.3-1.4-2.8-0.8-4.3-0.9c0,4,0,7.8,0,11.7c0,0.8,0.5,1.4,1.4,2
		c-1.9,0-3.5,0-5.2,0c1.1-0.8,1-1.9,1-3c0-3.5,0-7,0-10.5c-1.8-0.2-3.4-0.2-5.2,0.9c0.4-1.1,0.6-2,0.9-2.9
		C105.9,80.5,109.9,80.5,114.1,80.5z"/>
	<path class="st0" d="M159.5,105.3c3.3,0.1,5.8,2.5,5.7,5.6c-0.1,3.1-2.8,5.6-6,5.5c-3.3-0.1-5.9-2.5-5.8-5.7
		C153.4,107.6,156.1,105.2,159.5,105.3z M159.4,115.2c2.3,0,3.9-1.8,3.9-4.2c0-2.7-1.8-4.6-4.2-4.6c-2.3,0.1-3.9,1.8-3.9,4.2
		C155.2,113.2,157.1,115.3,159.4,115.2z"/>
	<path class="st0" d="M211,96.1c-1.9,0-3.4,0-5,0c1-0.9,1.1-2,1.1-3.1c0-3.2,0-6.3,0-9.5c0-1-0.1-2-1-2.9c1.6,0,3.1,0,4.7,0
		c-1.1,0.9-1,2.1-1,3.3c0,3.1,0,6.2,0,9.4C209.8,94.2,209.8,95.2,211,96.1z"/>
	<path class="st0" d="M64,116.1c0.4-3.6,0.4-7,0-10.5c1.1-0.3,1.9,0.1,2.7,1.2c1.6,2.2,3.4,4.4,5.3,6.5c0-2.5,0.5-5.1-0.2-7.6
		c0.6,0,1.2,0,1.7,0c-0.6,3.6,0,7.3-0.3,11.2c-3.3-2.5-5-5.9-7.8-8.9c0.3,2.9-0.3,5.5,0.5,8.1C65.2,116.1,64.5,116.1,64,116.1z"/>
	<path class="st0" d="M18.8,105.6c1.4,0,2.9-0.1,4.5,0c3,0.3,4.8,2.2,4.9,5c0,2.8-1.8,4.9-4.6,5.4c-1.6,0.3-3.3,0.1-4.8,0.1
		C19.1,112.6,18.9,109.1,18.8,105.6z M20.6,114.8c2.3,0.4,4.3-0.2,5.2-1.7c0.8-1.3,0.6-3.7-0.3-4.9c-1-1.3-3-1.7-4.8-1.1
		C20.6,109.6,20.6,112.1,20.6,114.8z"/>
	<path class="st0" d="M140.8,105.6c0.7,0,1.5,0,2.1,0c-0.3,3.6-0.3,7,0,10.6c-0.6-0.2-1.6,0.6-2-0.8c-1,0.7-2,1.1-3.1,1
		c-2.2,0-3.5-1.3-3.6-3.6c-0.1-2.4,0.3-4.8-0.3-7.3c0.7-0.2,1.4,0,2.2-0.1c-0.4,2.5-0.2,5-0.2,7.4c0.1,1.6,1.1,2.3,2.6,2.3
		c1.5-0.1,2.6-0.9,2.5-2.4C141.1,110.4,141.4,108,140.8,105.6z"/>
	<path class="st0" d="M48.3,109.9c1.9,1.1,2.5,2,2.2,3.4c-0.3,1.4-1.6,2.4-3.4,2.7c-1.4,0.2-2.9,0.1-4.3,0c0.2-3.5,0.2-6.9,0.1-10.5
		c1.2-0.1,2.6-0.1,3.9,0c1.1,0.1,2.1,0.5,2.5,1.6C49.9,108.4,49.2,109.1,48.3,109.9z M44.8,114.8c1.5,0.1,2.9,0.5,3.8-0.9
		c0.4-0.7,0.4-1.6-0.2-2.2c-1-1.1-2.2-1.1-3.6-0.7C44.8,112.3,44.8,113.5,44.8,114.8z M44.8,109.7c1.1,0.1,2.1,0.1,2.8-0.9
		c0.4-0.6,0.3-1.3-0.2-1.8c-0.8-0.7-1.7-0.6-2.5-0.3C44.8,107.8,44.8,108.7,44.8,109.7z"/>
	<path class="st0" d="M131.6,105.5c0,0.6,0,1.1,0,1.6c-2.5-1-4.9-1.2-6.6,1.3c-1,1.4-0.8,3.8,0.4,5.2c1.3,1.6,3.6,2.1,5.7,1.2
		c0.2-2,0.2-2.7-0.3-4c0.6-0.1,1.3-0.1,2,0.1c0,1.7,0,3.3,0,5c-2.1,0.5-4.2,0.8-6.2,0.1c-2.7-0.8-4-2.6-4-5.2c0-2.5,1.4-4.5,4-5.3
		C128.1,105.1,129.8,105.3,131.6,105.5z"/>
	<path class="st0" d="M147.6,110.8c0.8-0.4,1.4-0.6,1.9-0.9c0.9-0.6,1.1-1.5,0.6-2.4c-0.5-1-1.5-1-2.4-0.9c-0.3,0.1-0.5,0.3-0.5,0.6
		c0.1,3-0.2,5.9,0.2,8.9c-0.7,0-1.4,0-2,0c0.1-3.5,0.2-7-0.1-10.6c1.2,0,2.5-0.1,3.8,0c1.3,0.1,2.4,0.6,2.8,2
		c0.3,1.3-0.2,2.3-1.7,3.2c-0.2,0.1-0.4,0.2-0.7,0.4c1.4,1.8,2.7,3.6,4.8,5.1C150.1,116.4,149.6,112.9,147.6,110.8z"/>
	<path class="st0" d="M62.4,116.1c-0.8,0-1.6,0-2.4,0c0.1-1.3-0.5-2.3-0.9-3.3c-0.2-0.5-0.5-0.6-1-0.6c-0.2,0-0.4,0-0.6,0
		c-1,0.3-2.4-0.8-3,0.8c-0.4,1-1,2-0.7,3.2c-0.7,0-1.4,0-2.1,0c1.6-3.5,3.1-6.9,4.2-10.6c1.5-0.5,2.2,0.3,2.7,1.7
		C59.7,110.3,60.8,113.3,62.4,116.1z M58.3,110.9c-0.5-1.3-0.9-2.4-1.5-3.9c-0.6,1.4-1.2,2.5-1.5,3.9
		C56.3,111,57.2,111.1,58.3,110.9z"/>
	<path class="st0" d="M195,116.1c-0.7,0-1.4,0-2.1,0c1.7-3.4,3-6.9,4.3-10.5c1.8-0.3,1.7-0.3,2.5,1.6c1.2,2.9,2.2,6,3.8,8.9
		c-0.8,0-1.5,0-2.3,0c-0.4-0.3,0-0.7-0.1-1c-0.7-2.7-1.9-3.4-4.7-2.9c-0.2,0-0.5,0.1-0.6,0.3C195.5,113.6,194.7,114.7,195,116.1z
		 M198,107c-0.6,1.4-1.1,2.7-1.6,4c1.1,0,2,0,3.1,0C199,109.6,198.5,108.4,198,107z"/>
	<path class="st0" d="M105.4,114.1c1.2,0.5,2.2,1.2,3.4,1.1c1-0.1,2-0.3,2.3-1.4c0.3-1.1-0.6-1.6-1.4-2c-0.8-0.4-1.6-0.7-2.4-1.2
		c-1.2-0.7-1.9-1.6-1.7-3.1c0.3-1.3,1.3-1.9,2.5-2.1c1.3-0.3,2.6-0.2,3.8,0.2c0.2,0.6,0.2,1.1,0.1,1.7c-1-0.5-2-1-3.2-0.7
		c-0.6,0.1-1.2,0.4-1.3,1.1c-0.2,0.7,0.2,1.2,0.7,1.5c1,0.6,2.1,1.1,3.1,1.6c2.2,1.3,2.2,3.6,0,4.9c-1.6,0.9-3.2,0.8-4.9,0.4
		C105.4,115.9,105.7,115,105.4,114.1z"/>
	<path class="st0" d="M172.4,107.3c-0.9-0.6-1.9-0.9-3.1-0.8c-0.7,0.1-1.3,0.4-1.4,1.1c-0.2,0.7,0.3,1.2,0.8,1.5
		c1,0.6,2.1,1,3.1,1.6c2.1,1.2,2.2,3.4,0.1,4.8c-1.6,1.1-3.3,1-5.1,0.5c-0.5-0.1-0.7-0.4-0.9-0.8c-0.2-0.3,0-0.7,0.3-0.9
		c0,0,0.1,0.1,0.1,0.1c0.3,0.1,0.7,0.2,1.1,0.3c1,0.4,2.1,0.6,3.1,0.1c1.3-0.6,1.5-1.9,0.2-2.7c-0.8-0.5-1.7-0.9-2.6-1.3
		c-1.7-0.9-2.3-1.9-2.1-3.3c0.2-1.3,1.4-2.1,3.2-2.3c0.6,0,1.2,0,1.8,0C172.4,105.3,172.9,105.9,172.4,107.3z"/>
	<path class="st0" d="M83.3,107.4c-2.1-0.9-4.2-1.4-5.9,0.8c-1.1,1.6-0.9,3.8,0.4,5.5c1.3,1.6,3.1,1.8,6.2,0.6
		c0.1,1.7-1.1,2.1-2.5,2.2c-4.8,0.3-7.8-3.3-6.3-7.6c0.9-2.6,3.3-3.8,6.7-3.4C83.6,105.6,83.6,105.6,83.3,107.4z"/>
	<path class="st0" d="M114.8,116.2c0.3-3.7,0.2-7.1,0.1-10.6c1.7,0,3.5,0,5.3,0c0.2,0.5,0.2,1,0,1.5c-1.1-0.4-2.2-0.5-3.4-0.2
		c0,0.9,0,1.9,0,2.9c0.9,0,1.6,0,2.3,0c0.4,0.5,0.2,0.9,0.2,1.3c-0.9,0-1.7-0.2-2.6,0c0,1,0,2,0,3c0,0.7,0.4,0.7,0.9,0.8
		c1.3,0.1,2.7,0.2,3.9-0.6c0,1.5-0.6,2-2.1,1.9C117.9,116.1,116.4,116.2,114.8,116.2z"/>
	<path class="st0" d="M215.1,111.2c1.8-0.7,2.6-1.7,2.3-2.9c-0.3-1.2-1.3-1.7-3.4-1.3c0.1,3-0.2,6.1,0.2,9.2c-0.6,0-1.4,0-2.1,0
		c0.2-3.5,0.3-7,0-10.5c1.3,0,2.8-0.1,4.2,0c2.1,0.2,3.2,1.6,2.8,3.3C218.9,110.7,217,111.6,215.1,111.2z"/>
	<path class="st0" d="M36.5,114.3c0,1.4-0.4,2-1.8,1.9c-1.6-0.1-3.3,0-4.9,0c0.4-3.6,0.3-7,0.1-10.6c1.6,0,3.5,0,5.3,0
		c0.3,0.5,0,0.9,0.1,1.5c-1.2-0.5-2.2-0.5-3.4-0.3c-0.3,1-0.1,1.9-0.1,2.8c0.9,0.4,1.7,0,2.5,0.3c0.2,0.4,0.2,0.8,0,1.2
		c-0.8-0.1-1.5-0.2-2.4,0c-0.2,1.2-0.1,2.4,0,3.7C33.5,115.1,35,115.2,36.5,114.3z"/>
	<path class="st0" d="M178.9,105.6c3.5-0.4,3.2,3.1,5.1,4.4c0.7-1.5,2.4-2.4,2-4.4c0.7,0,1.4,0,2.4,0c-1.1,1.7-2.1,3.2-3.1,4.7
		c-1.3,1.9-1,3.8-0.4,5.9c-0.8,0-1.6,0-2.4,0c0.5-2.4,0.6-4.6-1-6.6C180.7,108.3,180.1,106.8,178.9,105.6z"/>
	<path class="st0" d="M210.5,107.2c-1.1-0.6-2.2-0.5-3.3-0.4c-0.3,1-0.2,1.9-0.1,2.9c0.8,0.3,1.6,0.1,2.4,0.2
		c0.3,0.4,0.1,0.8,0.1,1.3c-0.8,0-1.6-0.3-2.6,0c0,1.6-0.2,3.3,0.2,4.9c-0.7,0.2-1.5,0.1-2.1,0c0.3-3.5,0.3-6.9,0-10.5
		c1.6,0,3.4,0,5.3,0C210.7,106,210.6,106.5,210.5,107.2z"/>
	<path class="st0" d="M97.2,118c0.5-0.7,0.8-1.1,1-1.4c0-0.1,0-0.3-0.1-0.3c-0.4-0.4-1.1-0.7-0.6-1.5c0.3-0.5,0.7-0.6,1.2-0.4
		c0.7,0.4,0.7,1.1,0.5,1.7C98.9,117,98.5,117.7,97.2,118z"/>
	<path class="st0" d="M95.8,116.1c-0.9-0.8-1.2-1.6-1.5-2.4c-0.9-2.2-1.9-4.3-2.6-6.6c-0.5-1.6-1.4-1.8-2.8-1.5
		c0.2,1.5-0.7,2.7-1.2,4c-0.8,2.1-1.4,4.4-2.9,6.2c-0.1,0-0.1,0.1-0.2,0.1c0,0,0.1,0.1,0.1,0.1c0,0.3,0.1,0.3,0.3,0.1
		c0.3,0,0.5,0,0.8,0c0.1,0.1,0.3,0.1,0.4,0c0.2,0,0.4,0,0.6,0c0.1,0,0.3,0,0.3,0c0.1-0.2-0.1-0.3-0.2-0.4c-0.1-2.5,0.8-3.6,3.1-3.6
		c0.4,0,0.8,0,1.3,0c0.4,0,0.7,0.2,0.8,0.6c0.3,1.1,1,2.1,1,3.3C94,116.1,94.7,116.1,95.8,116.1z M88.4,110.9
		c0.5-1.2,0.9-2.4,1.5-3.9c0.6,1.5,1,2.7,1.5,3.9C90.4,110.9,89.4,110.9,88.4,110.9z"/>
</g>
</svg>
