<?xml version="1.0" encoding="utf-8"?>
<!-- Generator: Adobe Illustrator 22.1.0, SVG Export Plug-In . SVG Version: 6.00 Build 0)  -->
<svg version="1.1" id="Capa_1" xmlns="http://www.w3.org/2000/svg" xmlns:xlink="http://www.w3.org/1999/xlink" x="0px" y="0px"
	 viewBox="0 0 634 127" style="enable-background:new 0 0 634 127;" xml:space="preserve">
<style type="text/css">
	.st0{fill:#D0D1D3;}
	.st1{fill:#A6A8AB;}
	.st2{fill:#EC1C24;}
	.st3{fill:#D1D2D4;}
	.st4{fill:#818285;}
	.st5{fill:#59595B;}
	.st6{fill:#ED1C24;}
</style>
<g>
	<rect x="4.3" y="92.7" transform="matrix(0.7071 -0.7071 0.7071 0.7071 -61.8641 49.0205)" class="st0" width="48" height="12.9"/>
	<rect x="75.8" y="21.1" transform="matrix(0.7071 -0.7071 0.7071 0.7071 9.7486 78.621)" class="st0" width="48" height="12.9"/>
	<rect x="21.8" y="3.9" transform="matrix(0.7071 -0.7071 0.7071 0.7071 -11.4361 28.178)" class="st0" width="12.9" height="48"/>
	
		<rect x="92.7" y="74.9" transform="matrix(0.7071 -0.7071 0.7071 0.7071 -40.8987 99.1134)" class="st0" width="12.9" height="48"/>
	<polygon class="st1" points="40,72.5 10.5,42.8 19.7,33.7 49.2,63.3 	"/>
	<polygon class="st1" points="34.4,107.1 64,77.6 73.2,86.7 43.5,116.3 	"/>
	<polygon class="st1" points="67.4,28.5 75.7,36.7 93.3,19.2 84.8,10.8 	"/>
	<polygon class="st1" points="11.8,84.4 20,92.6 37.6,75.1 29.2,66.6 	"/>
	<polygon class="st1" points="90.8,51.9 99.1,60.1 116.7,42.6 108.3,34.2 	"/>
	<polygon class="st1" points="52.3,37.5 60.5,29.3 43,11.7 34.6,20.1 	"/>
	<polygon class="st1" points="107.1,92.5 115.4,84.3 97.8,66.7 89.4,75.1 	"/>
	<polyline class="st1" points="66.4,98 82.6,113.6 90.8,105.3 74.8,89.6 	"/>
	
		<rect x="57.4" y="57.2" transform="matrix(0.7071 0.7071 -0.7071 0.7071 63.5631 -26.4939)" class="st2" width="12.8" height="12.6"/>
	
		<rect x="69.5" y="45.3" transform="matrix(0.7071 0.7071 -0.7071 0.7071 58.7416 -38.5697)" class="st3" width="12.8" height="12.6"/>
	
		<rect x="69" y="68.8" transform="matrix(0.7071 0.7071 -0.7071 0.7071 75.1667 -31.3003)" class="st4" width="12.8" height="12.6"/>
	
		<rect x="45.8" y="45.8" transform="matrix(0.7071 0.7071 -0.7071 0.7071 52.0916 -21.643)" class="st4" width="12.8" height="12.6"/>
	
		<rect x="45.6" y="68.8" transform="matrix(0.7071 0.7071 -0.7071 0.7071 68.3233 -14.779)" class="st5" width="12.8" height="12.6"/>
	
		<rect x="80.6" y="57.2" transform="matrix(0.7071 0.7071 -0.7071 0.7071 70.3603 -42.9038)" class="st5" width="12.8" height="12.6"/>
	
		<rect x="57.4" y="34.2" transform="matrix(0.7071 0.7071 -0.7071 0.7071 47.3091 -33.2265)" class="st5" width="12.8" height="12.6"/>
</g>
<g>
	<path d="M173.5,64.8V97c0,7,0.8,11.3,2.3,13c2.1,2.4,5.2,3.6,9.4,3.6h4.2v3h-47.3v-3h4.2c4.7,0,8-1.5,10-4.6
		c1.1-1.7,1.6-5.7,1.6-12V25.6c0-7-0.7-11.3-2.2-13c-2.1-2.4-5.3-3.6-9.4-3.6h-4.2v-3h40.5c9.9,0,17.7,1,23.4,3.1
		c5.7,2,10.5,5.5,14.4,10.3c3.9,4.8,5.9,10.6,5.9,17.2c0,9-3,16.3-8.9,22c-5.9,5.6-14.3,8.5-25.2,8.5c-2.7,0-5.5-0.2-8.6-0.6
		C180.4,66.1,177.1,65.6,173.5,64.8z M173.5,60.2c2.9,0.5,5.4,1,7.7,1.2c2.2,0.3,4.1,0.4,5.7,0.4c5.6,0,10.5-2.2,14.6-6.6
		c4.1-4.4,6.1-10,6.1-17c0-4.8-1-9.2-2.9-13.3c-2-4.1-4.7-7.2-8.3-9.2c-3.6-2-7.7-3.1-12.2-3.1c-2.8,0-6.3,0.5-10.7,1.5V60.2z"/>
	<path d="M332.5,3.5l2.5,37.6h-2.5c-3.4-11.2-8.2-19.3-14.4-24.3c-6.2-4.9-13.7-7.4-22.5-7.4c-7.3,0-14,1.9-19.9,5.6
		c-5.9,3.7-10.6,9.7-14,17.8c-3.4,8.1-5.1,18.3-5.1,30.4c0,10,1.6,18.7,4.8,26c3.2,7.3,8,13,14.5,16.9c6.4,3.9,13.8,5.9,22,5.9
		c7.2,0,13.5-1.5,19-4.6c5.5-3.1,11.5-9.2,18.1-18.3l2.5,1.6c-5.5,9.8-12,17-19.4,21.6c-7.4,4.6-16.2,6.8-26.3,6.8
		c-18.3,0-32.5-6.8-42.5-20.4c-7.5-10.1-11.2-22-11.2-35.7c0-11,2.5-21.2,7.4-30.4c4.9-9.2,11.7-16.4,20.4-21.5
		c8.7-5.1,18.1-7.6,28.4-7.6c8,0,15.9,2,23.6,5.9c2.3,1.2,3.9,1.8,4.9,1.8c1.5,0,2.7-0.5,3.8-1.5c1.4-1.5,2.4-3.5,3-6.1H332.5z"/>
	<path d="M411.5,116.5l-42.7-93v73.8c0,6.8,0.7,11,2.2,12.7c2,2.3,5.2,3.4,9.5,3.4h3.9v3h-38.4v-3h3.9c4.7,0,8-1.4,9.9-4.2
		c1.2-1.7,1.8-5.7,1.8-11.9V25.2c0-4.9-0.5-8.4-1.6-10.6c-0.8-1.6-2.2-2.9-4.2-4s-5.3-1.6-9.8-1.6v-3h31.3l40.1,86.4l39.4-86.4h31.3
		v3h-3.8c-4.7,0-8.1,1.4-10,4.2c-1.2,1.7-1.8,5.7-1.8,11.9v72.2c0,6.8,0.8,11,2.3,12.7c2,2.3,5.2,3.4,9.5,3.4h3.8v3h-46.9v-3h3.9
		c4.7,0,8-1.4,9.9-4.2c1.2-1.7,1.8-5.7,1.8-11.9V23.6l-42.6,93H411.5z"/>
</g>
<rect x="501.3" y="8.7" class="st6" width="1.9" height="110.4"/>
<g>
	<path class="st6" d="M513.3,37.2h6.7c1.5,0,2.5,0.4,3.3,1.2s1.1,1.9,1.1,3.3c0,1.5-0.4,2.6-1.2,3.5c-0.8,0.8-2,1.3-3.6,1.3h-2.2
		v5.5h-4V37.2z M517.3,43.5h1c0.8,0,1.3-0.2,1.6-0.5s0.5-0.7,0.5-1.2c0-0.5-0.1-0.9-0.4-1.2s-0.8-0.5-1.5-0.5h-1.1V43.5z"/>
	<path class="st6" d="M526.2,41.3h3.4V43c0.3-0.8,0.7-1.3,1-1.6c0.3-0.3,0.8-0.4,1.3-0.4c0.5,0,1.1,0.2,1.8,0.6l-1.1,2.9
		c-0.4-0.2-0.8-0.3-1-0.3c-0.5,0-0.8,0.2-1.1,0.7c-0.4,0.6-0.6,1.8-0.6,3.5v3.6h-3.6V41.3z"/>
	<path class="st6" d="M545,47.6h-7.3c0.1,0.7,0.2,1.1,0.5,1.5c0.3,0.5,0.8,0.7,1.4,0.7c0.4,0,0.7-0.1,1-0.3c0.2-0.1,0.4-0.4,0.6-0.7
		l3.6,0.4c-0.5,1.1-1.2,1.8-2,2.3c-0.8,0.5-1.9,0.7-3.3,0.7c-1.3,0-2.2-0.2-3-0.6c-0.7-0.4-1.3-1-1.8-1.9c-0.5-0.9-0.7-1.9-0.7-3.1
		c0-1.7,0.5-3,1.4-4c0.9-1,2.2-1.5,3.9-1.5c1.4,0,2.4,0.2,3.2,0.7c0.8,0.5,1.4,1.1,1.8,2s0.6,2,0.6,3.4V47.6z M541.4,45.7
		c-0.1-0.8-0.3-1.4-0.6-1.7c-0.3-0.3-0.7-0.5-1.2-0.5c-0.6,0-1,0.3-1.4,0.8c-0.2,0.3-0.4,0.8-0.4,1.4H541.4z"/>
	<path class="st6" d="M546.1,49l3.6-0.4c0.1,0.5,0.4,0.8,0.6,1c0.3,0.2,0.6,0.3,1.1,0.3c0.5,0,0.9-0.1,1.1-0.4
		c0.2-0.2,0.3-0.4,0.3-0.7c0-0.3-0.1-0.5-0.4-0.7c-0.2-0.1-0.7-0.3-1.6-0.4c-1.3-0.2-2.1-0.5-2.6-0.7c-0.5-0.2-0.9-0.6-1.2-1.1
		c-0.3-0.5-0.5-1.1-0.5-1.7c0-0.7,0.2-1.3,0.5-1.8c0.4-0.5,0.9-0.9,1.5-1.1S550,41,551,41c1.1,0,2,0.1,2.5,0.3s1,0.5,1.3,0.9
		c0.4,0.4,0.7,1,0.9,1.7l-3.4,0.4c-0.1-0.3-0.2-0.6-0.4-0.8c-0.3-0.2-0.6-0.3-1-0.3c-0.4,0-0.7,0.1-0.9,0.2s-0.3,0.4-0.3,0.6
		c0,0.3,0.1,0.5,0.4,0.6c0.2,0.1,0.8,0.3,1.5,0.4c1.2,0.2,2.1,0.4,2.7,0.6c0.6,0.3,1,0.7,1.3,1.2c0.3,0.5,0.5,1.1,0.5,1.7
		c0,0.6-0.2,1.2-0.5,1.8c-0.3,0.6-0.8,1-1.6,1.4c-0.7,0.3-1.7,0.5-2.9,0.5c-1.7,0-3-0.3-3.7-0.8C546.7,50.8,546.3,50,546.1,49z"/>
	<path class="st6" d="M558,37.2h3.6V40H558V37.2z M558,41.3h3.6v10.7H558V41.3z"/>
	<path class="st6" d="M573.8,37.2v14.7h-3.4v-1.6c-0.5,0.7-0.9,1.1-1.3,1.4c-0.5,0.3-1.1,0.5-1.7,0.5c-1.3,0-2.3-0.6-2.9-1.7
		c-0.7-1.1-1-2.4-1-4c0-1.8,0.4-3.1,1.1-4.1s1.7-1.4,2.9-1.4c0.6,0,1.1,0.1,1.5,0.3c0.5,0.2,0.9,0.5,1.2,1v-5.1H573.8z M570.2,46.6
		c0-0.8-0.2-1.5-0.5-1.9c-0.3-0.4-0.7-0.6-1.2-0.6c-0.4,0-0.8,0.2-1.1,0.6c-0.3,0.4-0.4,1.1-0.4,2c0,0.9,0.1,1.5,0.4,1.9
		c0.3,0.4,0.7,0.6,1.1,0.6c0.5,0,0.8-0.2,1.2-0.6S570.2,47.5,570.2,46.6z"/>
	<path class="st6" d="M586.5,47.6h-7.3c0.1,0.7,0.2,1.1,0.5,1.5c0.3,0.5,0.8,0.7,1.4,0.7c0.4,0,0.7-0.1,1-0.3
		c0.2-0.1,0.4-0.4,0.6-0.7l3.6,0.4c-0.5,1.1-1.2,1.8-2,2.3c-0.8,0.5-1.9,0.7-3.3,0.7c-1.2,0-2.2-0.2-2.9-0.6c-0.7-0.4-1.3-1-1.8-1.9
		c-0.5-0.9-0.7-1.9-0.7-3.1c0-1.7,0.5-3,1.4-4c0.9-1,2.3-1.5,3.9-1.5c1.4,0,2.4,0.2,3.2,0.7c0.8,0.5,1.4,1.1,1.8,2
		c0.4,0.9,0.6,2,0.6,3.4V47.6z M582.8,45.7c-0.1-0.8-0.3-1.4-0.6-1.7c-0.3-0.3-0.7-0.5-1.2-0.5c-0.6,0-1,0.3-1.4,0.8
		c-0.2,0.3-0.4,0.8-0.4,1.4H582.8z"/>
	<path class="st6" d="M588.2,41.3h3.4V43c0.5-0.7,1-1.2,1.5-1.5c0.5-0.3,1.1-0.5,1.9-0.5c1,0,1.8,0.3,2.4,1c0.6,0.7,0.8,1.7,0.8,3.1
		v6.8h-3.6v-5.9c0-0.7-0.1-1.1-0.3-1.4c-0.2-0.3-0.5-0.4-0.9-0.4c-0.4,0-0.8,0.2-1.1,0.6s-0.4,1-0.4,2v5.1h-3.6V41.3z"/>
	<path class="st6" d="M607.3,47.7l3.4,0.4c-0.2,0.8-0.5,1.5-0.9,2.1s-1,1.1-1.7,1.4c-0.7,0.3-1.5,0.5-2.6,0.5c-1,0-1.8-0.1-2.5-0.3
		c-0.7-0.2-1.2-0.6-1.7-1c-0.5-0.5-0.9-1-1.1-1.7s-0.4-1.5-0.4-2.5c0-1.1,0.2-2,0.5-2.7c0.2-0.5,0.6-1,1-1.4
		c0.4-0.4,0.9-0.7,1.3-0.9c0.7-0.3,1.6-0.5,2.7-0.5c1.5,0,2.7,0.3,3.5,0.9c0.8,0.6,1.4,1.5,1.7,2.7l-3.4,0.5c-0.1-0.5-0.3-0.8-0.6-1
		c-0.3-0.2-0.7-0.3-1.1-0.3c-0.6,0-1.1,0.2-1.5,0.7s-0.6,1.2-0.6,2.2c0,0.9,0.2,1.5,0.6,2c0.4,0.5,0.8,0.7,1.4,0.7
		c0.5,0,0.9-0.1,1.2-0.4C606.9,48.7,607.2,48.3,607.3,47.7z"/>
	<path class="st6" d="M612.6,37.2h3.6V40h-3.6V37.2z M612.6,41.3h3.6v10.7h-3.6V41.3z"/>
	<path class="st6" d="M621.8,44.7l-3.5-0.4c0.1-0.7,0.3-1.2,0.6-1.6s0.6-0.7,1.1-1c0.3-0.2,0.8-0.4,1.4-0.5c0.6-0.1,1.2-0.2,1.9-0.2
		c1.1,0,2,0.1,2.6,0.2c0.7,0.1,1.2,0.4,1.6,0.9c0.3,0.3,0.6,0.7,0.7,1.3c0.2,0.6,0.3,1.1,0.3,1.6v4.7c0,0.5,0,0.9,0.1,1.2
		c0.1,0.3,0.2,0.6,0.4,1.1h-3.4c-0.1-0.3-0.2-0.5-0.3-0.6c0-0.1-0.1-0.4-0.1-0.7c-0.5,0.5-0.9,0.9-1.4,1.1c-0.6,0.3-1.4,0.4-2.2,0.4
		c-1.1,0-2-0.3-2.6-0.9c-0.6-0.6-0.9-1.3-0.9-2.2c0-0.8,0.2-1.5,0.6-2s1.2-0.9,2.3-1.2c1.4-0.3,2.2-0.5,2.6-0.6
		c0.4-0.1,0.8-0.3,1.3-0.5c0-0.5-0.1-0.9-0.3-1.1s-0.5-0.3-1-0.3c-0.6,0-1,0.1-1.3,0.3C622.1,43.9,621.9,44.3,621.8,44.7z
		 M624.9,46.9c-0.5,0.2-1,0.4-1.6,0.5c-0.7,0.2-1.2,0.4-1.4,0.7c-0.2,0.2-0.3,0.5-0.3,0.8c0,0.3,0.1,0.6,0.3,0.8
		c0.2,0.2,0.5,0.3,0.9,0.3c0.4,0,0.8-0.1,1.1-0.3c0.3-0.2,0.6-0.5,0.7-0.8c0.1-0.3,0.2-0.7,0.2-1.2V46.9z"/>
	<path class="st6" d="M523,58.8v14.7h-3.4V72c-0.5,0.7-0.9,1.1-1.3,1.4c-0.5,0.3-1.1,0.5-1.7,0.5c-1.3,0-2.3-0.6-2.9-1.7
		c-0.7-1.1-1-2.4-1-4c0-1.8,0.4-3.1,1.1-4.1s1.7-1.4,2.9-1.4c0.6,0,1.1,0.1,1.5,0.3c0.5,0.2,0.9,0.5,1.2,1v-5.1H523z M519.4,68.2
		c0-0.8-0.2-1.5-0.5-1.9s-0.7-0.6-1.2-0.6c-0.4,0-0.8,0.2-1.1,0.6c-0.3,0.4-0.4,1.1-0.4,2c0,0.9,0.1,1.5,0.4,1.9
		c0.3,0.4,0.7,0.6,1.1,0.6c0.5,0,0.8-0.2,1.2-0.6S519.4,69.1,519.4,68.2z"/>
	<path class="st6" d="M535.7,69.2h-7.3c0.1,0.7,0.2,1.1,0.5,1.5c0.3,0.5,0.8,0.7,1.4,0.7c0.4,0,0.7-0.1,1-0.3
		c0.2-0.1,0.4-0.4,0.6-0.7l3.6,0.4c-0.5,1.1-1.2,1.8-2,2.3c-0.8,0.5-1.9,0.7-3.3,0.7c-1.3,0-2.2-0.2-3-0.6c-0.7-0.4-1.3-1-1.8-1.9
		c-0.5-0.9-0.7-1.9-0.7-3.1c0-1.7,0.5-3,1.4-4c0.9-1,2.2-1.5,3.9-1.5c1.4,0,2.4,0.2,3.2,0.7c0.8,0.5,1.4,1.1,1.8,2s0.6,2,0.6,3.4
		V69.2z M532,67.3c-0.1-0.8-0.3-1.4-0.6-1.7c-0.3-0.3-0.7-0.5-1.2-0.5c-0.6,0-1,0.3-1.4,0.8c-0.2,0.3-0.4,0.8-0.4,1.4H532z"/>
	<path class="st6" d="M537.5,58.8h3.6v14.7h-3.6V58.8z"/>
	<path class="st6" d="M558.4,67.5l3.5,1.2c-0.2,1.1-0.6,2-1.1,2.8c-0.5,0.7-1.1,1.3-1.9,1.7c-0.8,0.4-1.7,0.6-2.9,0.6
		c-1.4,0-2.6-0.2-3.5-0.7s-1.7-1.3-2.3-2.5c-0.7-1.2-1-2.7-1-4.5c0-2.4,0.6-4.3,1.7-5.6c1.1-1.3,2.8-2,4.9-2c1.6,0,2.9,0.4,3.9,1.1
		c0.9,0.7,1.6,1.9,2.1,3.5l-3.6,0.9c-0.1-0.4-0.3-0.8-0.4-1c-0.2-0.3-0.5-0.6-0.8-0.8c-0.3-0.2-0.7-0.3-1.1-0.3
		c-0.9,0-1.6,0.4-2.1,1.2c-0.4,0.6-0.6,1.6-0.6,2.9c0,1.6,0.2,2.7,0.7,3.4c0.4,0.6,1.1,0.9,1.8,0.9c0.8,0,1.4-0.2,1.7-0.7
		C557.9,69.2,558.2,68.5,558.4,67.5z"/>
	<path class="st6" d="M563.2,68.2c0-1.6,0.5-3,1.5-4c1-1.1,2.3-1.6,3.9-1.6c1.9,0,3.3,0.6,4.3,1.9c0.8,1,1.2,2.2,1.2,3.7
		c0,1.6-0.5,3-1.4,4c-1,1-2.3,1.6-4,1.6c-1.5,0-2.7-0.4-3.7-1.3C563.7,71.4,563.2,70,563.2,68.2z M566.8,68.2c0,0.9,0.2,1.7,0.5,2.1
		c0.3,0.5,0.8,0.7,1.3,0.7c0.5,0,0.9-0.2,1.3-0.7c0.3-0.4,0.5-1.2,0.5-2.2c0-0.9-0.2-1.6-0.5-2.1c-0.3-0.5-0.8-0.7-1.3-0.7
		c-0.5,0-1,0.2-1.3,0.7S566.8,67.3,566.8,68.2z"/>
	<path class="st6" d="M575.7,62.9h3.4v1.7c0.5-0.7,1-1.2,1.5-1.5c0.5-0.3,1.1-0.5,1.9-0.5c1,0,1.8,0.3,2.4,1
		c0.6,0.7,0.8,1.7,0.8,3.1v6.8h-3.6v-5.9c0-0.7-0.1-1.1-0.3-1.4c-0.2-0.3-0.5-0.4-0.9-0.4c-0.4,0-0.8,0.2-1.1,0.6s-0.4,1-0.4,2v5.1
		h-3.6V62.9z"/>
	<path class="st6" d="M587.2,70.6l3.6-0.4c0.1,0.5,0.4,0.8,0.6,1c0.3,0.2,0.6,0.3,1.1,0.3c0.5,0,0.9-0.1,1.1-0.4
		c0.2-0.2,0.3-0.4,0.3-0.7c0-0.3-0.1-0.5-0.4-0.7c-0.2-0.1-0.7-0.3-1.6-0.4c-1.3-0.2-2.1-0.5-2.6-0.7c-0.5-0.2-0.9-0.6-1.2-1.1
		c-0.3-0.5-0.5-1.1-0.5-1.7c0-0.7,0.2-1.3,0.5-1.8c0.4-0.5,0.9-0.9,1.5-1.1s1.5-0.4,2.5-0.4c1.1,0,2,0.1,2.5,0.3s1,0.5,1.3,0.9
		c0.4,0.4,0.7,1,0.9,1.7l-3.4,0.4c-0.1-0.3-0.2-0.6-0.4-0.8c-0.3-0.2-0.6-0.3-1-0.3c-0.4,0-0.7,0.1-0.9,0.2s-0.3,0.4-0.3,0.6
		c0,0.3,0.1,0.5,0.4,0.6c0.2,0.1,0.8,0.3,1.5,0.4c1.2,0.2,2.1,0.4,2.7,0.6c0.6,0.3,1,0.7,1.3,1.2c0.3,0.5,0.5,1.1,0.5,1.7
		c0,0.6-0.2,1.2-0.5,1.8c-0.3,0.6-0.8,1-1.6,1.4c-0.7,0.3-1.7,0.5-2.9,0.5c-1.7,0-3-0.3-3.7-0.8C587.9,72.4,587.5,71.6,587.2,70.6z"
		/>
	<path class="st6" d="M609.5,69.2h-7.3c0.1,0.7,0.2,1.1,0.5,1.5c0.3,0.5,0.8,0.7,1.4,0.7c0.4,0,0.7-0.1,1-0.3
		c0.2-0.1,0.4-0.4,0.6-0.7l3.6,0.4c-0.5,1.1-1.2,1.8-2,2.3c-0.8,0.5-1.9,0.7-3.3,0.7c-1.2,0-2.2-0.2-2.9-0.6c-0.7-0.4-1.3-1-1.8-1.9
		c-0.5-0.9-0.7-1.9-0.7-3.1c0-1.7,0.5-3,1.4-4c0.9-1,2.3-1.5,3.9-1.5c1.4,0,2.4,0.2,3.2,0.7c0.8,0.5,1.4,1.1,1.8,2
		c0.4,0.9,0.6,2,0.6,3.4V69.2z M605.8,67.3c-0.1-0.8-0.3-1.4-0.6-1.7c-0.3-0.3-0.7-0.5-1.2-0.5c-0.6,0-1,0.3-1.4,0.8
		c-0.2,0.3-0.4,0.8-0.4,1.4H605.8z"/>
	<path class="st6" d="M611.3,62.9h3.6v10.3c0,1.3-0.1,2.2-0.3,2.8c-0.2,0.5-0.5,1-0.9,1.3c-0.5,0.3-1.1,0.5-2,0.5
		c-0.7,0-1.6-0.1-2.6-0.4l0.5-3c0.3,0.1,0.5,0.1,0.6,0.1c0.3,0,0.5-0.1,0.7-0.4s0.2-0.7,0.2-1.4V62.9z M611.3,58.8h3.6v2.8h-3.6
		V58.8z"/>
	<path class="st6" d="M616.8,68.2c0-1.6,0.5-3,1.5-4c1-1.1,2.3-1.6,3.9-1.6c1.9,0,3.3,0.6,4.3,1.9c0.8,1,1.2,2.2,1.2,3.7
		c0,1.6-0.5,3-1.4,4c-1,1-2.3,1.6-4,1.6c-1.5,0-2.7-0.4-3.7-1.3C617.3,71.4,616.8,70,616.8,68.2z M620.4,68.2c0,0.9,0.2,1.7,0.5,2.1
		c0.3,0.5,0.8,0.7,1.3,0.7c0.5,0,0.9-0.2,1.3-0.7c0.3-0.4,0.5-1.2,0.5-2.2c0-0.9-0.2-1.6-0.5-2.1c-0.3-0.5-0.8-0.7-1.3-0.7
		c-0.5,0-1,0.2-1.3,0.7S620.4,67.3,620.4,68.2z"/>
	<path class="st6" d="M523,80.5v14.7h-3.4v-1.6c-0.5,0.7-0.9,1.1-1.3,1.4c-0.5,0.3-1.1,0.5-1.7,0.5c-1.3,0-2.3-0.6-2.9-1.7
		c-0.7-1.1-1-2.4-1-4c0-1.8,0.4-3.1,1.1-4.1s1.7-1.4,2.9-1.4c0.6,0,1.1,0.1,1.5,0.3c0.5,0.2,0.9,0.5,1.2,1v-5.1H523z M519.4,89.8
		c0-0.8-0.2-1.5-0.5-1.9s-0.7-0.6-1.2-0.6c-0.4,0-0.8,0.2-1.1,0.6c-0.3,0.4-0.4,1.1-0.4,2c0,0.9,0.1,1.5,0.4,1.9
		c0.3,0.4,0.7,0.6,1.1,0.6c0.5,0,0.8-0.2,1.2-0.6S519.4,90.7,519.4,89.8z"/>
	<path class="st6" d="M535.2,90.9h-7.3c0.1,0.7,0.2,1.1,0.5,1.5c0.3,0.5,0.8,0.7,1.4,0.7c0.4,0,0.7-0.1,1-0.3
		c0.2-0.1,0.4-0.4,0.6-0.7l3.6,0.4c-0.5,1.1-1.2,1.8-2,2.3c-0.8,0.5-1.9,0.7-3.3,0.7c-1.3,0-2.2-0.2-3-0.6c-0.7-0.4-1.3-1-1.8-1.9
		c-0.5-0.9-0.7-1.9-0.7-3.1c0-1.7,0.5-3,1.4-4c0.9-1,2.2-1.5,3.9-1.5c1.4,0,2.4,0.2,3.2,0.7c0.8,0.5,1.4,1.1,1.8,2s0.6,2,0.6,3.4
		V90.9z M531.5,88.9c-0.1-0.8-0.3-1.4-0.6-1.7c-0.3-0.3-0.7-0.5-1.2-0.5c-0.6,0-1,0.3-1.4,0.8c-0.2,0.3-0.4,0.8-0.4,1.4H531.5z"/>
	<path class="st6" d="M542.1,80.5h5.3l2,8.9l2-8.9h5.3v14.7h-3.3V84l-2.5,11.2h-3L545.4,84v11.2h-3.3V80.5z"/>
	<path class="st6" d="M558.7,80.5h3.6v2.8h-3.6V80.5z M558.7,84.5h3.6v10.7h-3.6V84.5z"/>
	<path class="st6" d="M564.2,84.5h3.4v1.7c0.5-0.7,1-1.2,1.5-1.5c0.5-0.3,1.1-0.5,1.9-0.5c1,0,1.8,0.3,2.4,1
		c0.6,0.7,0.8,1.7,0.8,3.1v6.8h-3.6v-5.9c0-0.7-0.1-1.1-0.3-1.4c-0.2-0.3-0.5-0.4-0.9-0.4c-0.4,0-0.8,0.2-1.1,0.6s-0.4,1-0.4,2v5.1
		h-3.6V84.5z"/>
	<path class="st6" d="M576,80.5h3.6v2.8H576V80.5z M576,84.5h3.6v10.7H576V84.5z"/>
	<path class="st6" d="M580.8,92.2l3.6-0.4c0.1,0.5,0.4,0.8,0.6,1c0.3,0.2,0.6,0.3,1.1,0.3c0.5,0,0.9-0.1,1.1-0.4
		c0.2-0.2,0.3-0.4,0.3-0.7c0-0.3-0.1-0.5-0.4-0.7c-0.2-0.1-0.7-0.3-1.6-0.4c-1.3-0.2-2.1-0.5-2.6-0.7c-0.5-0.2-0.9-0.6-1.2-1.1
		c-0.3-0.5-0.5-1.1-0.5-1.7c0-0.7,0.2-1.3,0.5-1.8c0.4-0.5,0.9-0.9,1.5-1.1s1.5-0.4,2.5-0.4c1.1,0,2,0.1,2.5,0.3s1,0.5,1.3,0.9
		c0.4,0.4,0.7,1,0.9,1.7l-3.4,0.4c-0.1-0.3-0.2-0.6-0.4-0.8c-0.3-0.2-0.6-0.3-1-0.3c-0.4,0-0.7,0.1-0.9,0.2s-0.3,0.4-0.3,0.6
		c0,0.3,0.1,0.5,0.4,0.6c0.2,0.1,0.8,0.3,1.5,0.4c1.2,0.2,2.1,0.4,2.7,0.6c0.6,0.3,1,0.7,1.3,1.2c0.3,0.5,0.5,1.1,0.5,1.7
		c0,0.6-0.2,1.2-0.5,1.8c-0.3,0.6-0.8,1-1.6,1.4c-0.7,0.3-1.7,0.5-2.9,0.5c-1.7,0-3-0.3-3.7-0.8C581.4,94,581,93.2,580.8,92.2z"/>
	<path class="st6" d="M596.4,80.5v4.1h2v3h-2v3.8c0,0.5,0,0.8,0.1,0.9c0.1,0.2,0.3,0.3,0.6,0.3c0.3,0,0.6-0.1,1.1-0.3l0.3,2.8
		c-0.9,0.2-1.7,0.3-2.5,0.3c-0.9,0-1.6-0.1-2-0.4c-0.4-0.3-0.7-0.7-0.9-1.2s-0.3-1.4-0.3-2.6v-3.7h-1.3v-3h1.3v-2L596.4,80.5z"/>
	<path class="st6" d="M599.6,84.5h3.4v1.7c0.3-0.8,0.7-1.3,1-1.6s0.8-0.4,1.3-0.4c0.5,0,1.1,0.2,1.8,0.6l-1.1,2.9
		c-0.4-0.2-0.8-0.3-1-0.3c-0.5,0-0.8,0.2-1.1,0.7c-0.4,0.6-0.6,1.8-0.6,3.5v3.6h-3.6V84.5z"/>
	<path class="st6" d="M607,89.9c0-1.6,0.5-3,1.5-4c1-1.1,2.3-1.6,3.9-1.6c1.9,0,3.3,0.6,4.3,1.9c0.8,1,1.2,2.2,1.2,3.7
		c0,1.6-0.5,3-1.4,4c-1,1-2.3,1.6-4,1.6c-1.5,0-2.7-0.4-3.7-1.3C607.6,93,607,91.6,607,89.9z M610.7,89.9c0,0.9,0.2,1.7,0.5,2.1
		c0.3,0.5,0.8,0.7,1.3,0.7c0.5,0,0.9-0.2,1.3-0.7c0.3-0.4,0.5-1.2,0.5-2.2c0-0.9-0.2-1.6-0.5-2.1c-0.3-0.5-0.8-0.7-1.3-0.7
		c-0.5,0-1,0.2-1.3,0.7S610.7,88.9,610.7,89.9z"/>
	<path class="st6" d="M618.5,92.2l3.6-0.4c0.1,0.5,0.4,0.8,0.6,1c0.3,0.2,0.6,0.3,1.1,0.3c0.5,0,0.9-0.1,1.1-0.4
		c0.2-0.2,0.3-0.4,0.3-0.7c0-0.3-0.1-0.5-0.4-0.7c-0.2-0.1-0.7-0.3-1.6-0.4c-1.3-0.2-2.1-0.5-2.6-0.7c-0.5-0.2-0.9-0.6-1.2-1.1
		c-0.3-0.5-0.5-1.1-0.5-1.7c0-0.7,0.2-1.3,0.5-1.8c0.4-0.5,0.9-0.9,1.5-1.1s1.5-0.4,2.5-0.4c1.1,0,2,0.1,2.5,0.3s1,0.5,1.3,0.9
		c0.4,0.4,0.7,1,0.9,1.7l-3.4,0.4c-0.1-0.3-0.2-0.6-0.4-0.8c-0.3-0.2-0.6-0.3-1-0.3c-0.4,0-0.7,0.1-0.9,0.2s-0.3,0.4-0.3,0.6
		c0,0.3,0.1,0.5,0.4,0.6c0.2,0.1,0.8,0.3,1.5,0.4c1.2,0.2,2.1,0.4,2.7,0.6c0.6,0.3,1,0.7,1.3,1.2c0.3,0.5,0.5,1.1,0.5,1.7
		c0,0.6-0.2,1.2-0.5,1.8c-0.3,0.6-0.8,1-1.6,1.4c-0.7,0.3-1.7,0.5-2.9,0.5c-1.7,0-3-0.3-3.7-0.8C619.2,94,618.7,93.2,618.5,92.2z"/>
</g>
</svg>
