<?xml version="1.0" encoding="utf-8"?>
<!-- Generator: Adobe Illustrator 22.1.0, SVG Export Plug-In . SVG Version: 6.00 Build 0)  -->
<svg version="1.1" id="Capa_1" xmlns="http://www.w3.org/2000/svg" xmlns:xlink="http://www.w3.org/1999/xlink" x="0px" y="0px"
	 viewBox="0 0 319.2 104" style="enable-background:new 0 0 319.2 104;" xml:space="preserve">
<style type="text/css">
	.st0{fill:#C4CF27;}
	.st1{fill:#4CC5D4;}
	.st2{fill:#076D95;}
</style>
<g>
	<path class="st0" d="M3,39.5c0.3-0.4,0.6-0.7,0.9-1.1c1.8-3,4.7-3.9,7.9-2.2c0.9,0.5,1.5,0.6,2.4,0c8.7-5.6,17.4-11.2,26.2-16.8
		c-0.3-1.2-0.7-2.4-0.8-3.5c-0.4-4.2,2-7.9,6-9.3c0.6-0.2,1.4,0.1,1.7-0.7c0.8,0,1.6,0,2.4,0c1.2,0.6,2.4,1,3.6,1.7
		c3.3,2.1,4.1,5.3,3.9,8.9c0,0.4-0.1,0.8-0.1,1.2c-1.1,2-2.5,3.9-4.5,5.1c2.3,4.5,4.6,8.8,6.8,13c-0.4,0.2-0.7,0.3-1.1,0.5
		c-2.3-4.4-4.5-8.7-6.8-13c-4.9,0.7-5.4,0.6-10.5-3c-4.5,2.9-8.9,5.7-13.4,8.6c-4.6,2.9-9.1,5.8-13.6,8.7c0.1,2.1,1.3,2.2,2.8,2.2
		c13,0,26.1,0,39.1,0c0,0.3,0,0.6-0.1,0.9c-13.7,0-27.3,0-41,0c-0.3,1-0.4,1.7-0.6,2.4c-0.2,0.3-0.4,0.6-0.5,0.9
		c-0.8,0.7-1.6,1.3-2.5,2c-0.4,0.1-0.7,0.3-1.1,0.4c-3.5,0.7-5.6-1.1-7.1-4C3,41.5,3,40.5,3,39.5z"/>
	<path class="st1" d="M314.2,53.1c-0.7,0.9-1.4,1.8-2.7,1.8c-4.8-0.2-9.6,0.5-14.3-0.3c-7.2-1.2-11.5-7-11.1-15
		c0.3-7,5.6-12.5,12.5-12.8c4.2-0.2,8.4,0.1,12.6-0.1c1.6,0,2.2,1,3,2c0,0.6,0,1.3,0,1.9c-0.9,1.5-2.2,1.9-3.9,1.8
		c-3.1-0.1-6.3-0.1-9.4,0c-1.3,0-2.6,0-3.8,0.5c-3.8,1.5-5.9,5.1-5.2,9.4c0.6,3.8,3.8,6.6,8,6.8c3.5,0.2,7.1,0.1,10.7,0
		c1.7-0.1,2.9,0.4,3.6,2C314.2,51.8,314.2,52.5,314.2,53.1z"/>
	<path class="st0" d="M43.4,97.9c-2.8-1.4-4.1-3.4-3.3-6.6c0.2-0.3,0.5-0.6,0.7-0.9c0.7-0.5,1.4-1,2.1-1.5c0.3-0.1,0.6-0.1,1-0.2
		c1.6,0,2.9,0.6,4,1.8c0.2,0.4,0.5,0.8,0.7,1.2c0.4,3.6-0.2,4.5-3.7,6.3C44.3,97.9,43.9,97.9,43.4,97.9z"/>
	<path class="st1" d="M263.7,43.8c0,1.2,0,2,0,2.8c-0.1,1.7,0.7,2.4,2.5,2.4c5.4-0.1,10.8-0.1,16.3,0c2.6,0,3.6,0.9,3.5,2.9
		c0,1.7-0.7,2.8-2.6,2.8c-7.5,0-15.1,0-22.6,0c-2,0-2.8-1.3-2.8-3c-0.1-7.2-0.1-14.4,0-21.6c0-2.2,1.3-3.1,3.5-3.1
		c7.1,0,14.2,0,21.4,0c2,0,3.1,0.7,3.1,2.8c0,2.2-1.2,3-3.2,2.9c-4.9,0-9.7,0-14.6,0c-4.6,0-4.8,0.3-4.2,5.4c2.7,0,5.4,0,8.1,0
		c2.5,0,3.7,0.9,3.7,2.8c-0.1,2.3-1.6,2.9-3.6,2.9C269.4,43.8,266.8,43.8,263.7,43.8z"/>
	<path class="st2" d="M166.5,44.1c0.8-1.1,0.4-2.3,0.4-3.5c0.1-3.5,0.1-7,0-10.4c0-2,0.7-3.3,2.9-3.3s2.9,1.1,2.9,3.2
		c-0.1,7-0.1,14.1-0.1,21.1c0,1.3,0.4,2.8-1.3,3.3s-3.3,0.3-4.7-1.1c-3.9-4.1-7.8-8.2-11.7-12.3c-1.2-1.2-2.1-2.9-3.7-3.7
		c-1.2,0.6-0.8,1.6-0.8,2.4c0,4-0.1,7.9,0,11.9c0,2-0.7,3.1-2.8,3.1c-2.1,0.1-2.9-1.1-2.9-3c0-7.5,0.1-14.9,0-22.3
		c0-3.1,2.6-3.1,4.9-2.2c1,0.4,1.6,1.3,2.3,2.1c4.2,4.5,8.4,9,12.6,13.5C165,43.5,165.5,44.3,166.5,44.1z"/>
	<path class="st2" d="M142.7,41c0,8.8-5.5,14.2-14.5,14.2c-8.6,0-14.3-5.7-14.3-14.3c0-8.8,5.8-14.6,14.6-14.5
		C137.3,26.4,142.7,32,142.7,41z M136.8,40.8c0-5-3.5-8.5-8.5-8.5c-4.9,0-8.5,3.7-8.5,8.7s3.4,8.4,8.6,8.4
		C133.5,49.3,136.8,45.9,136.8,40.8z"/>
	<path class="st2" d="M104.4,26.9c2,0,4,0.1,6.1,0s3,0.9,3,2.9s-1.1,2.8-3.1,2.8c-3.8-0.1-7.6-0.1-11.4,0.1
		c-5.6,0.4-8.9,5.2-7.4,10.7c1,3.5,4,5.8,8.2,5.9c3.6,0.1,7.1,0.1,10.7,0c2.1-0.1,3,0.9,3,2.9c0,1.9-0.9,2.9-2.9,2.8
		c-4.6-0.2-9.2,0.5-13.8-0.2c-6.9-1.1-11.6-6.9-11.3-14.1C85.8,33,90.7,27.5,97.9,27C100,26.8,102.2,26.9,104.4,26.9z"/>
	<path class="st2" d="M193.5,26.9c2.2,0,4.4,0,6.6,0c2,0,2.5,1.2,2.5,2.8c0,1.7-0.6,2.8-2.5,2.8c-3.6,0-7.3-0.1-10.9,0
		c-6,0.2-9.4,4.2-8.6,9.8c0.6,4,3.8,6.8,8.4,6.9c3.6,0.1,7.1,0.1,10.7,0c2.1-0.1,3,0.8,3,2.8c0,1.9-0.8,2.9-2.8,2.8
		c-4.6-0.2-9.2,0.5-13.8-0.2c-7.2-1.1-11.5-6.8-11.2-14.8c0.3-7.1,5.3-12.5,12.2-13C189.1,26.8,191.3,26.9,193.5,26.9L193.5,26.9z"
		/>
	<path class="st2" d="M48.6,91.7c-0.2-0.4-0.5-0.8-0.7-1.2c4.9-4.3,9.8-8.6,14.7-12.9c-2.2-6-1.4-8.4,4.2-11.6
		c-1.6-6.6-3.3-13.3-4.9-20.1c-1.2,0.1-2.4,0-3.3-0.7c-1.2-1-2-0.7-3.2,0.2c-3.5,2.5-7,5-10.5,7.4c-0.5-0.2-0.6-0.5-0.6-1
		c3.4-2.4,6.7-4.9,10.2-7.2c1.4-1,2-1.9,1.3-3.5c0-0.3,0-0.6,0.1-0.9c0.4-1.5,1.2-2.6,2.3-3.5c0.4-0.2,0.7-0.3,1.1-0.5
		c1.5-0.1,3,0.1,4.5,0.6c0.1,0.3,0.4,0.5,0.7,0.5c1.5,2.9,1.9,5.7-1.2,7.9c-0.6,0.4-0.2,1-0.1,1.6c1.5,6,2.9,11.9,4.4,17.9
		c0.2,0.9,0.5,1.4,1.5,1.6c3.3,0.5,5.5,2.3,6.1,5.7c0.5,2.9-0.4,5.3-2.9,7c-2.5,1.8-5.2,1.6-8.9-0.5C58.5,82.7,53.5,87.2,48.6,91.7z
		"/>
	<path class="st1" d="M243.1,26.9c3.3,0,6.6,0,10,0c1.9,0,2.9,0.7,2.9,2.6c0,2-1,3-2.9,3.1c-1.6,0.1-3.2,0.1-4.9,0
		c-1.8-0.1-2.2,0.7-2.2,2.3c0,5.6,0,11.2,0,16.8c0,2.5-1.4,3.6-3.7,3.1c-1.7-0.4-2.1-1.6-2.1-3.1c0-5.4-0.1-10.9,0-16.3
		c0-2.1-0.6-3-2.8-2.8c-1.4,0.1-2.9,0.1-4.4,0c-2-0.1-3.1-1.1-3-3.2c0.1-2,1.2-2.6,3-2.6C236.4,26.9,239.7,26.9,243.1,26.9z"/>
	<path class="st2" d="M203.9,27.6c3.3-0.8,6-0.5,7.8,2.7c0.9,1.5,2.2,2.8,3.2,4.3c1,1.4,1.8,1.4,2.8,0c1-1.5,2.3-2.7,3.2-4.3
		c1.8-3.2,4.5-3.5,7.6-2.8c0.5,1.2-0.4,1.9-0.9,2.6c-2.4,3.3-4.9,6.6-7.4,9.9c-0.6,0.8-0.7,1.5-0.7,2.5c0,3,0,6,0,9
		c0.1,2.3-1.2,2.9-3.2,2.9s-3.2-0.9-2.8-2.9c1.4-7.7-1.7-13.7-6.7-19.2c-1-1.1-1.8-2.5-2.7-3.8C203.9,28.3,203.9,28.1,203.9,27.6z"
		/>
	<path class="st1" d="M64.5,37.3c-0.4,0-0.6-0.2-0.7-0.5c3-3.6,5.9-7.2,9-10.9c-1.3-1.3-2.3-2.8-2.3-4.7c0-0.8-0.7-0.9-1.4-1
		C65,19.3,61,18.6,57,17.9c0-0.4,0.1-0.8,0.1-1.2c3.9,0.7,7.8,1.4,11.7,2.2c1.2,0.3,1.8,0.1,2.6-1c1.8-2.7,4.7-3.5,7.4-2.2
		c2.6,1.3,3.8,4.2,3,6.9c-0.8,2.8-3.4,4.4-6.6,4c-1.1-0.2-1.6,0.2-2.2,1C70.1,30.7,67.3,33.9,64.5,37.3z"/>
	<path class="st2" d="M23.4,78.3c-2.9,1.6-5,1.4-6.4-0.6c-1.5-2-1.1-4.1,1.3-6.6c0.4-0.1,0.9-0.3,1.3-0.4c4.4,0.6,5.6,2.2,4.7,6.7
		C23.9,77.8,23.7,78,23.4,78.3z"/>
	<path class="st1" d="M19.6,70.8c-0.4,0.1-0.9,0.3-1.3,0.4c-2-7.3-4.9-14.4-7.3-21.7c-0.3-0.9-0.6-1.8-0.8-2.8
		c0.4-0.1,0.7-0.3,1.1-0.4C14,54.5,16.8,62.6,19.6,70.8z"/>
	<path class="st1" d="M23.4,78.3c0.3-0.3,0.5-0.6,0.8-0.9c5.5,4.3,11,8.6,16.5,12.9c-0.2,0.3-0.5,0.6-0.7,0.9
		C34.5,87,28.9,82.7,23.4,78.3z"/>
	<path class="st1" d="M42.9,88.8c-1.5-6.2-2.9-12.4-4.4-18.6c-0.2-0.8-0.4-1.6-0.6-2.3c-8.3-0.2-13.2-6.1-10.2-14.6
		c-4.7-3-9.3-5.9-14-8.9c0.2-0.3,0.4-0.6,0.5-0.9c4.7,2.9,9.4,5.9,14.2,8.8c0.4-0.3,0.6-0.5,0.8-0.8c4.3-4.1,9.3-4.3,13.9-0.4
		c0.4,0.3,0.7,0.6,1.3,0.6c0,0.5,0.1,0.8,0.6,1c0.2,0.8,0.4,1.5,0.7,2.3c1.3,4.4-0.5,9.2-4.4,11.3c-0.7,0.4-1.6,0.4-2,1.2
		c1.6,7,3.1,14,4.7,21.1C43.5,88.8,43.2,88.8,42.9,88.8z"/>
</g>
</svg>
