<?xml version="1.0" encoding="utf-8"?>
<!-- Generator: Adobe Illustrator 23.0.0, SVG Export Plug-In . SVG Version: 6.00 Build 0)  -->
<svg version="1.1" id="Capa_1" xmlns="http://www.w3.org/2000/svg" xmlns:xlink="http://www.w3.org/1999/xlink" x="0px" y="0px"
	 viewBox="0 0 104 58" style="enable-background:new 0 0 104 58;" xml:space="preserve">
<style type="text/css">
	.st0{fill:#FFFFFF;}
	.st1{fill-rule:evenodd;clip-rule:evenodd;fill:#FFFFFF;}
</style>
<g>
	<g>
		<path class="st0" d="M56,21.4c-0.1,0.5-0.2,1.1-0.3,1.6c0,0.1-0.1,0.1-0.2,0.1c-0.8,0-1.7,0-2.5,0c-0.1,0-0.2,0-0.1-0.2
			c0.1-0.5,0.2-0.9,0.3-1.4c0-0.1,0.1-0.2,0.2-0.2C54.3,21.4,55.1,21.4,56,21.4z"/>
		<g>
			<path class="st0" d="M67.9,26.4c-0.5,0-0.9,0.2-1.2,0.5c-0.5,0.5-0.8,1.1-1,1.7c-0.3,1-0.5,1.9-0.7,2.9c0,0.1,0,0.2-0.1,0.2
				c-0.8,0-1.7,0-2.5,0c0.4-1.8,0.8-3.5,1.2-5.3c0.2-0.7,0.3-1.4,0.5-2.2c0-0.1,0-0.1,0.1-0.1c0.7,0,1.5,0,2.2,0
				c0.1,0,0.1,0,0.1,0.2c-0.1,0.2-0.1,0.5-0.2,0.8c0.2-0.2,0.4-0.4,0.6-0.6c0.5-0.3,1-0.4,1.5-0.5c0.4,0,0.4,0,0.3,0.3
				c-0.1,0.4-0.2,0.8-0.3,1.2c0,0,0,0,0,0c0.1-0.2,0.3-0.3,0.4-0.5c0.8-0.7,1.7-1.1,2.8-1.3c0.8-0.1,1.6,0,2.4,0.3
				c1.1,0.5,1.7,1.4,1.8,2.6c0,0.4,0,0.7-0.1,1.1c0,0.2-0.1,0.3-0.3,0.4c-0.7,0.2-1.4,0.5-2,0.7c-0.1,0-0.2,0.1-0.3,0.1
				c1.7,0,3.3,0,5,0c-0.2,0.8,0.3,1.1,0.9,1.1c0.3,0,0.6,0,0.9-0.1c0.3-0.1,0.5-0.4,0.5-0.7c0-0.3-0.3-0.5-0.5-0.6
				c-0.4-0.1-0.8-0.2-1.2-0.3c-0.6-0.1-1.2-0.4-1.6-0.8c-0.7-0.6-0.8-1.4-0.5-2.3c0.2-0.6,0.7-1,1.3-1.2c0.6-0.3,1.3-0.4,2-0.4
				c0.7,0,1.4,0,2.1,0.2c0.7,0.2,1.3,0.5,1.6,1.2c0.1,0.3,0.1,0.7,0.1,1c0,0.1,0,0.1-0.1,0.1c-0.8,0-1.6,0-2.4,0
				c-0.1,0-0.1,0-0.1-0.1c0-0.6-0.2-0.8-0.8-0.9c-0.3,0-0.6,0-0.9,0.2c-0.2,0.2-0.2,0.4-0.1,0.6c0.2,0.3,0.6,0.4,0.9,0.4
				c0.6,0.1,1.2,0.2,1.8,0.5c1.1,0.4,1.5,1.4,1.3,2.4c-0.2,1.1-1,1.8-2,2.1c-0.6,0.2-1.1,0.3-1.7,0.3c-0.9,0-1.9,0-2.7-0.3
				c-0.5-0.2-1-0.5-1.3-1c-0.2-0.3-0.3-0.7-0.3-1.1c-0.2,0.4-0.5,0.7-0.8,1c-0.9,0.9-1.9,1.3-3.2,1.4c-0.9,0.1-1.7,0-2.5-0.5
				c-0.7-0.5-1.2-1.1-1.4-2c-0.2-1,0-1.9,0.4-2.8C67.9,26.5,67.9,26.5,67.9,26.4z M73.3,27.1c0-0.1,0-0.2,0-0.3
				c0-0.4-0.1-0.8-0.4-1.1c-0.4-0.3-1-0.3-1.5,0.1c-0.9,0.9-1.3,1.9-1.2,3.2c0,0.5,0.4,0.9,1,0.9c0.4,0,0.8-0.2,1.1-0.5
				C72.9,28.8,73.2,27.9,73.3,27.1z"/>
			<path class="st0" d="M92,25.8c0.1-0.5,0.2-1.1,0.3-1.6c0-0.2,0.1-0.2,0.2-0.2c0.3,0,0.7,0,1,0c0.2,0,0.2,0,0.3-0.2
				c0.1-0.4,0.2-0.9,0.4-1.3c0.3-0.6,0.8-0.9,1.4-1c0.7-0.1,1.4-0.1,2.1,0c-0.1,0.4-0.2,0.9-0.3,1.3c0,0.1,0,0.1-0.1,0.1
				c-0.8,0-0.8,0.3-0.9,0.9c0,0.1,0,0.1,0,0.2c0.5,0,1,0,1.5,0c0.1,0,0.1-0.1,0.1-0.1c0.1-0.5,0.2-1,0.3-1.6c0-0.1,0-0.1,0.1-0.1
				c0.8,0,1.6,0,2.4,0c-0.1,0.6-0.2,1.1-0.4,1.7c0,0.2,0,0.2,0.1,0.2c0.4,0,0.7,0,1.1,0c-0.1,0.6-0.3,1.1-0.4,1.7
				c0,0.1-0.1,0.1-0.2,0.1c-0.3,0-0.7,0-1,0c-0.1,0-0.2,0-0.2,0.2c-0.2,1.1-0.5,2.3-0.7,3.4c-0.1,0.3,0.1,0.5,0.4,0.5
				c0.2,0,0.5,0,0.7,0c0.1,0,0.1,0,0.1,0.1c-0.1,0.5-0.2,1-0.4,1.5c0,0.1,0,0.1-0.1,0.1c-0.8,0.1-1.6,0.1-2.3-0.1
				c-0.7-0.2-1.1-0.6-1-1.4c0.1-0.9,0.3-1.7,0.5-2.5c0.1-0.5,0.2-1.1,0.4-1.6c0-0.1,0-0.1-0.1-0.1c-0.4,0-0.8,0-1.2,0
				c-0.1,0-0.1,0-0.2,0.2c-0.3,1.4-0.6,2.9-0.9,4.3c-0.1,0.4-0.2,0.8-0.3,1.2c0,0.1-0.1,0.1-0.2,0.1c-0.8,0-1.6,0-2.4,0
				c-0.1,0-0.1-0.1-0.1-0.2c0.2-0.8,0.4-1.6,0.5-2.4c0.2-1,0.4-2,0.7-3.1c0-0.1,0-0.2-0.1-0.2c-0.3,0-0.7,0-1,0
				c-0.1,0-0.2,0-0.1,0.2c0.4,1.4,0.1,2.6-0.7,3.8c-0.7,1-1.6,1.7-2.8,2c-1.2,0.3-2.4,0.3-3.5-0.4c-0.7-0.5-1.2-1.2-1.3-2
				c-0.4-2.5,1.4-5.1,4-5.5c0.9-0.1,1.8-0.1,2.7,0.3C91.2,24.4,91.7,25,92,25.8C92,25.7,92,25.7,92,25.8z M86.5,28.6
				c0,0.1,0,0.2,0,0.4c0.1,0.4,0.2,0.8,0.7,0.9c0.4,0.1,0.8,0,1.2-0.3c0.9-0.9,1.3-2,1.2-3.2c-0.1-0.4-0.3-0.8-0.7-0.9
				c-0.4-0.1-0.8,0.1-1.1,0.4C86.9,26.6,86.6,27.6,86.5,28.6z"/>
			<path class="st0" d="M45.7,27.1c0.5-1,0.9-1.9,1.3-2.8c0.4-0.9,0.9-1.9,1.3-2.8c0-0.1,0.1-0.1,0.2-0.1c1.3,0,2.6,0,3.9,0
				c-0.2,0.8-0.3,1.5-0.5,2.2c-0.4,2-0.9,4-1.3,5.9c-0.1,0.6-0.3,1.3-0.4,1.9c0,0.1,0,0.1-0.2,0.1c-0.9,0-1.8,0-2.7,0
				c-0.1,0-0.1-0.1-0.1-0.2c0.4-1.7,0.7-3.3,1.1-5c0-0.1,0-0.1,0-0.2c-0.3,0.7-0.7,1.3-1,2c-0.5,1.1-1.1,2.1-1.6,3.2
				c-0.1,0.1-0.1,0.2-0.3,0.2c-0.6,0-1.2,0-1.8,0c-0.2,0-0.2,0-0.2-0.2c0-1.1,0-2.3,0-3.4c0-0.6,0-1.2,0-1.8c0,0,0,0-0.1,0
				c-0.1,0.3-0.2,0.7-0.3,1c-0.3,1.4-0.7,2.8-1,4.2c0,0.1-0.1,0.2-0.2,0.2c-0.9,0-1.8,0-2.6,0c-0.1,0-0.2,0-0.1-0.2
				c0.6-2.6,1.1-5.2,1.7-7.7c0.2-0.7,0.3-1.4,0.5-2.2c0-0.1,0.1-0.2,0.2-0.2c1.3,0,2.5,0,3.8,0c0.1,0,0.2,0,0.2,0.2
				c0,0.7,0,1.4,0.1,2.1c0,1,0.1,1.9,0.1,2.9C45.7,26.7,45.7,26.9,45.7,27.1z"/>
			<path class="st0" d="M61.7,26.9c-0.4,0-0.8,0-1.3,0c-0.1,0-0.2,0-0.1-0.2c0-0.1,0-0.3,0-0.4c-0.1-0.6-0.6-0.8-1.1-0.6
				c-0.5,0.2-0.8,0.5-1,1c-0.4,0.7-0.6,1.4-0.6,2.1c0,0.4,0.1,0.7,0.5,0.9c0.5,0.3,1.1,0.1,1.4-0.4c0,0,0,0,0-0.1
				c0.2-0.4,0.5-0.6,1-0.5c0.7,0,1.3,0,2,0c0.2,0,0.2,0.1,0.1,0.2c-0.7,1.5-1.8,2.4-3.4,2.7c-0.8,0.1-1.5,0.2-2.3-0.1
				c-1.1-0.4-1.8-1.1-2-2.2c-0.3-1.8,0.3-3.3,1.6-4.5c0.8-0.7,1.7-1,2.8-1.1c0.7,0,1.4,0,2.1,0.3c1,0.4,1.6,1.3,1.7,2.4
				c0,0.4,0,0.4-0.4,0.4C62.4,26.9,62.1,26.9,61.7,26.9z"/>
			<path class="st0" d="M70.6,43.7c-10.4,0-20.7,0-31.1,0c-0.1,0-0.3,0.1-0.3,0c0-0.1,0-0.3,0-0.5c0,0,0,0,0.1-0.1
				c0.1,0,0.1,0,0.2,0c20.8,0,41.5,0,62.3,0c0.1,0,0.2-0.1,0.2,0.1c0,0.2,0,0.3,0,0.5c0,0-0.1,0-0.1,0c-0.1,0-0.1,0-0.2,0
				C91.3,43.7,80.9,43.7,70.6,43.7z"/>
			<path class="st0" d="M51,31.6c0.1-0.5,0.2-1,0.3-1.6c0.4-1.8,0.8-3.7,1.2-5.5c0.1-0.5,0.1-0.5,0.7-0.5c0.7,0,1.3,0,2,0
				c0.2,0,0.2,0,0.2,0.2c-0.4,1.7-0.7,3.3-1.1,5c-0.2,0.7-0.3,1.5-0.5,2.2c0,0.1-0.1,0.1-0.2,0.1C52.7,31.6,51.9,31.6,51,31.6z"/>
			<path class="st0" d="M55.4,37.9c0-0.8,0-1.6,0-2.4c0-0.1,0-0.2,0.2-0.2c0.7,0,1.4,0,2.2,0c0.2,0,0.4,0,0.6,0.1
				c0.6,0.1,1,0.5,1.1,1.1c0.1,0.5,0.1,0.9-0.2,1.3c-0.1,0.2-0.3,0.2-0.4,0.3c-0.1,0.1-0.2,0.2-0.1,0.3c0.3,0.6,0.5,1.3,0.8,1.9
				c0.1,0.2,0.1,0.2-0.1,0.2c-0.3,0-0.6,0-1,0c-0.2,0-0.2-0.1-0.3-0.2c-0.2-0.6-0.4-1.1-0.7-1.7c0-0.1-0.1-0.2-0.2-0.2
				c-0.2,0-0.5-0.1-0.7,0.1c-0.1,0.1,0,0.4,0,0.6c0,0.4,0,0.8,0,1.1c0,0.2-0.1,0.2-0.2,0.2c-0.3,0-0.5,0-0.8,0c-0.2,0-0.2,0-0.2-0.2
				C55.4,39.6,55.4,38.8,55.4,37.9z M56.7,36.9c0,0.2,0,0.4,0,0.6c0,0.1,0,0.1,0.1,0.1c0.3,0,0.7,0,1,0c0.3,0,0.6-0.4,0.6-0.7
				c0-0.3-0.3-0.6-0.6-0.6c-0.3,0-0.6,0-0.9,0c-0.1,0-0.2,0-0.2,0.1C56.7,36.6,56.7,36.7,56.7,36.9z"/>
			<path class="st0" d="M97.9,38c0-0.8,0-1.6,0-2.4c0-0.2,0-0.2,0.2-0.2c0.7,0,1.4,0,2,0c1,0.1,1.8,1,1.9,1.9
				c0.1,0.6,0.1,1.1-0.1,1.6c-0.3,1-1,1.6-2,1.7c-0.6,0.1-1.3,0-1.9,0c-0.2,0-0.2-0.1-0.2-0.3C97.9,39.5,97.9,38.8,97.9,38z
				 M99.1,37.9c0,0.4,0,0.9,0,1.3c0,0.4,0,0.4,0.4,0.4c0.3,0,0.5,0,0.8-0.2c0.4-0.3,0.6-0.7,0.6-1.2c0.1-0.5,0-1-0.3-1.4
				c-0.1-0.2-0.3-0.3-0.5-0.4c-0.3-0.1-0.5-0.1-0.8-0.1c-0.1,0-0.2,0-0.2,0.2C99.1,37,99.1,37.5,99.1,37.9z"/>
			<path class="st0" d="M90.1,37.9c0-0.8,0-1.6,0-2.4c0-0.2,0-0.2,0.2-0.2c1.1,0,2.2,0,3.4,0c0.2,0,0.2,0,0.2,0.2c0,0.2,0,0.4,0,0.6
				c0,0.2,0,0.2-0.2,0.2c-0.7,0-1.4,0-2.1,0c-0.2,0-0.2,0-0.2,0.2c0,0.2,0,0.4,0,0.6c0,0.2,0,0.2,0.2,0.2c0.5,0,1,0,1.5,0
				c0.2,0,0.2,0.1,0.2,0.2c0,0.2,0,0.3,0,0.5c0,0.2,0,0.2-0.2,0.2c-0.5,0-1,0-1.6,0c-0.2,0-0.2,0-0.2,0.2c0,0.3,0,0.5,0,0.8
				c0,0.2,0.1,0.2,0.2,0.2c0.7,0,1.4,0,2.1,0c0.2,0,0.2,0,0.2,0.2c0,0.2,0,0.5,0,0.7c0,0.1,0,0.1-0.1,0.1c-1.2,0-2.3,0-3.5,0
				c-0.2,0-0.2-0.1-0.2-0.2C90.1,39.6,90.1,38.8,90.1,37.9z"/>
			<path class="st0" d="M47.6,38c0-0.8,0-1.6,0-2.4c0-0.2,0-0.2,0.2-0.2c1.1,0,2.2,0,3.3,0c0.2,0,0.2,0,0.2,0.2c0,0.2,0,0.4,0,0.6
				c0,0.2,0,0.2-0.2,0.2c-0.7,0-1.4,0-2.1,0c-0.2,0-0.3,0.1-0.2,0.3c0,0.2,0,0.4,0,0.6c0,0.2,0,0.3,0.2,0.2c0.5,0,1,0,1.5,0
				c0.2,0,0.2,0,0.2,0.2c0,0.2,0,0.4,0,0.6c0,0.2-0.1,0.2-0.2,0.2c-0.5,0-1,0-1.5,0c-0.2,0-0.2,0.1-0.2,0.2c0,0.2,0,0.5,0,0.7
				c0,0.2,0,0.2,0.2,0.2c0.7,0,1.4,0,2.1,0c0.2,0,0.2,0,0.2,0.2c0,0.2,0,0.4,0,0.6c0,0.1,0,0.2-0.2,0.2c-1.1,0-2.3,0-3.4,0
				c-0.2,0-0.2-0.1-0.2-0.2C47.6,39.6,47.6,38.8,47.6,38z"/>
			<path class="st0" d="M43.6,38.7c-0.1,0.7-0.4,1.3-1,1.6c-0.5,0.3-1.1,0.4-1.7,0.2c-0.8-0.2-1.3-0.7-1.6-1.5
				c-0.1-0.5-0.2-1-0.1-1.6c0.1-0.5,0.2-1,0.5-1.4c0.4-0.5,0.8-0.8,1.4-0.8c0.4-0.1,0.8,0,1.2,0.1c0.6,0.2,1,0.7,1.2,1.3
				c0,0.1,0.1,0.3,0.1,0.4c0,0.1,0,0.1-0.1,0.2c-0.3,0-0.7,0-1,0.1c-0.1,0-0.1,0-0.1-0.1c0-0.1-0.1-0.3-0.1-0.4
				c-0.1-0.4-0.5-0.6-0.9-0.6c-0.5,0.1-0.7,0.5-0.8,0.9c-0.1,0.7-0.2,1.3,0.1,2c0.1,0.3,0.4,0.5,0.7,0.5c0.3,0,0.6-0.1,0.8-0.3
				c0.1-0.2,0.2-0.3,0.2-0.5c0-0.1,0.1-0.1,0.2-0.1C42.9,38.7,43.2,38.7,43.6,38.7z"/>
			<path class="st0" d="M76.8,38c0-0.8,0-1.6,0-2.4c0-0.2,0-0.2,0.2-0.2c1.1,0,2.2,0,3.3,0c0.1,0,0.2,0,0.2,0.2c0,0.2,0,0.4,0,0.7
				c0,0.1,0,0.2-0.2,0.2c-0.7,0-1.4,0-2.1,0c-0.2,0-0.2,0.1-0.2,0.2c0,0.2,0,0.5,0,0.7c0,0.2,0,0.2,0.2,0.2c0.5,0,1,0,1.5,0
				c0.2,0,0.2,0.1,0.2,0.2c0,0.2,0,0.4,0,0.6c0,0.2-0.1,0.2-0.2,0.2c-0.5,0-1,0-1.5,0c-0.2,0-0.3,0.1-0.2,0.3c0,0.5,0,1.1,0,1.6
				c0,0.1,0,0.2-0.2,0.2c-0.3,0-0.6,0-0.9,0c-0.1,0-0.2,0-0.2-0.2C76.8,39.6,76.8,38.8,76.8,38z"/>
			<path class="st0" d="M64.8,38.5c0-0.6,0-1.3,0-1.9c0-0.1,0-0.2-0.2-0.2c-0.3,0-0.6,0-0.9,0c-0.2,0-0.2-0.1-0.2-0.2
				c0-0.2,0-0.4,0-0.7c0-0.1,0-0.2,0.2-0.2c1.2,0,2.4,0,3.5,0c0.1,0,0.1,0,0.1,0.1c0,0.3,0,0.5,0,0.8c0,0.1,0,0.1-0.2,0.1
				c-0.3,0-0.6,0-0.9,0c-0.2,0-0.2,0-0.2,0.2c0,1.2,0,2.5,0,3.7c0,0.2,0,0.3-0.2,0.3c-0.3,0-0.5,0-0.8,0c-0.2,0-0.2-0.1-0.2-0.2
				C64.8,39.7,64.8,39.1,64.8,38.5z"/>
			<path class="st0" d="M72.4,37.9c0,0.8,0,1.6,0,2.4c0,0.2,0,0.2-0.2,0.2c-0.3,0-0.6,0-0.8,0c-0.1,0-0.2,0-0.2-0.2
				c0-1.6,0-3.3,0-4.9c0-0.1,0-0.2,0.2-0.2c0.3,0,0.6,0,0.9,0c0.2,0,0.2,0,0.2,0.2C72.4,36.3,72.4,37.1,72.4,37.9z"/>
			<path class="st0" d="M85.7,38c0,0.8,0,1.6,0,2.4c0,0.2-0.1,0.2-0.2,0.2c-0.3,0-0.5,0-0.8,0c-0.1,0-0.2,0-0.2-0.2
				c0-1.6,0-3.3,0-4.9c0-0.1,0-0.2,0.2-0.2c0.3,0,0.6,0,0.9,0c0.2,0,0.2,0.1,0.2,0.2C85.7,36.4,85.7,37.2,85.7,38z"/>
			<path class="st0" d="M102.3,24.8c0-0.5,0.4-0.8,0.8-0.8c0.5,0,0.8,0.3,0.8,0.8c0,0.5-0.3,0.8-0.8,0.8
				C102.7,25.6,102.4,25.3,102.3,24.8z M103.9,24.8c0-0.4-0.3-0.7-0.7-0.7c-0.4,0-0.7,0.3-0.7,0.7c0,0.4,0.3,0.7,0.7,0.7
				C103.5,25.5,103.9,25.2,103.9,24.8z"/>
			<path class="st0" d="M103.4,25.2c-0.1,0-0.1,0-0.2-0.1c0-0.1-0.1-0.2-0.1-0.2c0-0.1-0.1-0.1-0.1-0.1c-0.1,0-0.1,0-0.1,0.1
				c0,0,0,0.1,0,0.1c0,0.1,0,0.2-0.1,0.2c-0.1,0,0-0.1,0-0.2c0-0.2,0.1-0.4,0.1-0.5c0-0.1,0-0.1,0.1-0.1c0.2,0,0.3-0.1,0.5,0.1
				c0.1,0.1,0.1,0.2,0,0.3C103.2,24.8,103.4,25,103.4,25.2z M103.2,24.7c0.1,0,0.3,0,0.3-0.1c0-0.1-0.1-0.1-0.2-0.1
				c-0.2,0-0.1,0.1-0.2,0.2C103,24.8,103.1,24.7,103.2,24.7z"/>
		</g>
	</g>
	<g>
		<g>
			<path class="st1" d="M17.5,25V11.4c0-1.1-0.9-1.9-1.9-1.9H0V25c0,1.1,0.9,2,2,2h13.5L12,23.3H3.7V13.1h10.1v8.2L17.5,25z"/>
			<path class="st0" d="M15.9,27.1H2c-1.2,0-2.2-1-2.2-2.2V9.3h15.8c1.2,0,2.1,0.9,2.1,2.1v14l-4-4v-8.1H3.8v9.8H12L15.9,27.1z
				 M0.1,9.6V25c0,1,0.8,1.8,1.8,1.8h13.2l-3.2-3.4H3.5V13H14v8.3l3.4,3.3V11.4c0-1-0.8-1.8-1.8-1.8H0.1z"/>
		</g>
		<g>
			<path class="st1" d="M15.8,30.3H3.7C2.7,30.3,2,31,2,32v13.8h13.8c1,0,1.8-0.8,1.8-1.8V32l-3.3,3.1v7.3h-9v-9h7.3L15.8,30.3z"/>
			<path class="st0" d="M15.7,46H1.8V32c0-1,0.8-1.9,1.9-1.9h12.4l-3.5,3.6H5.4v8.7h8.7v-7.3l3.6-3.4V44C17.7,45.1,16.8,46,15.7,46z
				 M2.1,45.6h13.6c0.9,0,1.6-0.7,1.6-1.6V32.4l-3,2.8v7.4H5.1v-9.3h7.4l2.9-3H3.7c-0.9,0-1.6,0.7-1.6,1.6V45.6z"/>
		</g>
		<g>
			<path class="st1" d="M20.3,31.8v10.4c0,0.8,0.7,1.5,1.5,1.5h11.9V31.8c0-0.8-0.7-1.5-1.5-1.5H21.8l2.7,2.8h6.3v7.8h-7.8v-6.3
				L20.3,31.8z"/>
			<path class="st0" d="M33.9,43.8H21.8c-0.9,0-1.6-0.7-1.6-1.6V31.4l3.1,3.1v6.2h7.4v-7.4h-6.2l-3-3.1h10.7c0.9,0,1.7,0.8,1.7,1.7
				V43.8z M20.5,32.1v10c0,0.7,0.6,1.3,1.3,1.3h11.8V31.8c0-0.8-0.6-1.4-1.4-1.4h-10l2.4,2.5H31V41H23v-6.4L20.5,32.1z"/>
		</g>
		<g>
			<path class="st1" d="M21.8,27h10.4c0.8,0,1.5-0.7,1.5-1.5V13.6H21.8c-0.8,0-1.5,0.7-1.5,1.5v10.4l2.8-2.7v-6.3h7.8v7.8h-6.3
				L21.8,27z"/>
			<path class="st0" d="M32.2,27.1H21.4l3.1-3.1h6.2v-7.4h-7.4v6.2l-3.1,3V15.1c0-0.9,0.8-1.7,1.7-1.7h12v12.1
				C33.9,26.4,33.1,27.1,32.2,27.1z M22.2,26.8h10c0.7,0,1.3-0.6,1.3-1.3V13.7H21.8c-0.8,0-1.4,0.6-1.4,1.4v10l2.5-2.4v-6.4H31v8.1
				h-6.4L22.2,26.8z"/>
		</g>
	</g>
</g>
</svg>
