<?xml version="1.0" encoding="utf-8"?>
<!-- Generator: Adobe Illustrator 22.1.0, SVG Export Plug-In . SVG Version: 6.00 Build 0)  -->
<svg version="1.1" id="Capa_1" xmlns="http://www.w3.org/2000/svg" xmlns:xlink="http://www.w3.org/1999/xlink" x="0px" y="0px"
	 viewBox="0 0 270 58" style="enable-background:new 0 0 270 58;" xml:space="preserve">
<style type="text/css">
	.st0{enable-background:new    ;}
	.st1{fill:#FFFFFF;}
</style>
<g>
	<g>
		<g class="st0">
			<path class="st1" d="M67.5,39.5l4.4-13c0.5-1.5,1.3-2.1,2.5-2.1c1.1,0,2,0.7,2.4,2.1l4.4,13H78l-1.1-3.7h-5.1l-1.1,3.7H67.5z
				 M76.1,33.5l-1.9-6l-1.8,6H76.1z"/>
			<path class="st1" d="M82.8,28.1h2.8v7c0,1.6,0.3,2.3,2.2,2.3c0.6,0,1.3-0.1,1.7-0.3c0.1-0.5,0.1-1,0.1-1.5v-7.5h2.8v8.3
				c0,0.8,0,1.4-0.1,2.2c-1.3,0.7-3.1,1.1-5.1,1.1c-4.1,0-4.5-1.8-4.5-4.3L82.8,28.1L82.8,28.1z"/>
			<path class="st1" d="M99.2,24.9v3.2h2.3v2.2h-2.3v5.9c0,0.9,0.4,1.3,1.4,1.3c0.3,0,0.6,0,1,0l0.2,2c-0.6,0.1-1.3,0.2-2,0.2
				c-2.4,0-3.4-1.1-3.4-3.2v-6.2h-1.9v-2.2h1.9v-2.8L99.2,24.9z"/>
			<path class="st1" d="M103.3,33.8c0-4.1,1.3-5.9,5.1-5.9c4.2,0,5,2.2,5,5.6c0,0.3,0,0.6,0,0.9c-1.3,0.2-3.8,0.5-5.4,0.6l-1.9,0.1
				c0.1,1.8,1.1,2.2,2.7,2.2c1.5,0,2.9-0.2,4.1-0.3l0.2,2.1c-1.2,0.2-2.8,0.4-5,0.4C104.3,39.7,103.3,37.2,103.3,33.8z M108,33.1
				c0.7,0,1.9-0.1,2.6-0.2c0-0.1,0-0.3,0-0.5c0-1.5-0.6-2.3-2.2-2.3c-2.1,0-2.4,1.3-2.4,3.1L108,33.1z"/>
			<path class="st1" d="M118.7,39.5h-2.8v-8.3c0-0.8,0-1.4,0.1-2.2c1.3-0.7,3.1-1.1,5.1-1.1c4.1,0,4.5,1.8,4.5,4.3v7.3h-2.8v-7
				c0-1.6-0.3-2.3-2.3-2.3c-0.6,0-1.3,0.1-1.8,0.3c-0.1,0.5-0.1,1-0.1,1.5v7.5H118.7z"/>
			<path class="st1" d="M132.3,24.9v3.2h2.3v2.2h-2.3v5.9c0,0.9,0.4,1.3,1.4,1.3c0.3,0,0.6,0,1,0l0.2,2c-0.6,0.1-1.3,0.2-2,0.2
				c-2.4,0-3.4-1.1-3.4-3.2v-6.2h-1.9v-2.2h1.9v-2.8L132.3,24.9z"/>
			<path class="st1" d="M136.6,25.1c0-1.2,0.4-1.6,1.7-1.6s1.7,0.4,1.7,1.6s-0.4,1.6-1.7,1.6C137,26.8,136.6,26.3,136.6,25.1z
				 M136.9,28.1h2.9v11.4h-2.9V28.1z"/>
			<path class="st1" d="M150.3,39.2c-1,0.3-2.2,0.4-3.7,0.4c-3.8,0-4.4-2.9-4.4-6c0-3.7,0.9-5.8,5.1-5.8c1.3,0,2.3,0.2,3.1,0.4
				l-0.2,2.1c-0.7-0.1-1.4-0.3-2.1-0.3c-2.7,0-3,0.8-3,3.5c0,2.6,0.1,3.7,3,3.7c0.7,0,1.3-0.1,2-0.3L150.3,39.2z"/>
			<path class="st1" d="M152.2,36c0-2,0.9-3.3,3.2-3.6c1.2-0.2,2.4-0.2,3.7-0.3c0-1.3-0.6-1.9-2.1-1.9c-1.4,0-2.9,0.1-4,0.3
				l-0.2-2.1c1.2-0.2,2.8-0.4,4.5-0.4c2.5,0,4.7,0.7,4.7,3.7v4.8c0,0.8,0,1.4-0.1,2.2c-1.3,0.8-3,1.1-5.1,1.1
				C153.4,39.7,152.2,38.4,152.2,36z M159,34c-0.9,0-1.8,0.1-2.6,0.3c-1,0.2-1.4,0.6-1.4,1.8s0.7,1.5,1.9,1.5c0.6,0,1.4,0,2-0.3
				c0.1-0.5,0.1-1,0.1-1.5V34z"/>
			<path class="st1" d="M172.4,39.2c-1,0.3-2.2,0.4-3.7,0.4c-3.8,0-4.4-2.9-4.4-6c0-3.7,0.9-5.8,5.1-5.8c1.3,0,2.3,0.2,3.1,0.4
				l-0.2,2.1c-0.7-0.1-1.4-0.3-2.1-0.3c-2.7,0-3,0.8-3,3.5c0,2.6,0.1,3.7,3,3.7c0.7,0,1.3-0.1,2-0.3L172.4,39.2z"/>
			<path class="st1" d="M174.4,25.1c0-1.2,0.4-1.6,1.7-1.6s1.7,0.4,1.7,1.6s-0.4,1.6-1.7,1.6C174.8,26.8,174.4,26.3,174.4,25.1z
				 M174.7,28.1h2.9v11.4h-2.9V28.1z"/>
			<path class="st1" d="M180.1,33.8c0-4.3,1.4-5.9,5.1-5.9s5.1,1.7,5.1,5.9s-1.4,5.9-5.1,5.9S180.1,38.1,180.1,33.8z M187.5,33.8
				c0-2.8-0.5-3.6-2.3-3.6s-2.3,0.7-2.3,3.6s0.5,3.6,2.3,3.6S187.5,36.6,187.5,33.8z M185.6,23.2h2.9l-2.7,3.4h-2.2L185.6,23.2z"/>
			<path class="st1" d="M195.7,39.5h-2.8v-8.3c0-0.8,0-1.4,0.1-2.2c1.3-0.7,3.1-1.1,5.1-1.1c4.1,0,4.5,1.8,4.5,4.3v7.3h-2.8v-7
				c0-1.6-0.3-2.3-2.3-2.3c-0.6,0-1.3,0.1-1.8,0.3c-0.1,0.5-0.1,1-0.1,1.5v7.5H195.7z"/>
		</g>
		<g class="st0">
			<path class="st1" d="M210.5,24.9c1.3-0.2,3-0.3,4.5-0.3c5.5,0,6.5,2.5,6.5,7.6s-1,7.6-6.5,7.6c-1.6,0-3.2-0.1-4.5-0.4V24.9z
				 M212.2,26.1v12.1c0.8,0.1,1.7,0.2,2.5,0.2c5.2,0,5.3-2.7,5.3-6.2s0-6.2-5.3-6.2C213.9,26,212.9,26,212.2,26.1z"/>
			<path class="st1" d="M224.5,24.8c0-0.8,0.2-1.1,0.9-1.1s0.9,0.3,0.9,1.1s-0.2,1.1-0.9,1.1C224.7,26,224.5,25.7,224.5,24.8z
				 M224.7,28.2h1.6v11.4h-1.6V28.2z"/>
			<path class="st1" d="M230,42.4c1.2,0.2,2.6,0.3,3.9,0.3c2.5,0,3.1-0.8,3.1-2.6v-0.9c-1,0.3-2.1,0.4-3.2,0.4
				c-3.4,0-4.8-1.4-4.8-5.7s1.6-5.7,5.1-5.7c1.4,0,3,0.3,4.3,0.9c0,0.6,0.1,1.3,0.1,1.9v9.6c0,2.8-1.9,3.5-4.4,3.5
				c-1.6,0-3-0.2-4.3-0.4L230,42.4z M230.6,33.8c0,3.1,0.6,4.4,3.7,4.4c0.9,0,1.9-0.2,2.7-0.4v-6.1c0-0.5,0-1.2,0-1.8
				c-0.8-0.4-1.9-0.5-2.8-0.5C231.4,29.4,230.6,30.9,230.6,33.8z"/>
			<path class="st1" d="M241.7,24.8c0-0.8,0.2-1.1,0.9-1.1s0.9,0.3,0.9,1.1s-0.2,1.1-0.9,1.1C241.9,26,241.7,25.7,241.7,24.8z
				 M241.9,28.2h1.6v11.4h-1.6V28.2z"/>
			<path class="st1" d="M249.4,25v3.2h2.5v1.2h-2.5v7.1c0,1.6,0.6,1.9,1.9,1.9c0.2,0,0.4,0,0.6,0l0.1,1.2c-0.4,0.1-0.9,0.1-1.2,0.1
				c-2.1,0-3-0.9-3-3v-7.4h-2.1v-1.2h2.1v-3L249.4,25z"/>
			<path class="st1" d="M254.7,28.5c1.3-0.2,2.6-0.4,4.2-0.4c2.4,0,4.4,0.6,4.4,3.5V37c0,0.7,0,1.3-0.1,1.9
				c-1.3,0.7-2.9,0.9-4.8,0.9c-3.1,0-4.4-0.9-4.4-3.4c0-2,0.8-3.2,2.9-3.5c1.4-0.2,3.1-0.3,4.9-0.3V32c0-1.9-0.6-2.6-3.1-2.6
				c-1.3,0-2.6,0.2-3.8,0.3L254.7,28.5z M258.6,38.5c1,0,2.1-0.1,3.1-0.5c0-0.5,0-1.3,0-1.8v-2.5c-1.3,0-3.1,0.1-4.3,0.3
				c-1.3,0.3-1.9,0.8-1.9,2.4C255.5,38.1,256.5,38.5,258.6,38.5z"/>
			<path class="st1" d="M266.5,23.8h1.6v12.8c0,1.2,0.3,2.1,0.9,2.9l-1.3,0.7c-0.8-0.9-1.2-1.9-1.2-3.5V23.8z"/>
		</g>
	</g>
	<g>
		<g>
			<path class="st1" d="M44.1,27.9c-0.3,0-0.6,0-0.8,0c-9.1-0.3-14.1-5.5-14.3-5.7c-0.2-0.2-0.2-0.6,0-0.8c0.2-0.2,0.6-0.2,0.8,0
				c0.1,0.1,4.9,5,13.5,5.3s14.3-4.2,14.4-4.2c0.2-0.2,0.6-0.2,0.8,0.1c0.2,0.2,0.2,0.6-0.1,0.8C58.2,23.6,52.7,27.9,44.1,27.9z"/>
		</g>
		<g>
			<path class="st1" d="M28.5,52.4c-0.3,0-0.6-0.3-0.6-0.6s0.3-0.6,0.6-0.6c16.1,0,25-10.3,27.9-19.9c3.1-10.5,0-21-7.9-26.2
				C41.2,0.3,33.6,0,26.1,4.3c-5.7,3.2-9.2,7.9-9.3,8c-0.2,0.3-0.6,0.3-0.8,0.1c-0.3-0.2-0.3-0.6-0.1-0.8c0.1-0.2,3.7-4.9,9.6-8.3
				c5.5-3.1,14-5.5,23.6,0.9c8.3,5.5,11.7,16.6,8.4,27.5C54.5,41.7,45.3,52.4,28.5,52.4z"/>
		</g>
		<g>
			<path class="st1" d="M47.9,50.7c-3.1,0-6.6-0.4-10-1.8c-11.7-4.7-14.7-11-14.8-11.3c0-0.1,0-0.1,0-0.2c-0.2-1.5,1.7-11.8,9-19.8
				c2.7-3,5.8-5.2,9.2-6.8C29,7.2,16.8,12.4,16.6,12.5c-0.3,0.1-0.6,0-0.8-0.3c-0.1-0.3,0-0.6,0.3-0.8c0.2-0.1,4.5-1.9,10.7-2.7
				c4.3-0.5,10.2-0.6,16,1.5C46,9,49.6,8.4,53.4,8.5C53.8,8.5,54,8.7,54,9s-0.3,0.6-0.6,0.6l0,0c-3.1,0-6.1,0.4-8.8,1.2
				c1.3,0.6,2.7,1.2,3.9,2.1c14.9,9.3,15,19.7,15,20.2c0,0.3-0.2,0.6-0.5,0.6c-1.5,0.1-3.4,0.5-3.8,1v0.1c0.1,0.5,0.5,1.1,0.9,1.7
				c0.5,0.8,1.1,1.7,0.4,2.3c-0.4,0.4-1,0.7-1.6,1c0.2,0.4,0.4,1,0.2,1.5s-0.7,0.8-1.1,1c-0.2,0.1-0.5,0.4-0.6,0.5
				c0,0.2,0.1,0.6,0.1,1c0.3,2,0.9,5.6-1.7,6.2C54,50.3,51.1,50.7,47.9,50.7z M24.2,37.2c0.4,0.8,3.6,6.4,14.1,10.6
				c6.6,2.6,13.7,1.7,17.3,0.8c1.4-0.3,1.2-2.7,0.8-4.9c-0.1-0.5-0.1-0.9-0.1-1.2c0-0.7,0.6-1.1,1.1-1.4c0.3-0.2,0.6-0.4,0.7-0.6
				c0-0.2-0.2-0.6-0.5-0.8c-0.1-0.1-0.2-0.3-0.1-0.5c0-0.2,0.2-0.3,0.3-0.4c0.4-0.1,1.3-0.6,1.8-1c-0.1-0.2-0.3-0.6-0.5-0.9
				c-0.4-0.6-0.9-1.3-1-2.1c-0.1-0.4,0-0.7,0.2-1c0.7-0.9,2.9-1.3,4-1.4c-0.3-2.2-2-10.9-14.4-18.7c-1.6-1-3.3-1.8-5-2.5
				c-3.8,1.5-7.1,3.8-10,7C26.1,25.9,24.1,35.7,24.2,37.2z"/>
		</g>
		<g>
			<path class="st1" d="M57.3,47.7c-0.3,0-0.5-0.2-0.6-0.5c0-0.1-2-8.7-10.7-12.2c-13.1-5.3-21.9,2.7-22,2.8c-0.2,0.2-0.6,0.2-0.8,0
				c-0.2-0.2-0.2-0.6,0-0.8c0.1-0.1,2.4-2.2,6.4-3.6C33.3,32,39.2,31,46.4,34c9.3,3.8,11.3,12.7,11.4,13c0.1,0.3-0.1,0.6-0.4,0.7
				C57.3,47.7,57.3,47.7,57.3,47.7z"/>
		</g>
		<g>
			<path class="st1" d="M43.9,57.9c-0.1,0-0.1,0-0.2,0l-15.3-5.5C28,52.3,27.9,52,28,51.7s0.4-0.5,0.7-0.3l14.5,5.2
				c0-1.5,0.1-4.5,1.5-6c0.6-0.6,1.3-0.9,2.1-0.9l0,0c0.3,0,0.6,0.3,0.6,0.6s-0.3,0.6-0.6,0.6c-0.5,0-0.9,0.2-1.3,0.6
				c-1.3,1.4-1.3,4.8-1.2,6c0,0.2-0.1,0.4-0.2,0.5C44.1,57.9,44,57.9,43.9,57.9z"/>
		</g>
		<g>
			<circle class="st1" cx="16.8" cy="11.2" r="2.2"/>
		</g>
		<g>
			<circle class="st1" cx="42.3" cy="10.3" r="2.2"/>
		</g>
		<g>
			<circle class="st1" cx="58.2" cy="21.9" r="2.2"/>
		</g>
		<g>
			<circle class="st1" cx="24.1" cy="37" r="3.3"/>
		</g>
		<g>
			<circle class="st1" cx="18.9" cy="21.3" r="2.7"/>
		</g>
		<g>
			<circle class="st1" cx="12.3" cy="29.6" r="2.3"/>
		</g>
		<g>
			<circle class="st1" cx="8.1" cy="22.2" r="1.9"/>
		</g>
		<g>
			<circle class="st1" cx="8.4" cy="39" r="1.9"/>
		</g>
		<g>
			<circle class="st1" cx="2.1" cy="31.5" r="1.9"/>
		</g>
		<g>
			<circle class="st1" cx="18.9" cy="45.1" r="2.7"/>
		</g>
		<g>
			<circle class="st1" cx="29.6" cy="21.3" r="2.7"/>
		</g>
		<g>
			<circle class="st1" cx="41.1" cy="49.4" r="2.2"/>
		</g>
		<g>
			<circle class="st1" cx="53.6" cy="39" r="2.2"/>
		</g>
		<g>
			<circle class="st1" cx="28.5" cy="51.9" r="1.4"/>
		</g>
	</g>
</g>
</svg>
