<?xml version="1.0" encoding="utf-8"?>
<!-- Generator: Adobe Illustrator 23.0.0, SVG Export Plug-In . SVG Version: 6.00 Build 0)  -->
<svg version="1.1" id="Capa_1" xmlns="http://www.w3.org/2000/svg" xmlns:xlink="http://www.w3.org/1999/xlink" x="0px" y="0px"
	 viewBox="0 0 148 56" style="enable-background:new 0 0 148 56;" xml:space="preserve">
<style type="text/css">
	.st0{fill:#BC1622;}
	.st1{fill:#1D71B8;}
	.st2{fill:#FFFFFF;}
	.st3{fill:#1C3E76;}
	.st4{opacity:0.2;fill:#1C3E76;}
</style>
<g>
	<path class="st0" d="M25.8,11.4H2.5v24.5c0,5.1,4.2,9.3,9.3,9.3h24.5V21.9C36.2,16.1,31.5,11.4,25.8,11.4z"/>
	<g>
		<path class="st1" d="M42.1,21.3h12.5c5.8,0,5.8,0,6.9,0.7c1.3,0.8,1.7,1.9,1.7,4.8c0,2.5-0.3,3.5-1.2,4.2c-0.5,0.4-1,0.6-2,0.7
			c2.6,0.3,3.1,1.1,3,5v1.6h-5.1v-0.9c0-1.9-0.1-2.5-0.5-2.9c-0.4-0.4-0.7-0.5-2.9-0.5h-7.3v4.3h-5.1V21.3z M54.5,29.7
			c2.6-0.1,2.6-0.1,2.9-0.3c0.4-0.3,0.6-0.8,0.6-1.8c0-1.1-0.2-1.6-0.7-1.9c-0.4-0.2-0.4-0.2-2.8-0.2h-7.3v4.2H54.5z"/>
		<path class="st1" d="M70.4,21.3v16.9H65V21.3H70.4z"/>
		<path class="st1" d="M92,21.3v4.3h-7.5v12.6h-5.4V25.6h-7.5v-4.3H92z"/>
		<path class="st1" d="M98.6,21.3v16.9h-5.4V21.3H98.6z"/>
		<path class="st1" d="M105.4,32.6c0,1,0.1,1.3,0.5,1.6c0.5,0.3,1,0.4,4.7,0.4c5.5,0,5.5,0,5.5-1.5c0-1-0.4-1.3-2-1.3l-4.1-0.2
			l-2.7-0.1l-1.4-0.1c-4.2-0.1-5.4-1.2-5.4-4.9c0-3.2,0.9-4.7,3.2-5.2c1-0.2,3.3-0.3,7.4-0.3c4.9,0,6.7,0.2,7.9,1
			c1,0.7,1.4,1.7,1.4,3.8c0,0.1,0,0.5,0,0.8h-5c-0.1-0.9-0.1-1.2-0.5-1.4c-0.4-0.3-1.1-0.3-4.7-0.3c-4.4,0-4.7,0.1-4.7,1.3
			c0,0.6,0.2,1,0.8,1.1c0.5,0.1,1.9,0.2,5.4,0.3c5.6,0.2,6.7,0.3,7.8,1c1.2,0.8,1.6,1.9,1.6,4.3c0,2.9-0.7,4.4-2.5,5
			c-1,0.4-3.1,0.5-8.2,0.5c-5.2,0-7.3-0.2-8.5-1c-1.2-0.7-1.5-1.7-1.5-4.1v-0.8H105.4z"/>
	</g>
	<g>
		<path class="st1" d="M139.3,35.3h-11.2l-1.4,2.9h-5.9l9-16.9h8l8.9,16.9h-5.9L139.3,35.3z M134.3,25.2h-1l-3.3,6.4h7.6L134.3,25.2
			z"/>
	</g>
	<g>
		<g>
			<path class="st0" d="M50,11.5v1.4h-5.7v0.9h5.4v1.3h-5.4v1H50v1.5h-7.9v-6.1H50z"/>
			<path class="st0" d="M54.7,11.5h5.1c1.8,0,2.1,0,2.7,0.1c0.7,0.1,1.2,0.5,1.4,1c0.2,0.4,0.2,0.8,0.2,1.8c0,1.6-0.2,2.2-0.7,2.6
				c-0.5,0.4-1.2,0.5-3.6,0.5h-5.1V11.5z M59.9,16c2,0,2.1-0.1,2.1-1.5c0-0.8-0.1-1.1-0.3-1.3c-0.2-0.2-0.5-0.3-1.8-0.3h-3v3H59.9z"
				/>
			<path class="st0" d="M71.3,11.5v6.1H69v-6.1H71.3z"/>
			<path class="st0" d="M84.4,11.5v1.6h-3.2v4.5H79v-4.5h-3.2v-1.6H84.4z"/>
		</g>
		<g>
			<path class="st0" d="M98,11.8c0.5,0.4,0.7,1,0.7,2.7c0,1.8-0.2,2.4-0.7,2.7c-0.5,0.4-1.2,0.4-4.2,0.4c-3,0-3.7-0.1-4.2-0.4
				c-0.6-0.4-0.7-1-0.7-2.8c0-1.7,0.2-2.3,0.7-2.7c0.5-0.4,1.2-0.4,4.2-0.4S97.4,11.5,98,11.8z M91.2,13.4c-0.1,0.2-0.2,0.6-0.2,1.3
				c0,0.8,0.1,1,0.3,1.2c0.3,0.2,0.6,0.2,2.4,0.2c1.7,0,2.1,0,2.4-0.2c0.2-0.2,0.3-0.4,0.3-1.2c0-0.9-0.1-1.2-0.3-1.5
				C96,13,95.8,13,93.8,13C91.7,13,91.5,13,91.2,13.4z"/>
			<path class="st0" d="M103.6,11.5h5.2c2.5,0,2.5,0,2.9,0.2c0.5,0.3,0.7,0.7,0.7,1.7c0,0.9-0.1,1.3-0.5,1.5
				c-0.2,0.1-0.4,0.2-0.8,0.3c1.1,0.1,1.3,0.4,1.2,1.8v0.6h-2.1v-0.3c0-0.7,0-0.9-0.2-1.1c-0.1-0.1-0.3-0.2-1.2-0.2h-3.1v1.5h-2.2
				V11.5z M108.8,14.5c1.1,0,1.1,0,1.2-0.1c0.2-0.1,0.2-0.3,0.2-0.7c0-0.4-0.1-0.6-0.3-0.7c-0.1-0.1-0.2-0.1-1.2-0.1h-3v1.5H108.8z"
				/>
			<path class="st0" d="M119.4,11.5v6.1h-2.3v-6.1H119.4z"/>
			<path class="st0" d="M131.6,16.6h-4.7l-0.6,1h-2.5l3.8-6.1h3.4l3.7,6.1h-2.5L131.6,16.6z M129.4,12.9H129l-1.4,2.3h3.2
				L129.4,12.9z"/>
		</g>
		<g>
			<path class="st0" d="M141.3,11.5V16h5.1v1.6H139v-6.1H141.3z"/>
		</g>
		<rect x="42.1" y="42.5" class="st0" width="106" height="2"/>
	</g>
	<g>
		<path class="st2" d="M1.2,26.3l17.1,13.3c0,0,1.5-3.2,3.3-4.5c3.3-2.5,7.3-1.6,7.3-1.6l-17.5-10c0,0-0.8-0.8-5-0.6
			C1.6,23,1.2,26.3,1.2,26.3z"/>
		<path class="st2" d="M11.2,22.5l18.1,10.4c0,0,1.2-3,2.9-4.9c1.7-1.9,4.9-4.5,4.9-4.5l-16.6-8.1c0,0-3.3-0.3-5.8,2.3
			C12.3,20.2,11.2,22.5,11.2,22.5z"/>
		<path class="st3" d="M2.1,28l-1.4,0.7l18.1,13.7c0,0,2.8-3.9,4.3-5.2c1.8-1.5,5.3-3.3,5.3-3.3s-3.5-0.6-6.2,1.7
			c-3.1,2.6-3.6,5.3-3.6,5.3L2.1,28z"/>
		<path class="st3" d="M29.8,32.9l8.2-7l-1.5-1c0,0-1.8,1.7-3.3,3.1C32.1,29.2,29.8,32.9,29.8,32.9z"/>
		<path class="st4" d="M13.9,18.6c-1.8,2.2-2.6,3.9-2.6,3.9l18.1,10.4c0,0,1.2-3,2.8-4.9L13.9,18.6z"/>
		<path class="st4" d="M7.7,22.8l18.1,10.6c0,0,0.5-0.1,1.4-0.1c0.9,0.1,1.7,0.2,1.7,0.2L11,23.3c0,0-0.8-0.3-1.6-0.3
			S7.7,22.8,7.7,22.8z"/>
	</g>
</g>
</svg>
