<?xml version="1.0" encoding="utf-8"?>
<!-- Generator: Adobe Illustrator 23.0.0, SVG Export Plug-In . SVG Version: 6.00 Build 0)  -->
<svg version="1.1" id="Capa_1" xmlns="http://www.w3.org/2000/svg" xmlns:xlink="http://www.w3.org/1999/xlink" x="0px" y="0px"
	 viewBox="0 0 104 58" style="enable-background:new 0 0 104 58;" xml:space="preserve">
<style type="text/css">
	.st0{fill:#FFFFFF;}
</style>
<g>
	<g>
		<path class="st0" d="M65.3,41.4c-0.2,1.1-0.5,2.1-0.7,3.2c-0.1,0.2-0.1,0.3-0.4,0.3c-0.7,0-0.7,0-0.5-0.7c0.3-1.4,0.6-2.8,1-4.3
			c0-0.2,0.1-0.3,0.3-0.3c0.3,0,0.7-0.1,0.9,0.1c0.2,0.1,0.1,0.5,0.2,0.8c0.1,0.8,0.2,1.6,0.3,2.4c0,0.1,0,0.1,0.1,0.2
			c0-0.1,0-0.2,0.1-0.3c0.2-1,0.4-1.9,0.7-2.9c0-0.2,0.1-0.2,0.3-0.2c0.8,0,0.8,0,0.6,0.7c-0.3,1.4-0.6,2.8-0.9,4.1
			c-0.1,0.2-0.1,0.3-0.4,0.3c-0.3,0-0.7,0.1-0.8-0.1c-0.2-0.1-0.1-0.5-0.2-0.8C65.5,43.1,65.4,42.2,65.3,41.4
			C65.3,41.4,65.3,41.4,65.3,41.4z"/>
		<path class="st0" d="M83.5,41.3c-0.2,1.1-0.5,2.1-0.7,3.2c-0.1,0.3-0.2,0.3-0.4,0.3c-0.6,0-0.6,0-0.5-0.6c0.3-1.4,0.7-2.9,1-4.3
			c0-0.2,0.1-0.3,0.3-0.3c0.3,0,0.7-0.1,0.9,0.1c0.2,0.1,0.1,0.5,0.2,0.8c0.1,0.8,0.2,1.6,0.3,2.4c0,0.1,0,0.1,0.1,0.2
			c0.2-1,0.5-2.1,0.7-3.1c0.1-0.3,0.1-0.3,0.4-0.3c0.6,0,0.6,0,0.5,0.6c-0.3,1.4-0.7,2.9-1,4.3c0,0.2-0.1,0.3-0.3,0.3
			c-0.3,0-0.7,0.1-0.9-0.1c-0.2-0.2-0.1-0.5-0.1-0.8C83.8,43.1,83.7,42.2,83.5,41.3C83.6,41.3,83.5,41.3,83.5,41.3z"/>
		<path class="st0" d="M30,42.3c0.4,0.1,0.6,0.4,0.5,0.8c-0.1,0.4-0.1,0.8-0.2,1.2c0,0.2-0.1,0.3,0.1,0.5c-0.4,0-0.7,0-1,0
			c-0.2,0-0.2-0.1-0.2-0.2c0-0.4,0.1-0.7,0.2-1.1c0.2-0.7-0.1-1-0.9-0.8c-0.2,0-0.2,0.1-0.2,0.2c-0.1,0.6-0.3,1.1-0.4,1.7
			c0,0.2-0.1,0.3-0.3,0.3c-0.8,0-0.8,0-0.6-0.8c0.3-1.4,0.6-2.8,0.9-4.1c0-0.2,0.1-0.3,0.3-0.3c0.6,0,1.1,0,1.7,0
			c0.5,0,0.9,0.1,1,0.6c0.1,0.5,0,1.1-0.4,1.6C30.5,42.1,30.2,42.2,30,42.3z M28.7,41.2c0,0.2-0.1,0.4-0.1,0.6
			c0,0.1-0.1,0.2,0.1,0.2c0.6,0.2,1.3-0.3,1.3-0.9c0-0.4-0.2-0.6-0.9-0.5c-0.4,0-0.2,0.4-0.3,0.6C28.7,41.1,28.8,41.1,28.7,41.2z"/>
		<path class="st0" d="M97,44.9c-0.3,0-0.7,0-1,0c-0.2,0-0.2-0.2-0.2-0.3c0.1-0.4,0.1-0.8,0.2-1.2c0.1-0.6-0.4-0.9-0.9-0.7
			C95,42.7,95,42.8,95,42.9c-0.1,0.6-0.3,1.1-0.4,1.7c0,0.2-0.1,0.3-0.3,0.3c-0.8,0-0.8,0-0.6-0.8c0.3-1.4,0.6-2.8,0.9-4.1
			c0.1-0.2,0.1-0.3,0.3-0.3c0.6,0,1.1,0,1.7,0c0.5,0,0.9,0.1,1.1,0.6c0.1,0.5,0,1.1-0.4,1.6c-0.2,0.2-0.4,0.3-0.7,0.4
			c0.6,0.1,0.6,0.5,0.5,1c-0.1,0.3-0.1,0.7-0.2,1C96.9,44.5,96.9,44.7,97,44.9z M95.3,41.2c0,0.2-0.1,0.4-0.1,0.6
			c0,0.1-0.1,0.1,0,0.2c0.6,0.2,1.2-0.2,1.3-0.9c0.1-0.5-0.2-0.7-0.9-0.6c-0.4,0-0.2,0.4-0.3,0.6C95.4,41.1,95.4,41.1,95.3,41.2z"/>
		<path class="st0" d="M41.1,42.2c0.2-0.8,0.4-1.5,0.5-2.3c0-0.2,0.1-0.3,0.3-0.2c0.5,0,1,0,1.5,0c1,0,1.4,0.4,1.3,1.4
			c-0.1,0.8-0.3,1.7-0.6,2.5c-0.4,0.8-1,1.3-1.8,1.3c-0.5,0-1,0-1.5,0c-0.2,0-0.2-0.1-0.2-0.3C40.8,43.8,41,43,41.1,42.2z
			 M42.2,42.3c-0.1,0.5-0.2,1.1-0.4,1.6c0,0.1-0.1,0.2,0.1,0.2c0.5,0.2,1.1-0.1,1.3-0.7c0.3-0.7,0.4-1.4,0.5-2.1
			c0.1-0.7-0.1-0.9-0.9-0.9c-0.2,0-0.2,0-0.3,0.2C42.4,41.2,42.3,41.7,42.2,42.3z"/>
		<path class="st0" d="M19,42.3c0.2-0.8,0.4-1.6,0.5-2.3c0-0.2,0.1-0.3,0.3-0.3c0.8,0,0.8,0,0.6,0.8c-0.1,0.3-0.2,0.7-0.2,1
			c0,0.1,0,0.2,0.1,0.2c0.3,0,0.5,0,0.8,0c0.2,0,0.3,0,0.3-0.3c0.1-0.5,0.2-1,0.3-1.5c0-0.2,0.1-0.3,0.3-0.2c0.3,0,0.6-0.1,0.8,0.1
			c0.1,0.1-0.1,0.5-0.1,0.8c-0.3,1.4-0.6,2.7-0.9,4.1c-0.1,0.2-0.1,0.3-0.4,0.3c-0.8,0-0.8,0-0.6-0.7c0.1-0.4,0.2-0.9,0.3-1.3
			c0-0.2,0-0.2-0.2-0.2c-0.3,0-0.5,0-0.8,0c-0.2,0-0.2,0.1-0.3,0.2c-0.1,0.6-0.3,1.2-0.4,1.8c0,0.2-0.1,0.3-0.3,0.3
			c-0.8,0-0.8,0-0.6-0.8C18.7,43.5,18.9,42.9,19,42.3z"/>
		<path class="st0" d="M14.6,41.8c-0.2,0.6-0.2,1.2-0.5,1.9c-0.3,0.7-0.8,1.2-1.6,1.2c-0.2,0-0.5,0-0.7,0c-0.7,0-1-0.5-1-1.2
			c0-0.2,0.1-0.5,0.1-0.7c0.2-0.9,0.4-1.7,0.6-2.6c0.2-0.9,0.2-0.9,1.1-0.8c0.2,0,0.1,0.2,0.1,0.3c-0.2,1-0.5,2.1-0.7,3.1
			c0,0.2-0.1,0.4-0.1,0.6c0,0.3,0.2,0.5,0.5,0.5c0.3,0,0.5-0.2,0.7-0.5c0.1-0.2,0.1-0.4,0.2-0.6c0.2-1.1,0.5-2.1,0.7-3.2
			c0-0.2,0.1-0.3,0.3-0.3c0.8,0,0.8,0,0.6,0.8C14.8,40.9,14.7,41.3,14.6,41.8z"/>
		<path class="st0" d="M23.1,42.2c0.1-0.5,0.2-1,0.5-1.5c0.4-0.7,0.8-1,1.5-1.1c0.3,0,0.5,0,0.8,0c0.6,0.1,0.9,0.5,0.9,1.2
			c0,1-0.2,2-0.7,3c-0.3,0.8-0.9,1.1-1.7,1.2c-0.2,0-0.5,0-0.7,0c-0.6-0.1-0.9-0.5-0.9-1.3C22.9,43.2,23,42.7,23.1,42.2z M25.6,42.3
			c0.1-0.5,0.2-1,0.2-1.4c0-0.4-0.2-0.5-0.5-0.5c-0.3,0-0.5,0.2-0.7,0.5c-0.1,0.3-0.2,0.6-0.3,0.8C24.1,42.4,24,43,24,43.6
			c0,0.4,0.2,0.6,0.6,0.5c0.3,0,0.6-0.2,0.7-0.6C25.4,43.1,25.5,42.7,25.6,42.3z"/>
		<path class="st0" d="M70.5,44.4C70,45,69.4,45,68.9,44.9c-0.5-0.1-0.7-0.6-0.7-1.1c0-1,0.2-2,0.7-2.9c0.5-1.2,2-1.7,2.9-1
			c0.4,0.3,0.4,0.8,0.3,1.3c0,0.1-0.1,0.1-0.2,0.1c-0.1,0-0.2,0-0.3,0c-0.3,0-0.6,0-0.5-0.4c0-0.3-0.1-0.5-0.4-0.5
			c-0.3,0-0.5,0.2-0.6,0.5c-0.1,0.2-0.3,0.5-0.3,0.8c-0.2,0.7-0.4,1.3-0.4,2c0,0.5,0.2,0.7,0.5,0.6c0.3,0,0.6-0.4,0.8-0.8
			c0-0.1,0-0.1,0-0.2c0.1-0.4,0.1-0.4-0.3-0.4c-0.2,0-0.3-0.1-0.2-0.3c0.1-0.5,0.1-0.5,0.6-0.5c0.3,0,0.6,0,0.9,0
			c0.2,0,0.3,0,0.2,0.3c-0.2,0.8-0.4,1.5-0.5,2.3c0,0.2-0.1,0.3-0.3,0.3c0,0-0.1,0-0.1,0C70.6,44.9,70.4,44.8,70.5,44.4z"/>
		<path class="st0" d="M55.3,44.9c-0.2,0-0.5,0-0.7-0.1C54,44.7,53.7,44,54,43.4c0-0.1,0.1-0.1,0.2-0.1c0.1,0,0.2,0,0.3,0
			c0.2,0,0.4,0,0.5,0c0.1,0.1,0,0.3,0,0.5c0,0.3,0.2,0.4,0.4,0.4c0.3,0,0.6,0,0.8-0.3c0.2-0.3,0.2-0.6,0-0.8
			c-0.1-0.1-0.3-0.2-0.5-0.3c-0.2-0.1-0.3-0.1-0.5-0.2c-0.8-0.4-0.9-1-0.5-1.9c0.3-0.7,1-1.1,1.8-1.1c0.2,0,0.5,0,0.7,0.1
			c0.3,0.1,0.5,0.3,0.6,0.6c0.1,0.2,0.1,0.6-0.1,0.7c-0.2,0.2-0.6,0.1-0.9,0.1c-0.1,0-0.1-0.1-0.1-0.2c0-0.4-0.1-0.5-0.4-0.6
			c-0.3,0-0.6,0.1-0.7,0.4c-0.2,0.3-0.2,0.7,0.1,0.8c0.3,0.2,0.7,0.4,1.1,0.6c0.5,0.3,0.7,0.7,0.5,1.4c-0.2,0.9-0.8,1.4-1.7,1.5
			C55.5,44.9,55.4,44.9,55.3,44.9z"/>
		<path class="st0" d="M9.3,39.7c0.6,0,0.6,0,0.7,0.6c0.1,1.4,0.1,2.9,0.2,4.3c0,0.2-0.1,0.2-0.2,0.2c-0.3,0-0.6,0.1-0.8-0.1
			c-0.2-0.1,0-0.5,0-0.8c0-0.2-0.1-0.3-0.3-0.3c-0.3,0-0.6,0-0.9,0c-0.2,0-0.3,0.1-0.3,0.2c0,0,0,0,0,0.1c-0.4,0.8-0.4,0.8-1.2,0.8
			c-0.2,0-0.2,0-0.1-0.2C7,43,7.8,41.4,8.5,39.8c0.1-0.1,0.1-0.2,0.3-0.2C9,39.7,9.1,39.7,9.3,39.7z M9.1,40.7
			C9.1,40.7,9,40.7,9.1,40.7c-0.3,0.5-0.5,1-0.7,1.5c-0.1,0.2-0.3,0.5-0.3,0.7c0.1,0.1,0.5,0,0.7,0c0.2,0,0.3-0.1,0.3-0.3
			C9.1,42,9.1,41.3,9.1,40.7z"/>
		<path class="st0" d="M90.4,42.3c0.2-0.8,0.4-1.5,0.5-2.3c0-0.2,0.1-0.3,0.3-0.3c0.8,0,1.6,0,2.4,0c0.2,0,0.2,0.1,0.2,0.2
			c-0.1,0.6-0.1,0.6-0.7,0.6c-0.3,0-0.7,0-1,0c-0.2,0-0.3,0-0.3,0.2c0,0.3-0.1,0.5-0.2,0.8c0,0.2,0,0.2,0.2,0.2c0.4,0,0.9,0,1.3,0
			c0.2,0,0.2,0,0.2,0.2c-0.1,0.6-0.1,0.6-0.8,0.6c-0.3,0-0.6,0-0.9,0c-0.2,0-0.2,0-0.3,0.2c-0.1,0.3-0.1,0.6-0.2,1
			C91,44,91.1,44,91.3,44c0.5,0,1,0,1.4,0c0.2,0,0.3,0,0.2,0.2c-0.1,0.6-0.1,0.6-0.8,0.6c-0.7,0-1.4,0-2.1,0c-0.2,0-0.3-0.1-0.2-0.3
			C90,43.8,90.2,43,90.4,42.3z"/>
		<path class="st0" d="M78.7,42.2c0.2-0.8,0.4-1.6,0.5-2.3c0-0.2,0.1-0.2,0.3-0.2c0.8,0,1.6,0,2.4,0c0.2,0,0.2,0,0.2,0.2
			c-0.1,0.6-0.1,0.6-0.8,0.6c-0.3,0-0.7,0-1,0c-0.2,0-0.2,0-0.3,0.2C80,41,80,41.3,79.9,41.6c0,0.2,0,0.2,0.2,0.2c0.4,0,0.9,0,1.3,0
			c0.2,0,0.2,0,0.2,0.2c-0.1,0.6-0.1,0.6-0.7,0.6c-0.3,0-0.6,0-0.9,0c-0.1,0-0.2,0.1-0.2,0.2c-0.1,0.3-0.1,0.7-0.2,1
			c0,0.2,0,0.2,0.2,0.2c0.5,0,1,0,1.5,0c0.2,0,0.2,0,0.2,0.2c-0.1,0.6-0.1,0.6-0.8,0.6c-0.7,0-1.4,0-2.1,0c-0.2,0-0.3,0-0.2-0.3
			C78.3,43.8,78.5,43,78.7,42.2z"/>
		<path class="st0" d="M50.8,42.3c0.2-0.8,0.4-1.5,0.5-2.3c0-0.2,0.1-0.3,0.4-0.3c0.8,0,1.5,0,2.3,0c0.2,0,0.3,0,0.2,0.3
			c-0.1,0.6-0.1,0.6-0.7,0.6c-0.3,0-0.7,0-1,0c-0.2,0-0.3,0-0.3,0.2c0,0.3-0.3,0.7-0.2,0.9c0.1,0.2,0.6,0,0.9,0.1c0.1,0,0.1,0,0.2,0
			c0.6,0,0.7,0.1,0.4,0.7c-0.1,0.2-0.1,0.1-0.2,0.1c-0.4,0-0.9,0-1.3,0c-0.2,0-0.3,0.1-0.3,0.2c-0.1,0.3-0.1,0.6-0.2,0.9
			c0,0.2,0,0.2,0.2,0.2c0.5,0,1,0,1.5,0c0.2,0,0.2,0,0.2,0.2c-0.1,0.6-0.1,0.6-0.7,0.6c-0.7,0-1.4,0-2.1,0c-0.2,0-0.2-0.1-0.2-0.3
			C50.4,43.8,50.6,43,50.8,42.3z"/>
		<path class="st0" d="M37.4,42.3c0.2-0.8,0.4-1.6,0.5-2.3c0-0.2,0.1-0.3,0.3-0.3c0.8,0,1.6,0,2.4,0c0.2,0,0.2,0,0.2,0.2
			c-0.1,0.6-0.1,0.6-0.7,0.6c-0.3,0-0.7,0-1,0c-0.2,0-0.2,0-0.3,0.2c-0.1,0.3-0.1,0.5-0.2,0.8c0,0.2,0,0.2,0.2,0.2
			c0.4,0,0.9,0,1.3,0c0.2,0,0.2,0,0.2,0.2c-0.1,0.6-0.1,0.6-0.8,0.6c-0.3,0-0.6,0-0.9,0c-0.2,0-0.2,0.1-0.3,0.2
			c-0.1,0.3-0.1,0.6-0.2,1c0,0.2,0,0.2,0.2,0.2c0.5,0,1,0,1.5,0c0.2,0,0.2,0.1,0.2,0.2c-0.1,0.6-0.1,0.6-0.7,0.6c-0.7,0-1.4,0-2,0
			c-0.3,0-0.3-0.1-0.2-0.3C37.1,43.8,37.2,43,37.4,42.3z"/>
		<path class="st0" d="M75.5,42.3c-0.1,0.4-0.2,0.8-0.2,1.2c0,0.1,0,0.3,0,0.4c0,0.2,0.2,0.3,0.4,0.3c0.2,0,0.4-0.1,0.6-0.3
			c0.1-0.2,0.2-0.3,0.3-0.5c0.2-0.5,0.2-0.5,0.7-0.5c0.5,0,0.5,0,0.4,0.5c-0.4,1.4-2,2-3,1.3c-0.3-0.2-0.4-0.5-0.4-0.9
			c0-1,0.2-2,0.7-3c0.4-0.9,1.1-1.3,2.1-1.3c0.6,0,1,0.3,1.1,0.8c0,0.3,0,0.6,0,0.8c0,0.1-0.1,0.2-0.2,0.2c-0.1,0-0.2,0-0.2,0
			c-0.2,0-0.4,0.1-0.6,0c-0.1-0.1,0-0.4,0-0.5c0-0.3-0.1-0.5-0.4-0.5c-0.3,0-0.5,0.1-0.7,0.4c0,0.1-0.1,0.2-0.1,0.2
			C75.7,41.4,75.6,41.9,75.5,42.3z"/>
		<path class="st0" d="M34.3,44c0.6,0,1.2,0,1.7,0c0.2,0,0.2,0,0.2,0.2c-0.1,0.6-0.1,0.6-0.7,0.6c-0.8,0-1.5,0-2.3,0
			c-0.2,0-0.2-0.1-0.2-0.2c0.1-0.3,0.2-0.6,0.4-0.9c0.8-1,1.5-1.9,2.2-2.9c0.2-0.2,0.2-0.3-0.1-0.3c-0.4,0-0.9,0-1.3,0
			c-0.2,0-0.2,0-0.2-0.2c0.1-0.6,0.1-0.6,0.7-0.6c0.7,0,1.4,0,2.1,0c0.2,0,0.2,0,0.2,0.2c-0.1,0.4-0.2,0.7-0.5,1
			C35.9,41.9,35.1,43,34.3,44z"/>
		<path class="st0" d="M87.5,42.7c0.1-0.6,0.3-1.3,0.4-1.9c0-0.2,0-0.2-0.2-0.2c-0.2,0-0.5,0-0.7,0c-0.1,0-0.2,0-0.1-0.2
			c0.1-0.7,0.1-0.7,0.8-0.7c0.8,0,1.6,0,2.4,0c0.2,0,0.2,0,0.2,0.2c-0.1,0.6-0.1,0.6-0.7,0.6c-0.5,0-0.5,0-0.7,0.5
			c-0.3,1.2-0.5,2.3-0.8,3.5c0,0.2-0.1,0.3-0.3,0.3c-0.8,0-0.8,0-0.6-0.8C87.3,43.6,87.4,43.2,87.5,42.7z"/>
		<path class="st0" d="M17.1,42.7c-0.1,0.6-0.3,1.3-0.4,1.9c0,0.2-0.1,0.2-0.3,0.2c-0.8,0-0.8,0-0.6-0.8c0.2-1.1,0.5-2.2,0.7-3.3
			c0-0.2,0-0.3-0.2-0.3c-0.1,0-0.2,0-0.3,0c-0.7,0-0.7,0-0.4-0.7c0-0.1,0.1-0.1,0.2-0.1c1,0,2,0,3,0c0.1,0,0.2,0,0.1,0.2
			c-0.1,0.7-0.1,0.7-0.8,0.7c-0.5,0-0.5,0-0.6,0.5C17.4,41.6,17.3,42.1,17.1,42.7z"/>
		<path class="st0" d="M59.1,42.7c0.1-0.6,0.3-1.3,0.4-1.9c0-0.2,0-0.3-0.2-0.2c-0.1,0-0.2,0-0.4,0c-0.2,0-0.5,0.1-0.5,0
			c0-0.2,0.1-0.5,0.1-0.7c0-0.1,0.1-0.1,0.2-0.1c1,0,2,0,3,0c0.1,0,0.2,0.1,0.1,0.2c0,0.2-0.1,0.3-0.1,0.5c0,0.1-0.1,0.2-0.2,0.2
			c-0.2,0-0.5,0-0.7,0c-0.2,0-0.3,0.1-0.3,0.3c-0.3,1.2-0.6,2.5-0.8,3.7c-0.1,0.2-0.1,0.3-0.4,0.3c-0.7,0-0.7,0-0.6-0.7
			C58.9,43.6,59,43.2,59.1,42.7z"/>
		<path class="st0" d="M47.9,42.7c0.1-0.6,0.3-1.3,0.4-1.9c0-0.2,0-0.2-0.2-0.2c-0.2,0-0.4,0-0.6,0c-0.3,0-0.3-0.1-0.2-0.3
			c0.1-0.6,0.1-0.6,0.7-0.6c0.8,0,1.6,0,2.5,0c0.2,0,0.3,0,0.2,0.3c-0.1,0.6-0.1,0.6-0.7,0.6c-0.5,0-0.5,0-0.7,0.5
			c-0.3,1.2-0.5,2.4-0.8,3.5c0,0.2-0.1,0.3-0.3,0.3c-0.8,0-0.8,0-0.6-0.8C47.6,43.6,47.7,43.2,47.9,42.7z"/>
		<path class="st0" d="M31.7,42.2c0.2-0.8,0.4-1.5,0.5-2.3c0-0.2,0.1-0.3,0.4-0.3c0.8,0,0.8,0,0.6,0.8c-0.3,1.4-0.6,2.8-0.9,4.1
			c-0.1,0.2-0.1,0.3-0.4,0.3c-0.8,0-0.8,0-0.6-0.7C31.4,43.5,31.6,42.9,31.7,42.2z"/>
		<path class="st0" d="M63.1,42.3c-0.2,0.8-0.4,1.6-0.5,2.3c0,0.2-0.1,0.3-0.3,0.3c-0.8,0-0.8,0-0.6-0.8c0.3-1.4,0.6-2.7,0.9-4.1
			c0-0.2,0.1-0.3,0.3-0.3c0.2,0,0.6-0.1,0.7,0.1c0.1,0.1-0.1,0.5-0.1,0.7C63.4,41,63.3,41.6,63.1,42.3z"/>
	</g>
	<path class="st0" d="M73.8,30.1c-1,0-1.9-0.1-2.8-0.6c-1.3-0.7-2-1.8-2.1-3.2c-0.3-3.1,2-4.7,4.3-5c1-0.1,1.9-0.1,2.9,0.2
		c1.8,0.5,2.9,1.6,3.2,3.5c0.3,1.7-0.5,3.4-2,4.3C76.3,29.8,75.1,30.1,73.8,30.1z M70.9,25.6c0,2.1,1.2,3.3,3.2,3.3
		c1.9,0,3.3-1.3,3.2-3.2c0-2-1.2-3.3-3.2-3.3C72.2,22.4,70.8,23.7,70.9,25.6z"/>
	<path class="st0" d="M30.4,26c1.3,1.5,2.5,3.1,4.5,3.8c0.1,0,0.2,0.1,0.2,0.2c0,0.1-0.2,0.1-0.3,0.2c-1.5,0.2-2.8-0.2-3.9-1.2
		c-0.9-0.8-1.7-1.8-2.5-2.7c-0.4-0.5-0.2-0.9,0.4-1c0.6-0.1,1.1-0.4,1.5-0.8c0.5-0.5,0.4-1.2-0.2-1.5c-0.4-0.2-0.8-0.3-1.2-0.3
		c-0.3,0-0.7,0-1,0c-0.4,0-0.5,0.1-0.5,0.4c0,2.2,0,4.3,0,6.5c0,0.4-0.1,0.5-0.5,0.5c-0.4,0-0.8,0-1.1,0c-0.2,0-0.3-0.1-0.3-0.3
		c0-2.7,0-5.4,0-8.1c0-0.2,0-0.3,0.2-0.3c1.4,0,2.7-0.1,4.1,0.1c0.6,0.1,1.1,0.2,1.6,0.5c1.1,0.7,1.3,2,0.4,3
		C31.6,25.4,31,25.7,30.4,26z"/>
	<path class="st0" d="M83.5,25.6c0-1.3,0-2.6,0-3.9c0-0.3,0.1-0.4,0.4-0.4c1.3,0,2.6-0.1,4,0.1c0.6,0.1,1.1,0.2,1.6,0.5
		c1.2,0.7,1.4,2,0.4,3c-0.4,0.4-0.8,0.7-1.4,0.9c-0.2,0.1-0.2,0.1-0.1,0.3c0.9,1.2,1.9,2.2,3.1,3.1c0.3,0.2,0.7,0.4,1.2,0.5
		c0.1,0,0.3,0.1,0.3,0.2c0,0.2-0.2,0.2-0.3,0.2c-1.4,0.1-2.7-0.2-3.8-1.2c-1-0.8-1.8-1.8-2.6-2.8c-0.4-0.5-0.2-0.8,0.3-0.9
		c0.5-0.1,1-0.4,1.4-0.7c0.7-0.6,0.5-1.4-0.3-1.8c-0.6-0.3-1.1-0.2-1.7-0.2c-0.7,0-0.7,0-0.7,0.7c0,2.1,0,4.2,0,6.3
		c0,0.3,0,0.4-0.3,0.4c-0.4,0-0.8,0-1.2,0c-0.3,0-0.3-0.1-0.3-0.3C83.5,28.3,83.5,26.9,83.5,25.6z"/>
	<path class="st0" d="M14,25.6c0-1.3,0-2.6,0-4c0-0.2,0.1-0.3,0.3-0.3c1.8,0,3.5,0,5.3,0c0.2,0,0.3,0.1,0.3,0.3c0,0.9,0,0.9-0.9,0.9
		c-1,0-2,0-2.9-0.1c-0.2,0-0.3,0.1-0.3,0.3c0,0.7,0,1.4,0,2.1c0,0.3,0.1,0.3,0.3,0.3c1.1,0,2.2-0.1,3.2-0.1c0.3,0,0.3,0,0.3,0.3
		c0,0.8,0,0.8-0.9,0.8c-0.9,0-1.8,0-2.7-0.1c-0.2,0-0.3,0-0.3,0.3c0,0.7,0,1.5,0,2.2c0,0.2,0.1,0.3,0.3,0.3c1.1,0,2.3-0.1,3.4-0.1
		c0.3,0,0.4,0.1,0.4,0.4c0,0.9,0,0.9-0.9,0.9c-1.6,0-3.1,0-4.7,0c-0.3,0-0.4-0.1-0.4-0.4C14,28.2,14,26.9,14,25.6z"/>
	<path class="st0" d="M58.5,25.6c0-1.3,0-2.6,0-3.9c0-0.3,0.1-0.4,0.4-0.4c1.3,0,2.6-0.1,4,0.1c0.6,0.1,1.2,0.2,1.7,0.6
		c1,0.7,1.2,1.9,0.4,2.8c-0.9,1-2,1.4-3.3,1.4c-0.3,0-0.5-0.1-0.5-0.4c0-0.3,0.1-0.4,0.4-0.5c0.5-0.1,1-0.3,1.5-0.7
		c0.7-0.6,0.6-1.5-0.3-1.8c-0.7-0.3-1.5-0.2-2.3-0.2c-0.3,0-0.2,0.2-0.2,0.3c0,2.2,0,4.4,0,6.5c0,0.6,0.1,0.5-0.5,0.5
		c-0.3,0-0.6,0-0.9,0c-0.3,0-0.4-0.1-0.4-0.4C58.5,28.2,58.5,26.9,58.5,25.6z"/>
	<path class="st0" d="M6,30c-1.1,0-2-0.1-3-0.5c-1.4-0.6-2.1-1.8-2.2-3.3c-0.2-2.7,1.5-4.4,4-4.9c1.2-0.2,2.4-0.1,3.6,0.1
		c0.2,0,0.3,0.1,0.3,0.3c-0.1,0.3,0,0.7-0.2,0.9c-0.2,0.3-0.6,0-0.9-0.1c-0.9-0.1-1.9-0.2-2.8,0.1c-1.4,0.4-2.2,1.6-2.1,3.3
		c0.1,1.4,1,2.3,2.4,2.6c1.1,0.2,2.1,0.1,3.2-0.2c0.2-0.1,0.4-0.1,0.4,0.2c0,0.2,0,0.5,0.1,0.7c0.1,0.3-0.1,0.3-0.3,0.4
		C7.6,29.9,6.8,30,6,30z"/>
	<path class="st0" d="M41,21.3c1.2,0,2.4,0,3.6,0c0.2,0,0.3,0.1,0.3,0.3c0,1,0,1-0.9,1c-0.6,0-1.3,0-1.9,0c-0.3,0-0.3,0.1-0.3,0.4
		c0.1,2.2,0.1,4.4,0.1,6.6c0,0.4-0.1,0.4-0.4,0.4c-0.4,0-0.7,0-1.1,0c-0.3,0-0.4-0.1-0.4-0.4c0-1.6,0.1-3.2,0.1-4.9
		c0-0.6,0-1.2,0-1.8c0-0.2-0.1-0.3-0.3-0.3c-0.8,0-1.7,0-2.5,0c-0.3,0-0.3-0.1-0.3-0.3c0-0.9,0-0.9,0.9-0.9C39,21.3,40,21.3,41,21.3
		z"/>
	<path class="st0" d="M99,21.3c1.2,0,2.4,0,3.6,0c0.3,0,0.4,0,0.4,0.3c0,0.9,0,0.9-0.9,0.9c-0.6,0-1.1,0-1.7,0
		c-0.6,0-0.5-0.1-0.5,0.5c0,2.1,0.1,4.3,0.1,6.4c0,0.3-0.1,0.4-0.4,0.4c-0.3,0-0.7,0-1,0c-0.4,0-0.5-0.1-0.5-0.5
		c0.1-2.2,0.1-4.3,0.1-6.5c0-0.3-0.1-0.4-0.4-0.4c-0.8,0-1.6,0-2.4,0c-0.2,0-0.3-0.1-0.3-0.3c0-1,0-1,0.9-1C97,21.3,98,21.3,99,21.3
		z"/>
	<path class="st0" d="M50.6,19.7c-0.2,0-0.5-0.1-0.7-0.2c-1.6-1.1-3.1-2.2-4.7-3.3c-0.1-0.1-0.3-0.2-0.4-0.3
		c-0.1-0.1-0.2-0.2-0.1-0.4c0.1-0.1,0.2-0.2,0.4-0.1c0.3,0.1,0.5,0.3,0.8,0.4c1.4,0.7,2.8,1.4,4.2,2.1c0.3,0.2,0.6,0.2,1,0
		c1.7-0.9,3.5-1.7,5.2-2.6c0.1-0.1,0.3-0.1,0.4-0.2c0.1,0,0.3-0.1,0.4,0.1c0.1,0.2,0,0.3-0.1,0.4c-0.1,0.2-0.3,0.3-0.5,0.4
		c-1.8,1.1-3.6,2.3-5.3,3.4C51.1,19.6,50.8,19.7,50.6,19.7z"/>
	<path class="st0" d="M51.4,25.8c-0.1,1.6-0.1,3.2-0.2,4.8c0,0.3-0.1,0.4-0.4,0.4c-0.7,0-0.7,0-0.8-0.7c-0.1-3-0.2-6.1-0.4-9.1
		c0-0.1,0-0.2,0-0.3c0-0.2,0.1-0.3,0.3-0.2c0.4,0.1,0.8,0.1,1.3,0c0.3-0.1,0.4,0,0.3,0.3c0,1-0.1,2.1-0.1,3.1
		C51.5,24.7,51.5,25.2,51.4,25.8C51.4,25.8,51.4,25.8,51.4,25.8z"/>
	<path class="st0" d="M51.7,15.8c0,0.6-0.4,1-1,1c-0.6,0-1.1-0.4-1.1-1c0-0.6,0.5-1.1,1-1C51.3,14.7,51.7,15.2,51.7,15.8z"/>
	<path class="st0" d="M102.9,34.1C102.9,34.1,102.9,34.1,102.9,34.1C103,34.1,103,34.1,102.9,34.1z"/>
	<path class="st0" d="M51.3,27.4c0-0.1,2.3-4.3,4.6-6.7c3.1-3.2,5.4-4.2,6.6-4.5c1.2-0.4,0,0.4,0,0.4s-3.8,2.3-5.9,4.9
		c-2.2,2.7-5.3,9.4-5.3,9.4C51.1,30.9,51.3,27.4,51.3,27.4z"/>
	<rect x="1.3" y="33.9" class="st0" width="101.6" height="0.3"/>
</g>
</svg>
