<?xml version="1.0" encoding="utf-8"?>
<!-- Generator: Adobe Illustrator 22.1.0, SVG Export Plug-In . SVG Version: 6.00 Build 0)  -->
<svg version="1.1" id="Capa_1" xmlns="http://www.w3.org/2000/svg" xmlns:xlink="http://www.w3.org/1999/xlink" x="0px" y="0px"
	 viewBox="0 0 286 181.8" style="enable-background:new 0 0 286 181.8;" xml:space="preserve">
<style type="text/css">
	.st0{fill-rule:evenodd;clip-rule:evenodd;fill:#82796B;}
	.st1{fill-rule:evenodd;clip-rule:evenodd;fill:#A21619;}
</style>
<g>
	<path class="st0" d="M131,47.9h8.3l0,34.7v6.3H131h-24.2l0-6.3H131L131,47.9L131,47.9z M101,70.7l16.1,0l0-16.4l-16.1,0V70.7
		L101,70.7z M125.2,77.1V47.9H101h-8.3v6.4l0,12.8l0,6.4l0,15.4l8.3,0l0-11.9H125.2z"/>
	<path class="st0" d="M183.7,1.7h8.3v34.7v6.3h-8.3l-24.2,0l0-6.3h24.2L183.7,1.7L183.7,1.7z M153.7,24.5h16.1l0-16.4l-16.1,0
		L153.7,24.5L153.7,24.5z M178,30.9l0-29.2h-24.3h-8.3l0,6.4l0,12.8l0,6.4l0,15.4l8.3,0V30.9H178z"/>
	<path class="st1" d="M183.7,47.9l8.3,0v34.7v6.3h-8.3h-24.2v-6.3h24.2L183.7,47.9L183.7,47.9z M153.7,70.7h16.1l0-16.4l-16.1,0
		L153.7,70.7L153.7,70.7z M178,77.1V47.9h-24.3h-8.3v6.4l0,12.8v6.4l0,15.4h8.3V77.1L178,77.1z"/>
	<path class="st1" d="M131,1.7h8.3v34.7v6.3l-8.3,0h-24.2v-6.3H131L131,1.7L131,1.7z M101,24.5l16.1,0l0-16.4H101L101,24.5L101,24.5
		z M125.2,30.9V1.7H101l-8.3,0l0,6.4l0,12.8v6.4v15.4h8.3l0-11.8H125.2z"/>
	<path class="st0" d="M9.6,122.2c0.6,0.1,1.5,0.3,2.3,0.3c4.7,0,7.7-3,7.7-7.1c0-3.2-1.3-6.3-7-6.3c-1,0-1.9,0-3,0.2V122.2
		L9.6,122.2z M9.6,130.1c0,2.3,0.7,3.1,3.4,3.1h1.4v0.8H2.5v-0.8h0.6c2.2,0,2.9-0.5,2.9-2.4v-19.3c0-1.5-0.5-2.2-2-2.2H1.8v-0.8
		c1.2,0,3.3-0.2,5.4-0.2c2.1-0.1,4.2-0.1,5.3-0.1c9,0,11,4.1,11,7.2c0,4.8-4,7.8-10.4,7.8c-1.3,0-2.4-0.1-3.6-0.3V130.1z"/>
	<path class="st0" d="M37.3,113.7c-6.1,0-8.6,5.4-8.6,9.4c0,6.2,4.4,10.6,10,10.6c5.7,0,8.4-4.8,8.4-9.5
		C47.1,118.1,43,113.7,37.3,113.7L37.3,113.7z M38,134.6c-6.8,0-12.6-4.2-12.6-10.4c0-6.6,5.3-11.3,12.7-11.3
		c6.6,0,12.2,4.3,12.2,10.3C50.4,129.9,44.8,134.6,38,134.6z"/>
	<path class="st0" d="M57.8,131.6c0,1.4,0.1,1.8,2.9,1.8c4.7,0,6.6-0.6,8.8-2.7c1.3-1.2,2.9-3.7,2.9-7.2c0-2.4-0.7-5.2-2.8-7.1
		c-1.6-1.5-4.1-2.7-9-2.7c-1.4,0-2.4,0.1-2.8,0.1V131.6L57.8,131.6z M54.9,116.7c0-2.1-0.6-2.7-2.7-2.7h-0.7v-0.6
		c1.3-0.1,3-0.1,4.9-0.2c1.9-0.1,4-0.1,5.8-0.1c9.2,0,13.3,4.5,13.3,9.9c0,5-4.1,11-12.9,11H51.6v-0.6h0.6c1.9,0,2.8-0.5,2.8-2.4
		V116.7z"/>
	<path class="st0" d="M92.4,126.6h-0.7c-0.3-2.4-0.9-2.6-2.4-2.6h-5.9v7.1c0,1.5,0.6,1.8,1.9,1.8h5.4c2.4,0,3.2-0.9,4-3.7h0.6
		l-0.6,4.9H76.4v-0.6h1c2.8,0,3.3-0.7,3.3-2.7v-14c0-1.9-0.5-2.7-2.8-2.7h-0.8v-0.6h16.7l0.3,4.6h-0.6c-0.5-2.8-1.3-3.4-2.6-3.4
		h-7.3v8.2h6.2c1.3,0,1.9-0.6,2-2.5h0.7V126.6z"/>
	<path class="st0" d="M102.7,124.7c0.8,0.1,1.4,0.1,2.2,0.1c3.9,0,6.4-1.6,6.4-5.5c0-3.1-1.5-5.5-6.8-5.5c-0.7,0-1.1,0-1.7,0.1
		V124.7L102.7,124.7z M102.7,130.9c0,2,0.8,2.5,2.8,2.5h0.8v0.6h-9.9v-0.6H97c2.1,0,2.8-0.5,2.8-2.8v-14c0-2.1-0.6-2.7-2.6-2.7h-0.8
		v-0.6c0.8,0,3-0.1,4.4-0.2c1.4-0.1,2.1-0.1,4.4-0.1c6.4,0,9.3,2.5,9.3,5.9c0,2.5-1.8,4.6-4.6,5.4c1.3,1,2.3,1.9,4,3.5l2.8,2.6
		c2.1,2,4.2,3.2,6.9,3.3v0.6c-6.1,0.3-7.7-1-10.8-3.9l-2.3-2.2c-1.5-1.5-2.7-2.4-3.6-2.9c-0.9,0-1.4,0.1-2.4,0.1
		c-0.8,0-1.2,0-1.8-0.1V130.9z"/>
	<path class="st0" d="M141.9,129.8c0,8.2-3.5,13.7-8.9,13.7c-2.4,0-4.2-0.9-4.2-2.2c0-0.9,0.7-1.6,1.5-1.6c1.5,0,2.6,1.9,4.4,1.9
		c2.1,0,3.5-1.5,3.5-6v-21.8c0-3.6-0.4-4.4-3.5-4.4h-0.5v-0.8h10.8v0.8c-2.7,0.1-3.3,0.8-3.3,3V129.8z"/>
	<path class="st0" d="M172.2,113.4v0.6c-2.3,0-3.2,0.9-3.2,3v9c0,4.1-2.8,8.5-10.3,8.5c-6.7,0-10.1-3.6-10.1-8.4v-9.7
		c0-2.1-0.6-2.5-3-2.5v-0.6h9v0.6h-0.3c-1.9,0-2.8,0.5-2.8,2.4v9.2c0,4.5,2.8,7.2,7.9,7.2c3.9,0,7.9-1.6,7.9-7.2v-7.7
		c0-3.2-0.5-3.7-3.4-3.9v-0.6H172.2z"/>
	<path class="st0" d="M178.1,131.6c0,1.4,0.1,1.8,2.9,1.8c4.7,0,6.6-0.6,8.8-2.7c1.3-1.2,2.9-3.7,2.9-7.2c0-2.4-0.7-5.2-2.8-7.1
		c-1.6-1.5-4.1-2.7-9-2.7c-1.4,0-2.4,0.1-2.8,0.1V131.6L178.1,131.6z M175.2,116.7c0-2.1-0.6-2.7-2.6-2.7h-0.7v-0.6
		c1.3-0.1,3-0.1,4.9-0.2c1.9-0.1,4-0.1,5.8-0.1c9.2,0,13.3,4.5,13.3,9.9c0,5-4.1,11-12.9,11h-11.1v-0.6h0.6c1.9,0,2.7-0.5,2.7-2.4
		V116.7z"/>
	<path class="st0" d="M206.7,134h-8.5v-0.6c2.2-0.1,2.6-0.6,2.6-2.8v-14.1c0-1.8-0.7-2.3-2.6-2.4v-0.6h8.5v0.6c-2.2,0-3,0.5-3,2.7
		v14.1c0,2,0.6,2.6,3,2.6V134z"/>
	<path class="st0" d="M229.5,118.9c-1.1-3.1-4.1-5.1-7.9-5.1c-5.8,0-9.4,4-9.4,9.6c0,6,4.5,10.4,9.8,10.4c2.8,0,6.1-0.9,8.5-4.9h0.7
		c-0.5,1.5-1.4,3.5-2.2,4.8c-2.2-0.3-3.8,0.9-7.9,0.9c-7.1,0-12.2-4.4-12.2-10.6c0-6.4,5.2-11.1,12.5-11.1c4.4,0,6.3,1.3,7.3,1.3
		c0.4,0,0.6-0.1,0.6-0.2h0.5l0.3,4.8H229.5z"/>
	<path class="st0" d="M241.2,134h-8.5v-0.6c2.2-0.1,2.6-0.6,2.6-2.8v-14.1c0-1.8-0.7-2.3-2.6-2.4v-0.6h8.5v0.6c-2.2,0-3,0.5-3,2.7
		v14.1c0,2,0.6,2.6,3,2.6V134z"/>
	<path class="st0" d="M252.6,115.7l-3,7.7h6L252.6,115.7L252.6,115.7z M249.1,124.9l-2,5.2c-0.2,0.6-0.7,1.6-0.7,2.1
		c0,0.9,0.9,1.2,2.8,1.2h0.6v0.6h-8v-0.6c2.3,0,2.7-0.4,3.8-3.3l6.3-16.5l-0.3-0.7h3l7.3,18.4c0.7,1.8,1.4,2.1,3.2,2.1v0.6h-9.6
		v-0.6h0.9c2,0,2.7-0.2,2.7-1.1c0-0.5-0.2-1-0.4-1.4l-2.3-6H249.1z"/>
	<path class="st0" d="M280.2,134h-15.6v-0.6h1.1c1.6,0,2.2-0.5,2.2-2.2v-14.7c0-1.8-0.6-2.5-2.8-2.5h-0.5v-0.6H275v0.6h-1.3
		c-2.3,0-2.9,0.2-2.9,2.3v15.3c0,0.9,0.4,1.2,1.4,1.2h5.1c2.1,0,2.7-0.8,4.9-3.7h0.6L280.2,134z"/>
	<path class="st0" d="M64.8,176.2c0,1.4,0.1,1.8,2.9,1.8c4.7,0,6.6-0.6,8.8-2.7c1.3-1.2,2.9-3.8,2.9-7.2c0-2.5-0.7-5.2-2.8-7.1
		c-1.6-1.5-4.1-2.7-9-2.7c-1.4,0-2.4,0.1-2.8,0.1V176.2L64.8,176.2z M61.9,161.3c0-2.2-0.6-2.7-2.6-2.7h-0.7V158
		c1.3-0.1,3-0.1,4.9-0.2c1.9-0.1,4-0.1,5.8-0.1c9.2,0,13.3,4.5,13.3,9.9c0,5-4.1,11-12.9,11H58.6V178h0.6c1.9,0,2.7-0.5,2.7-2.4
		V161.3z"/>
	<path class="st0" d="M99.5,171.2h-0.7c-0.3-2.4-0.9-2.6-2.4-2.6h-5.9v7.1c0,1.5,0.6,1.8,1.9,1.8h5.4c2.4,0,3.2-0.9,4-3.8h0.6
		l-0.6,5H83.4V178h1c2.8,0,3.3-0.7,3.3-2.7v-14c0-1.9-0.5-2.7-2.8-2.7h-0.8V158h16.7l0.3,4.6h-0.6c-0.5-2.8-1.3-3.4-2.6-3.4h-7.3
		v8.2h6.2c1.2,0,1.8-0.6,2-2.5h0.7V171.2z"/>
	<path class="st0" d="M119,178.6h-15.6V178h1.1c1.6,0,2.2-0.5,2.2-2.2v-14.7c0-1.8-0.6-2.5-2.8-2.5h-0.5V158h10.3v0.6h-1.3
		c-2.3,0-2.8,0.2-2.8,2.3v15.3c0,0.9,0.4,1.2,1.4,1.2h5.1c2,0,2.7-0.8,4.9-3.7h0.6L119,178.6z"/>
	<path class="st0" d="M140.5,166.8c0.6,0.1,1.5,0.3,2.3,0.3c4.7,0,7.7-3,7.7-7.1c0-3.2-1.3-6.3-7-6.3c-1,0-1.9,0-3,0.2V166.8
		L140.5,166.8z M140.5,174.7c0,2.3,0.7,3.1,3.4,3.1h1.4v0.8h-11.9v-0.8h0.6c2.2,0,2.9-0.5,2.9-2.4v-19.3c0-1.5-0.5-2.2-2-2.2h-2.1
		v-0.8c1.2,0,3.3-0.2,5.4-0.2c2.1-0.1,4.2-0.1,5.3-0.1c9,0,11,4.1,11,7.2c0,4.8-4,7.8-10.4,7.8c-1.3,0-2.4-0.1-3.6-0.3V174.7z"/>
	<path class="st0" d="M170.7,171.2H170c-0.3-2.4-0.9-2.6-2.4-2.6h-5.9v7.1c0,1.5,0.6,1.8,1.9,1.8h5.4c2.4,0,3.2-0.9,4-3.8h0.6
		l-0.6,5h-18.5V178h1c2.8,0,3.3-0.7,3.3-2.7v-14c0-1.9-0.5-2.7-2.8-2.7h-0.8V158h16.7l0.3,4.6h-0.6c-0.5-2.8-1.3-3.4-2.6-3.4h-7.4
		v8.2h6.2c1.3,0,1.8-0.6,2-2.5h0.7V171.2z"/>
	<path class="st0" d="M180.9,169.3c0.8,0.1,1.4,0.1,2.2,0.1c3.9,0,6.4-1.6,6.4-5.5c0-3.1-1.5-5.5-6.8-5.5c-0.7,0-1.1,0-1.7,0.1
		V169.3L180.9,169.3z M180.9,175.5c0,2,0.8,2.5,2.8,2.5h0.8v0.6h-9.9V178h0.6c2.1,0,2.8-0.5,2.8-2.8v-14c0-2.1-0.6-2.7-2.6-2.7h-0.8
		V158c0.8,0,3-0.1,4.4-0.2c1.4-0.1,2.1-0.1,4.4-0.1c6.5,0,9.3,2.5,9.3,5.9c0,2.5-1.8,4.6-4.6,5.4c1.3,1,2.3,1.9,4,3.5l2.8,2.6
		c2.1,2,4.2,3.2,6.9,3.4v0.6c-6.1,0.3-7.7-1-10.8-3.9l-2.3-2.2c-1.5-1.5-2.8-2.4-3.6-2.9c-0.9,0-1.4,0.1-2.4,0.1
		c-0.8,0-1.2,0-1.8-0.1V175.5z"/>
	<path class="st0" d="M207,155.4l3.2-4.2c0.7-0.9,1.5-1.5,2.2-1.5c0.6,0,1.1,0.4,1.1,1c0,0.6-0.7,1.3-2.4,2.4l-3.7,2.4H207
		L207,155.4z M223.7,158v0.6c-2.3,0-3.2,0.9-3.2,3v9c0,4.1-2.8,8.5-10.3,8.5c-6.6,0-10.1-3.6-10.1-8.4v-9.7c0-2.1-0.6-2.5-3-2.5V158
		h8.9v0.6h-0.3c-1.9,0-2.8,0.5-2.8,2.4v9.2c0,4.5,2.8,7.2,7.9,7.2c3.9,0,7.9-1.6,7.9-7.2v-7.7c0-3.2-0.5-3.8-3.4-3.9V158H223.7z"/>
</g>
</svg>
