<?xml version="1.0" encoding="utf-8"?>
<!-- Generator: Adobe Illustrator 22.1.0, SVG Export Plug-In . SVG Version: 6.00 Build 0)  -->
<svg version="1.1" id="Capa_1" xmlns="http://www.w3.org/2000/svg" xmlns:xlink="http://www.w3.org/1999/xlink" x="0px" y="0px"
	 viewBox="0 0 600 605" style="enable-background:new 0 0 600 605;" xml:space="preserve">
<style type="text/css">
	.st0{fill:#FFFFFF;}
	.st1{fill:#62B984;}
</style>
<g>
	<path class="st0" d="M483.5,201.3h-367c-14.2,0-25.8,11.6-25.8,25.8v78.6c0,14.2,11.6,25.8,25.8,25.8h229.4c3.4,0,6.1-2.8,6.1-6.1
		c0-3.4-2.8-6.1-6.1-6.1H116.5c-7.5,0-13.5-6.1-13.5-13.5v-78.6c0-7.5,6.1-13.5,13.5-13.5h367c7.5,0,13.5,6.1,13.5,13.5v59
		c0,3.4,2.8,6.1,6.1,6.1c3.4,0,6.1-2.8,6.1-6.1v-59C509.3,212.9,497.7,201.3,483.5,201.3L483.5,201.3z M483.5,201.3"/>
	<path class="st1" d="M483.1,300.6v-8c0-28.7-23.3-52-52-52c-28.7,0-52,23.3-52,52v8c-7.6,2.6-13.1,9.8-13.1,18.2v65.5
		c0,10.6,8.6,19.3,19.3,19.3h91.7c10.6,0,19.3-8.6,19.3-19.3v-65.5C496.2,310.4,490.7,303.2,483.1,300.6L483.1,300.6z M431.1,252.9
		c21.9,0,39.7,17.8,39.7,39.7v7h-79.5v-7C391.3,270.8,409.2,252.9,431.1,252.9L431.1,252.9z M483.9,384.4c0,3.8-3.1,7-7,7h-91.7
		c-3.8,0-7-3.1-7-7v-65.5c0-3.8,3.1-7,7-7h91.7c3.8,0,7,3.1,7,7V384.4z M483.9,384.4"/>
	<path class="st0" d="M190.4,250.3c-1.7-2.9-5.5-3.9-8.4-2.2l-13.5,7.8v-15.6c0-3.4-2.8-6.1-6.1-6.1c-3.4,0-6.1,2.8-6.1,6.1v15.6
		l-13.5-7.8c-2.9-1.7-6.7-0.7-8.4,2.2c-1.7,2.9-0.7,6.7,2.2,8.4l13.5,7.8l-13.5,7.8c-2.9,1.7-3.9,5.5-2.2,8.4c1.1,2,3.2,3.1,5.3,3.1
		c1,0,2.1-0.3,3.1-0.8l13.5-7.8v15.6c0,3.4,2.8,6.1,6.1,6.1c3.4,0,6.1-2.8,6.1-6.1v-15.6l13.5,7.8c1,0.6,2,0.8,3.1,0.8
		c2.1,0,4.2-1.1,5.3-3.1c1.7-2.9,0.7-6.7-2.2-8.4l-13.5-7.8l13.5-7.8C191.1,257,192.1,253.2,190.4,250.3L190.4,250.3z M190.4,250.3"
		/>
	<path class="st0" d="M269,250.3c-1.7-2.9-5.5-3.9-8.4-2.2l-13.5,7.8v-15.6c0-3.4-2.8-6.1-6.1-6.1c-3.4,0-6.1,2.8-6.1,6.1v15.6
		l-13.5-7.8c-2.9-1.7-6.7-0.7-8.4,2.2c-1.7,2.9-0.7,6.7,2.2,8.4l13.5,7.8l-13.5,7.8c-2.9,1.7-3.9,5.5-2.2,8.4c1.1,2,3.2,3.1,5.3,3.1
		c1,0,2.1-0.3,3.1-0.8l13.5-7.8v15.6c0,3.4,2.8,6.1,6.1,6.1c3.4,0,6.1-2.8,6.1-6.1v-15.6l13.5,7.8c1,0.6,2,0.8,3.1,0.8
		c2.1,0,4.2-1.1,5.3-3.1c1.7-2.9,0.7-6.7-2.3-8.4l-13.5-7.8l13.5-7.8C269.7,257,270.7,253.2,269,250.3L269,250.3z M269,250.3"/>
	<path class="st0" d="M347.7,250.3c-1.7-2.9-5.5-3.9-8.4-2.2l-13.5,7.8v-15.6c0-3.4-2.8-6.1-6.1-6.1c-3.4,0-6.1,2.8-6.1,6.1v15.6
		L300,248c-2.9-1.7-6.7-0.7-8.4,2.2c-1.7,2.9-0.7,6.7,2.2,8.4l13.5,7.8l-13.5,7.8c-2.9,1.7-3.9,5.5-2.2,8.4c1.1,2,3.2,3.1,5.3,3.1
		c1,0,2.1-0.3,3.1-0.8l13.5-7.8v15.6c0,3.4,2.7,6.1,6.1,6.1c3.4,0,6.1-2.8,6.1-6.1v-15.6l13.5,7.8c1,0.6,2,0.8,3.1,0.8
		c2.1,0,4.2-1.1,5.3-3.1c1.7-2.9,0.7-6.7-2.2-8.4l-13.5-7.8l13.5-7.8C348.4,257,349.4,253.2,347.7,250.3L347.7,250.3z M347.7,250.3"
		/>
	<path class="st1" d="M431.1,325.8c-10.6,0-19.2,8.6-19.2,19.2c0,8.5,5.5,15.7,13.1,18.2v8c0,3.4,2.8,6.1,6.1,6.1
		c3.4,0,6.1-2.8,6.1-6.1v-8c7.6-2.6,13.1-9.8,13.1-18.2C450.3,334.5,441.7,325.8,431.1,325.8L431.1,325.8z M431.1,352.1
		c-3.8,0-7-3.1-7-7c0-3.8,3.1-7,7-7c3.8,0,7,3.1,7,7C438,348.9,434.9,352.1,431.1,352.1L431.1,352.1z M431.1,352.1"/>
</g>
</svg>
